<?xml version="1.0" encoding="UTF-8" standalone="no"?>
<!DOCTYPE svg PUBLIC "-//W3C//DTD SVG 1.1//EN"
 "http://www.w3.org/Graphics/SVG/1.1/DTD/svg11.dtd">
<!-- Generated by graphviz version 2.28.0 (20120228.1928)
 -->
<!-- Title: controllers_diagram Pages: 1 -->
<svg width="783pt" height="838pt"
 viewBox="0.00 0.00 783.00 838.00" xmlns="http://www.w3.org/2000/svg" xmlns:xlink="http://www.w3.org/1999/xlink">
<g id="graph1" class="graph" transform="scale(1 1) rotate(0) translate(4 834)">
<title>controllers_diagram</title>
<polygon fill="white" stroke="white" points="-4,5 -4,-834 780,-834 780,5 -4,5"/>
<!-- _diagram_info -->
<g id="node1" class="node"><title>_diagram_info</title>
<text text-anchor="start" x="569" y="-199.6" font-family="Times,serif" font-size="13.00">Controllers diagram</text>
<text text-anchor="start" x="569" y="-185.6" font-family="Times,serif" font-size="13.00">Date: Jun 14 2012 &#45; 17:42</text>
<text text-anchor="start" x="569" y="-171.6" font-family="Times,serif" font-size="13.00">Migration version: 20120614143729</text>
<text text-anchor="start" x="569" y="-157.6" font-family="Times,serif" font-size="13.00">Generated by RailRoady 1.0.7</text>
<text text-anchor="start" x="569" y="-143.6" font-family="Times,serif" font-size="13.00">http://railroady.prestonlee.com</text>
</g>
<!-- PostsController -->
<g id="node2" class="node"><title>PostsController</title>
<polyline fill="none" stroke="black" points="301,-510.5 378,-510.5 "/>
<path fill="none" stroke="black" d="M378,-510.5C384,-510.5 390,-516.5 390,-522.5"/>
<polyline fill="none" stroke="black" points="390,-522.5 390,-726.5 "/>
<path fill="none" stroke="black" d="M390,-726.5C390,-732.5 384,-738.5 378,-738.5"/>
<polyline fill="none" stroke="black" points="378,-738.5 301,-738.5 "/>
<path fill="none" stroke="black" d="M301,-738.5C295,-738.5 289,-732.5 289,-726.5"/>
<polyline fill="none" stroke="black" points="289,-726.5 289,-522.5 "/>
<path fill="none" stroke="black" d="M289,-522.5C289,-516.5 295,-510.5 301,-510.5"/>
<text text-anchor="middle" x="339.5" y="-723.3" font-family="Times,serif" font-size="14.00">PostsController</text>
<polyline fill="none" stroke="black" points="289,-715.5 390,-715.5 "/>
<text text-anchor="start" x="297" y="-700.3" font-family="Times,serif" font-size="14.00">answering</text>
<text text-anchor="start" x="297" y="-685.3" font-family="Times,serif" font-size="14.00">commenting</text>
<text text-anchor="start" x="297" y="-670.3" font-family="Times,serif" font-size="14.00">create</text>
<text text-anchor="start" x="297" y="-655.3" font-family="Times,serif" font-size="14.00">destroy</text>
<text text-anchor="start" x="297" y="-640.3" font-family="Times,serif" font-size="14.00">edit</text>
<text text-anchor="start" x="297" y="-625.3" font-family="Times,serif" font-size="14.00">index</text>
<text text-anchor="start" x="297" y="-610.3" font-family="Times,serif" font-size="14.00">new</text>
<text text-anchor="start" x="297" y="-595.3" font-family="Times,serif" font-size="14.00">rate</text>
<text text-anchor="start" x="297" y="-580.3" font-family="Times,serif" font-size="14.00">show</text>
<text text-anchor="start" x="297" y="-565.3" font-family="Times,serif" font-size="14.00">update</text>
<polyline fill="none" stroke="black" points="289,-557.5 390,-557.5 "/>
<polyline fill="none" stroke="black" points="289,-533.5 390,-533.5 "/>
<text text-anchor="start" x="297" y="-518.3" font-family="Times,serif" font-size="14.00">_layout</text>
</g>
<!-- InstitutesController -->
<g id="node3" class="node"><title>InstitutesController</title>
<polyline fill="none" stroke="black" points="488,-527.5 586,-527.5 "/>
<path fill="none" stroke="black" d="M586,-527.5C592,-527.5 598,-533.5 598,-539.5"/>
<polyline fill="none" stroke="black" points="598,-539.5 598,-698.5 "/>
<path fill="none" stroke="black" d="M598,-698.5C598,-704.5 592,-710.5 586,-710.5"/>
<polyline fill="none" stroke="black" points="586,-710.5 488,-710.5 "/>
<path fill="none" stroke="black" d="M488,-710.5C482,-710.5 476,-704.5 476,-698.5"/>
<polyline fill="none" stroke="black" points="476,-698.5 476,-539.5 "/>
<path fill="none" stroke="black" d="M476,-539.5C476,-533.5 482,-527.5 488,-527.5"/>
<text text-anchor="middle" x="537" y="-695.3" font-family="Times,serif" font-size="14.00">InstitutesController</text>
<polyline fill="none" stroke="black" points="476,-687.5 598,-687.5 "/>
<text text-anchor="start" x="484" y="-672.3" font-family="Times,serif" font-size="14.00">create</text>
<text text-anchor="start" x="484" y="-657.3" font-family="Times,serif" font-size="14.00">destroy</text>
<text text-anchor="start" x="484" y="-642.3" font-family="Times,serif" font-size="14.00">edit</text>
<text text-anchor="start" x="484" y="-627.3" font-family="Times,serif" font-size="14.00">index</text>
<text text-anchor="start" x="484" y="-612.3" font-family="Times,serif" font-size="14.00">new</text>
<text text-anchor="start" x="484" y="-597.3" font-family="Times,serif" font-size="14.00">show</text>
<text text-anchor="start" x="484" y="-582.3" font-family="Times,serif" font-size="14.00">update</text>
<polyline fill="none" stroke="black" points="476,-574.5 598,-574.5 "/>
<polyline fill="none" stroke="black" points="476,-550.5 598,-550.5 "/>
<text text-anchor="start" x="484" y="-535.3" font-family="Times,serif" font-size="14.00">_layout</text>
</g>
<!-- ChairsController -->
<g id="node4" class="node"><title>ChairsController</title>
<polyline fill="none" stroke="black" points="114,-340.5 197,-340.5 "/>
<path fill="none" stroke="black" d="M197,-340.5C203,-340.5 209,-346.5 209,-352.5"/>
<polyline fill="none" stroke="black" points="209,-352.5 209,-511.5 "/>
<path fill="none" stroke="black" d="M209,-511.5C209,-517.5 203,-523.5 197,-523.5"/>
<polyline fill="none" stroke="black" points="197,-523.5 114,-523.5 "/>
<path fill="none" stroke="black" d="M114,-523.5C108,-523.5 102,-517.5 102,-511.5"/>
<polyline fill="none" stroke="black" points="102,-511.5 102,-352.5 "/>
<path fill="none" stroke="black" d="M102,-352.5C102,-346.5 108,-340.5 114,-340.5"/>
<text text-anchor="middle" x="155.5" y="-508.3" font-family="Times,serif" font-size="14.00">ChairsController</text>
<polyline fill="none" stroke="black" points="102,-500.5 209,-500.5 "/>
<text text-anchor="start" x="110" y="-485.3" font-family="Times,serif" font-size="14.00">create</text>
<text text-anchor="start" x="110" y="-470.3" font-family="Times,serif" font-size="14.00">destroy</text>
<text text-anchor="start" x="110" y="-455.3" font-family="Times,serif" font-size="14.00">edit</text>
<text text-anchor="start" x="110" y="-440.3" font-family="Times,serif" font-size="14.00">index</text>
<text text-anchor="start" x="110" y="-425.3" font-family="Times,serif" font-size="14.00">new</text>
<text text-anchor="start" x="110" y="-410.3" font-family="Times,serif" font-size="14.00">show</text>
<text text-anchor="start" x="110" y="-395.3" font-family="Times,serif" font-size="14.00">update</text>
<polyline fill="none" stroke="black" points="102,-387.5 209,-387.5 "/>
<polyline fill="none" stroke="black" points="102,-363.5 209,-363.5 "/>
<text text-anchor="start" x="110" y="-348.3" font-family="Times,serif" font-size="14.00">_layout</text>
</g>
<!-- HomeController -->
<g id="node5" class="node"><title>HomeController</title>
<polyline fill="none" stroke="black" points="12,-697.5 94,-697.5 "/>
<path fill="none" stroke="black" d="M94,-697.5C100,-697.5 106,-703.5 106,-709.5"/>
<polyline fill="none" stroke="black" points="106,-709.5 106,-778.5 "/>
<path fill="none" stroke="black" d="M106,-778.5C106,-784.5 100,-790.5 94,-790.5"/>
<polyline fill="none" stroke="black" points="94,-790.5 12,-790.5 "/>
<path fill="none" stroke="black" d="M12,-790.5C6,-790.5 0,-784.5 0,-778.5"/>
<polyline fill="none" stroke="black" points="0,-778.5 0,-709.5 "/>
<path fill="none" stroke="black" d="M0,-709.5C0,-703.5 6,-697.5 12,-697.5"/>
<text text-anchor="middle" x="53" y="-775.3" font-family="Times,serif" font-size="14.00">HomeController</text>
<polyline fill="none" stroke="black" points="0,-767.5 106,-767.5 "/>
<text text-anchor="start" x="8" y="-752.3" font-family="Times,serif" font-size="14.00">index</text>
<polyline fill="none" stroke="black" points="0,-744.5 106,-744.5 "/>
<polyline fill="none" stroke="black" points="0,-720.5 106,-720.5 "/>
<text text-anchor="start" x="8" y="-705.3" font-family="Times,serif" font-size="14.00">_layout</text>
</g>
<!-- TermsController -->
<g id="node6" class="node"><title>TermsController</title>
<polyline fill="none" stroke="black" points="80,-119.5 163,-119.5 "/>
<path fill="none" stroke="black" d="M163,-119.5C169,-119.5 175,-125.5 175,-131.5"/>
<polyline fill="none" stroke="black" points="175,-131.5 175,-290.5 "/>
<path fill="none" stroke="black" d="M175,-290.5C175,-296.5 169,-302.5 163,-302.5"/>
<polyline fill="none" stroke="black" points="163,-302.5 80,-302.5 "/>
<path fill="none" stroke="black" d="M80,-302.5C74,-302.5 68,-296.5 68,-290.5"/>
<polyline fill="none" stroke="black" points="68,-290.5 68,-131.5 "/>
<path fill="none" stroke="black" d="M68,-131.5C68,-125.5 74,-119.5 80,-119.5"/>
<text text-anchor="middle" x="121.5" y="-287.3" font-family="Times,serif" font-size="14.00">TermsController</text>
<polyline fill="none" stroke="black" points="68,-279.5 175,-279.5 "/>
<text text-anchor="start" x="76" y="-264.3" font-family="Times,serif" font-size="14.00">create</text>
<text text-anchor="start" x="76" y="-249.3" font-family="Times,serif" font-size="14.00">destroy</text>
<text text-anchor="start" x="76" y="-234.3" font-family="Times,serif" font-size="14.00">edit</text>
<text text-anchor="start" x="76" y="-219.3" font-family="Times,serif" font-size="14.00">index</text>
<text text-anchor="start" x="76" y="-204.3" font-family="Times,serif" font-size="14.00">new</text>
<text text-anchor="start" x="76" y="-189.3" font-family="Times,serif" font-size="14.00">show</text>
<text text-anchor="start" x="76" y="-174.3" font-family="Times,serif" font-size="14.00">update</text>
<polyline fill="none" stroke="black" points="68,-166.5 175,-166.5 "/>
<polyline fill="none" stroke="black" points="68,-142.5 175,-142.5 "/>
<text text-anchor="start" x="76" y="-127.3" font-family="Times,serif" font-size="14.00">_layout</text>
</g>
<!-- RegistrationsController -->
<g id="node7" class="node"><title>RegistrationsController</title>
<polyline fill="none" stroke="black" points="590,-255.5 709,-255.5 "/>
<path fill="none" stroke="black" d="M709,-255.5C715,-255.5 721,-261.5 721,-267.5"/>
<polyline fill="none" stroke="black" points="721,-267.5 721,-381.5 "/>
<path fill="none" stroke="black" d="M721,-381.5C721,-387.5 715,-393.5 709,-393.5"/>
<polyline fill="none" stroke="black" points="709,-393.5 590,-393.5 "/>
<path fill="none" stroke="black" d="M590,-393.5C584,-393.5 578,-387.5 578,-381.5"/>
<polyline fill="none" stroke="black" points="578,-381.5 578,-267.5 "/>
<path fill="none" stroke="black" d="M578,-267.5C578,-261.5 584,-255.5 590,-255.5"/>
<text text-anchor="middle" x="649.5" y="-378.3" font-family="Times,serif" font-size="14.00">RegistrationsController</text>
<polyline fill="none" stroke="black" points="578,-370.5 721,-370.5 "/>
<text text-anchor="start" x="586" y="-355.3" font-family="Times,serif" font-size="14.00">create</text>
<text text-anchor="start" x="586" y="-340.3" font-family="Times,serif" font-size="14.00">edit</text>
<text text-anchor="start" x="586" y="-325.3" font-family="Times,serif" font-size="14.00">new</text>
<text text-anchor="start" x="586" y="-310.3" font-family="Times,serif" font-size="14.00">update</text>
<polyline fill="none" stroke="black" points="578,-302.5 721,-302.5 "/>
<polyline fill="none" stroke="black" points="578,-278.5 721,-278.5 "/>
<text text-anchor="start" x="586" y="-263.3" font-family="Times,serif" font-size="14.00">_layout</text>
</g>
<!-- EventsController -->
<g id="node8" class="node"><title>EventsController</title>
<polyline fill="none" stroke="black" points="641,-425.5 726,-425.5 "/>
<path fill="none" stroke="black" d="M726,-425.5C732,-425.5 738,-431.5 738,-437.5"/>
<polyline fill="none" stroke="black" points="738,-437.5 738,-596.5 "/>
<path fill="none" stroke="black" d="M738,-596.5C738,-602.5 732,-608.5 726,-608.5"/>
<polyline fill="none" stroke="black" points="726,-608.5 641,-608.5 "/>
<path fill="none" stroke="black" d="M641,-608.5C635,-608.5 629,-602.5 629,-596.5"/>
<polyline fill="none" stroke="black" points="629,-596.5 629,-437.5 "/>
<path fill="none" stroke="black" d="M629,-437.5C629,-431.5 635,-425.5 641,-425.5"/>
<text text-anchor="middle" x="683.5" y="-593.3" font-family="Times,serif" font-size="14.00">EventsController</text>
<polyline fill="none" stroke="black" points="629,-585.5 738,-585.5 "/>
<text text-anchor="start" x="637" y="-570.3" font-family="Times,serif" font-size="14.00">create</text>
<text text-anchor="start" x="637" y="-555.3" font-family="Times,serif" font-size="14.00">destroy</text>
<text text-anchor="start" x="637" y="-540.3" font-family="Times,serif" font-size="14.00">edit</text>
<text text-anchor="start" x="637" y="-525.3" font-family="Times,serif" font-size="14.00">index</text>
<text text-anchor="start" x="637" y="-510.3" font-family="Times,serif" font-size="14.00">new</text>
<text text-anchor="start" x="637" y="-495.3" font-family="Times,serif" font-size="14.00">show</text>
<text text-anchor="start" x="637" y="-480.3" font-family="Times,serif" font-size="14.00">update</text>
<polyline fill="none" stroke="black" points="629,-472.5 738,-472.5 "/>
<polyline fill="none" stroke="black" points="629,-448.5 738,-448.5 "/>
<text text-anchor="start" x="637" y="-433.3" font-family="Times,serif" font-size="14.00">_layout</text>
</g>
<!-- LecturesController -->
<g id="node9" class="node"><title>LecturesController</title>
<polyline fill="none" stroke="black" points="641,-646.5 736,-646.5 "/>
<path fill="none" stroke="black" d="M736,-646.5C742,-646.5 748,-652.5 748,-658.5"/>
<polyline fill="none" stroke="black" points="748,-658.5 748,-817.5 "/>
<path fill="none" stroke="black" d="M748,-817.5C748,-823.5 742,-829.5 736,-829.5"/>
<polyline fill="none" stroke="black" points="736,-829.5 641,-829.5 "/>
<path fill="none" stroke="black" d="M641,-829.5C635,-829.5 629,-823.5 629,-817.5"/>
<polyline fill="none" stroke="black" points="629,-817.5 629,-658.5 "/>
<path fill="none" stroke="black" d="M629,-658.5C629,-652.5 635,-646.5 641,-646.5"/>
<text text-anchor="middle" x="688.5" y="-814.3" font-family="Times,serif" font-size="14.00">LecturesController</text>
<polyline fill="none" stroke="black" points="629,-806.5 748,-806.5 "/>
<text text-anchor="start" x="637" y="-791.3" font-family="Times,serif" font-size="14.00">create</text>
<text text-anchor="start" x="637" y="-776.3" font-family="Times,serif" font-size="14.00">destroy</text>
<text text-anchor="start" x="637" y="-761.3" font-family="Times,serif" font-size="14.00">edit</text>
<text text-anchor="start" x="637" y="-746.3" font-family="Times,serif" font-size="14.00">index</text>
<text text-anchor="start" x="637" y="-731.3" font-family="Times,serif" font-size="14.00">new</text>
<text text-anchor="start" x="637" y="-716.3" font-family="Times,serif" font-size="14.00">show</text>
<text text-anchor="start" x="637" y="-701.3" font-family="Times,serif" font-size="14.00">update</text>
<polyline fill="none" stroke="black" points="629,-693.5 748,-693.5 "/>
<polyline fill="none" stroke="black" points="629,-669.5 748,-669.5 "/>
<text text-anchor="start" x="637" y="-654.3" font-family="Times,serif" font-size="14.00">_layout</text>
</g>
<!-- ApplicationController -->
<g id="node10" class="node"><title>ApplicationController</title>
<polyline fill="none" stroke="black" points="335,-136.5 515,-136.5 "/>
<path fill="none" stroke="black" d="M515,-136.5C521,-136.5 527,-142.5 527,-148.5"/>
<polyline fill="none" stroke="black" points="527,-148.5 527,-232.5 "/>
<path fill="none" stroke="black" d="M527,-232.5C527,-238.5 521,-244.5 515,-244.5"/>
<polyline fill="none" stroke="black" points="515,-244.5 335,-244.5 "/>
<path fill="none" stroke="black" d="M335,-244.5C329,-244.5 323,-238.5 323,-232.5"/>
<polyline fill="none" stroke="black" points="323,-232.5 323,-148.5 "/>
<path fill="none" stroke="black" d="M323,-148.5C323,-142.5 329,-136.5 335,-136.5"/>
<text text-anchor="middle" x="425" y="-229.3" font-family="Times,serif" font-size="14.00">ApplicationController</text>
<polyline fill="none" stroke="black" points="323,-221.5 527,-221.5 "/>
<text text-anchor="start" x="331" y="-206.3" font-family="Times,serif" font-size="14.00">_one_time_conditions_valid_168?</text>
<text text-anchor="start" x="331" y="-191.3" font-family="Times,serif" font-size="14.00">create_user</text>
<polyline fill="none" stroke="black" points="323,-183.5 527,-183.5 "/>
<polyline fill="none" stroke="black" points="323,-159.5 527,-159.5 "/>
<text text-anchor="start" x="331" y="-144.3" font-family="Times,serif" font-size="14.00">_layout</text>
</g>
<!-- PeriodsController -->
<g id="node11" class="node"><title>PeriodsController</title>
<polyline fill="none" stroke="black" points="250,-272.5 380,-272.5 "/>
<path fill="none" stroke="black" d="M380,-272.5C386,-272.5 392,-278.5 392,-284.5"/>
<polyline fill="none" stroke="black" points="392,-284.5 392,-458.5 "/>
<path fill="none" stroke="black" d="M392,-458.5C392,-464.5 386,-470.5 380,-470.5"/>
<polyline fill="none" stroke="black" points="380,-470.5 250,-470.5 "/>
<path fill="none" stroke="black" d="M250,-470.5C244,-470.5 238,-464.5 238,-458.5"/>
<polyline fill="none" stroke="black" points="238,-458.5 238,-284.5 "/>
<path fill="none" stroke="black" d="M238,-284.5C238,-278.5 244,-272.5 250,-272.5"/>
<text text-anchor="middle" x="315" y="-455.3" font-family="Times,serif" font-size="14.00">PeriodsController</text>
<polyline fill="none" stroke="black" points="238,-447.5 392,-447.5 "/>
<text text-anchor="start" x="246" y="-432.3" font-family="Times,serif" font-size="14.00">calculate_minute_of_day</text>
<text text-anchor="start" x="246" y="-417.3" font-family="Times,serif" font-size="14.00">create</text>
<text text-anchor="start" x="246" y="-402.3" font-family="Times,serif" font-size="14.00">destroy</text>
<text text-anchor="start" x="246" y="-387.3" font-family="Times,serif" font-size="14.00">edit</text>
<text text-anchor="start" x="246" y="-372.3" font-family="Times,serif" font-size="14.00">index</text>
<text text-anchor="start" x="246" y="-357.3" font-family="Times,serif" font-size="14.00">new</text>
<text text-anchor="start" x="246" y="-342.3" font-family="Times,serif" font-size="14.00">show</text>
<text text-anchor="start" x="246" y="-327.3" font-family="Times,serif" font-size="14.00">update</text>
<polyline fill="none" stroke="black" points="238,-319.5 392,-319.5 "/>
<polyline fill="none" stroke="black" points="238,-295.5 392,-295.5 "/>
<text text-anchor="start" x="246" y="-280.3" font-family="Times,serif" font-size="14.00">_layout</text>
</g>
<!-- FacultiesController -->
<g id="node12" class="node"><title>FacultiesController</title>
<polyline fill="none" stroke="black" points="148,-561.5 245,-561.5 "/>
<path fill="none" stroke="black" d="M245,-561.5C251,-561.5 257,-567.5 257,-573.5"/>
<polyline fill="none" stroke="black" points="257,-573.5 257,-732.5 "/>
<path fill="none" stroke="black" d="M257,-732.5C257,-738.5 251,-744.5 245,-744.5"/>
<polyline fill="none" stroke="black" points="245,-744.5 148,-744.5 "/>
<path fill="none" stroke="black" d="M148,-744.5C142,-744.5 136,-738.5 136,-732.5"/>
<polyline fill="none" stroke="black" points="136,-732.5 136,-573.5 "/>
<path fill="none" stroke="black" d="M136,-573.5C136,-567.5 142,-561.5 148,-561.5"/>
<text text-anchor="middle" x="196.5" y="-729.3" font-family="Times,serif" font-size="14.00">FacultiesController</text>
<polyline fill="none" stroke="black" points="136,-721.5 257,-721.5 "/>
<text text-anchor="start" x="144" y="-706.3" font-family="Times,serif" font-size="14.00">create</text>
<text text-anchor="start" x="144" y="-691.3" font-family="Times,serif" font-size="14.00">destroy</text>
<text text-anchor="start" x="144" y="-676.3" font-family="Times,serif" font-size="14.00">edit</text>
<text text-anchor="start" x="144" y="-661.3" font-family="Times,serif" font-size="14.00">index</text>
<text text-anchor="start" x="144" y="-646.3" font-family="Times,serif" font-size="14.00">new</text>
<text text-anchor="start" x="144" y="-631.3" font-family="Times,serif" font-size="14.00">show</text>
<text text-anchor="start" x="144" y="-616.3" font-family="Times,serif" font-size="14.00">update</text>
<polyline fill="none" stroke="black" points="136,-608.5 257,-608.5 "/>
<polyline fill="none" stroke="black" points="136,-584.5 257,-584.5 "/>
<text text-anchor="start" x="144" y="-569.3" font-family="Times,serif" font-size="14.00">_layout</text>
</g>
<!-- CoursesController -->
<g id="node13" class="node"><title>CoursesController</title>
<polyline fill="none" stroke="black" points="437,-272.5 529,-272.5 "/>
<path fill="none" stroke="black" d="M529,-272.5C535,-272.5 541,-278.5 541,-284.5"/>
<polyline fill="none" stroke="black" points="541,-284.5 541,-488.5 "/>
<path fill="none" stroke="black" d="M541,-488.5C541,-494.5 535,-500.5 529,-500.5"/>
<polyline fill="none" stroke="black" points="529,-500.5 437,-500.5 "/>
<path fill="none" stroke="black" d="M437,-500.5C431,-500.5 425,-494.5 425,-488.5"/>
<polyline fill="none" stroke="black" points="425,-488.5 425,-284.5 "/>
<path fill="none" stroke="black" d="M425,-284.5C425,-278.5 431,-272.5 437,-272.5"/>
<text text-anchor="middle" x="483" y="-485.3" font-family="Times,serif" font-size="14.00">CoursesController</text>
<polyline fill="none" stroke="black" points="425,-477.5 541,-477.5 "/>
<text text-anchor="start" x="433" y="-462.3" font-family="Times,serif" font-size="14.00">create</text>
<text text-anchor="start" x="433" y="-447.3" font-family="Times,serif" font-size="14.00">destroy</text>
<text text-anchor="start" x="433" y="-432.3" font-family="Times,serif" font-size="14.00">edit</text>
<text text-anchor="start" x="433" y="-417.3" font-family="Times,serif" font-size="14.00">following</text>
<text text-anchor="start" x="433" y="-402.3" font-family="Times,serif" font-size="14.00">index</text>
<text text-anchor="start" x="433" y="-387.3" font-family="Times,serif" font-size="14.00">new</text>
<text text-anchor="start" x="433" y="-372.3" font-family="Times,serif" font-size="14.00">new_post</text>
<text text-anchor="start" x="433" y="-357.3" font-family="Times,serif" font-size="14.00">search</text>
<text text-anchor="start" x="433" y="-342.3" font-family="Times,serif" font-size="14.00">show</text>
<text text-anchor="start" x="433" y="-327.3" font-family="Times,serif" font-size="14.00">update</text>
<polyline fill="none" stroke="black" points="425,-319.5 541,-319.5 "/>
<polyline fill="none" stroke="black" points="425,-295.5 541,-295.5 "/>
<text text-anchor="start" x="433" y="-280.3" font-family="Times,serif" font-size="14.00">_layout</text>
</g>
<!-- CourseMembershipsController -->
<g id="node14" class="node"><title>CourseMembershipsController</title>
<polyline fill="none" stroke="black" points="335,-0.5 496,-0.5 "/>
<path fill="none" stroke="black" d="M496,-0.5C502,-0.5 508,-6.5 508,-12.5"/>
<polyline fill="none" stroke="black" points="508,-12.5 508,-82.5 "/>
<path fill="none" stroke="black" d="M508,-82.5C508,-88.5 502,-94.5 496,-94.5"/>
<polyline fill="none" stroke="black" points="496,-94.5 335,-94.5 "/>
<path fill="none" stroke="black" d="M335,-94.5C329,-94.5 323,-88.5 323,-82.5"/>
<polyline fill="none" stroke="black" points="323,-82.5 323,-12.5 "/>
<path fill="none" stroke="black" d="M323,-12.5C323,-6.5 329,-0.5 335,-0.5"/>
<text text-anchor="middle" x="415.5" y="-79.3" font-family="Times,serif" font-size="14.00">CourseMembershipsController</text>
<polyline fill="none" stroke="black" points="323,-71.5 508,-71.5 "/>
<polyline fill="none" stroke="black" points="323,-47.5 508,-47.5 "/>
<polyline fill="none" stroke="black" points="323,-23.5 508,-23.5 "/>
<text text-anchor="start" x="331" y="-8.3" font-family="Times,serif" font-size="14.00">_layout</text>
</g>
</g>
</svg>
