<?xml version="1.0" encoding="UTF-8" standalone="no"?>
<!DOCTYPE svg PUBLIC "-//W3C//DTD SVG 1.1//EN"
 "http://www.w3.org/Graphics/SVG/1.1/DTD/svg11.dtd">
<!-- Generated by graphviz version 2.28.0 (20120228.1928)
 -->
<!-- Title: models_diagram Pages: 1 -->
<svg width="633pt" height="604pt"
 viewBox="0.00 0.00 633.00 604.00" xmlns="http://www.w3.org/2000/svg" xmlns:xlink="http://www.w3.org/1999/xlink">
<g id="graph1" class="graph" transform="scale(1 1) rotate(0) translate(4 600)">
<title>models_diagram</title>
<polygon fill="white" stroke="white" points="-4,5 -4,-600 630,-600 630,5 -4,5"/>
<!-- _diagram_info -->
<g id="node1" class="node"><title>_diagram_info</title>
<text text-anchor="start" x="8" y="-581.6" font-family="Times,serif" font-size="13.00">Models diagram</text>
<text text-anchor="start" x="8" y="-567.6" font-family="Times,serif" font-size="13.00">Date: Jun 14 2012 &#45; 17:42</text>
<text text-anchor="start" x="8" y="-553.6" font-family="Times,serif" font-size="13.00">Migration version: 20120614143729</text>
<text text-anchor="start" x="8" y="-539.6" font-family="Times,serif" font-size="13.00">Generated by RailRoady 1.0.7</text>
<text text-anchor="start" x="8" y="-525.6" font-family="Times,serif" font-size="13.00">http://railroady.prestonlee.com</text>
</g>
<!-- Institute -->
<g id="node2" class="node"><title>Institute</title>
<ellipse fill="none" stroke="black" cx="269" cy="-462" rx="39.4691" ry="18"/>
<text text-anchor="middle" x="269" y="-458.3" font-family="Times,serif" font-size="14.00">Institute</text>
</g>
<!-- Chair -->
<g id="node4" class="node"><title>Chair</title>
<ellipse fill="none" stroke="black" cx="269" cy="-388" rx="30.3206" ry="18"/>
<text text-anchor="middle" x="269" y="-384.3" font-family="Times,serif" font-size="14.00">Chair</text>
</g>
<!-- Institute&#45;&gt;Chair -->
<g id="edge2" class="edge"><title>Institute&#45;&gt;Chair</title>
<path fill="none" stroke="#dd6531" d="M269,-435.792C269,-429.58 269,-422.896 269,-416.579"/>
<ellipse fill="none" stroke="#dd6531" cx="269" cy="-439.937" rx="4" ry="4"/>
<polygon fill="#dd6531" stroke="#dd6531" points="269,-416.441 273.5,-406.441 269,-411.441 269,-406.441 269,-406.441 269,-406.441 269,-411.441 264.5,-406.441 269,-416.441 269,-416.441"/>
</g>
<!-- Faculty -->
<g id="node3" class="node"><title>Faculty</title>
<ellipse fill="none" stroke="black" cx="269" cy="-557" rx="37.0701" ry="18"/>
<text text-anchor="middle" x="269" y="-553.3" font-family="Times,serif" font-size="14.00">Faculty</text>
</g>
<!-- Faculty&#45;&gt;Institute -->
<g id="edge4" class="edge"><title>Faculty&#45;&gt;Institute</title>
<path fill="none" stroke="#20afea" d="M269,-530.562C269,-518.078 269,-503.025 269,-490.299"/>
<ellipse fill="none" stroke="#20afea" cx="269" cy="-534.942" rx="4" ry="4"/>
<polygon fill="#20afea" stroke="#20afea" points="269,-490.264 273.5,-480.264 269,-485.264 269,-480.264 269,-480.264 269,-480.264 269,-485.264 264.5,-480.264 269,-490.264 269,-490.264"/>
</g>
<!-- FacultyMembership -->
<g id="node8" class="node"><title>FacultyMembership</title>
<ellipse fill="none" stroke="black" cx="543" cy="-92" rx="82.3139" ry="18"/>
<text text-anchor="middle" x="543" y="-88.3" font-family="Times,serif" font-size="14.00">FacultyMembership</text>
</g>
<!-- Faculty&#45;&gt;FacultyMembership -->
<g id="edge6" class="edge"><title>Faculty&#45;&gt;FacultyMembership</title>
<path fill="none" stroke="#f4a06b" d="M290.592,-534.656C297.849,-528.487 306.319,-522.273 315,-518 413.571,-469.481 556,-572.865 556,-463 556,-463 556,-463 556,-165 556,-149.966 553.221,-133.443 550.233,-120.021"/>
<ellipse fill="none" stroke="#f4a06b" cx="287.286" cy="-537.595" rx="4.00002" ry="4.00002"/>
<polygon fill="#f4a06b" stroke="#f4a06b" points="550.165,-119.736 552.217,-108.964 549.003,-114.873 547.841,-110.01 547.841,-110.01 547.841,-110.01 549.003,-114.873 543.464,-111.056 550.165,-119.736 550.165,-119.736"/>
</g>
<!-- User -->
<g id="node15" class="node"><title>User</title>
<ellipse fill="none" stroke="black" cx="271" cy="-166" rx="26.949" ry="18"/>
<text text-anchor="middle" x="271" y="-162.3" font-family="Times,serif" font-size="14.00">User</text>
</g>
<!-- Faculty&#45;&gt;User -->
<g id="edge8" class="edge"><title>Faculty&#45;&gt;User</title>
<path fill="none" stroke="#ac1ef5" d="M244.671,-534.019C221.782,-512.302 191,-479.945 191,-463 191,-463 191,-463 191,-239 191,-211.859 216.754,-192.338 239.037,-180.528"/>
<polygon fill="#ac1ef5" stroke="#ac1ef5" points="244.769,-534.111 249.002,-544.227 248.422,-537.525 252.075,-540.939 252.075,-540.939 252.075,-540.939 248.422,-537.525 255.148,-537.652 244.769,-534.111 244.769,-534.111"/>
<polygon fill="#ac1ef5" stroke="#ac1ef5" points="239.331,-180.382 250.289,-179.97 243.81,-178.16 248.289,-175.939 248.289,-175.939 248.289,-175.939 243.81,-178.16 246.29,-171.907 239.331,-180.382 239.331,-180.382"/>
</g>
<!-- Lecture -->
<g id="node9" class="node"><title>Lecture</title>
<ellipse fill="none" stroke="black" cx="269" cy="-314" rx="37.5442" ry="18"/>
<text text-anchor="middle" x="269" y="-310.3" font-family="Times,serif" font-size="14.00">Lecture</text>
</g>
<!-- Chair&#45;&gt;Lecture -->
<g id="edge10" class="edge"><title>Chair&#45;&gt;Lecture</title>
<path fill="none" stroke="#f5a9ce" d="M269,-361.792C269,-355.58 269,-348.896 269,-342.579"/>
<ellipse fill="none" stroke="#f5a9ce" cx="269" cy="-365.937" rx="4" ry="4"/>
<polygon fill="#f5a9ce" stroke="#f5a9ce" points="269,-342.441 273.5,-332.441 269,-337.441 269,-332.441 269,-332.441 269,-332.441 269,-337.441 264.5,-332.441 269,-342.441 269,-342.441"/>
</g>
<!-- Post -->
<g id="node5" class="node"><title>Post</title>
<ellipse fill="none" stroke="black" cx="381" cy="-166" rx="27" ry="18"/>
<text text-anchor="middle" x="381" y="-162.3" font-family="Times,serif" font-size="14.00">Post</text>
</g>
<!-- Post&#45;&gt;Post -->
<g id="edge12" class="edge"><title>Post&#45;&gt;Post</title>
<path fill="none" stroke="#6fe8b8" d="M416.052,-169.14C421.936,-168.703 426,-167.656 426,-166 426,-164.528 422.789,-163.537 417.943,-163.028"/>
<ellipse fill="none" stroke="#6fe8b8" cx="411.793" cy="-169.257" rx="4" ry="4"/>
<polygon fill="#6fe8b8" stroke="#6fe8b8" points="417.787,-163.022 407.97,-158.136 412.791,-162.827 407.795,-162.632 407.795,-162.632 407.795,-162.632 412.791,-162.827 407.619,-167.129 417.787,-163.022 417.787,-163.022"/>
<text text-anchor="middle" x="448.5" y="-162.3" font-family="Times,serif" font-size="14.00">children</text>
</g>
<!-- Post&#45;&gt;Post -->
<g id="edge14" class="edge"><title>Post&#45;&gt;Post</title>
<path fill="none" stroke="#97a934" d="M410.915,-178.519C438.175,-183.623 471,-179.45 471,-166 471,-152.55 438.175,-148.377 410.915,-153.481"/>
<ellipse fill="none" stroke="#97a934" cx="406.943" cy="-177.62" rx="4.00001" ry="4.00001"/>
<ellipse fill="#97a934" stroke="#97a934" cx="406.943" cy="-154.38" rx="4.00001" ry="4.00001"/>
<text text-anchor="middle" x="490.5" y="-162.3" font-family="Times,serif" font-size="14.00">answer</text>
</g>
<!-- Tag -->
<g id="node13" class="node"><title>Tag</title>
<ellipse fill="none" stroke="black" cx="402" cy="-92" rx="27" ry="18"/>
<text text-anchor="middle" x="402" y="-88.3" font-family="Times,serif" font-size="14.00">Tag</text>
</g>
<!-- Post&#45;&gt;Tag -->
<g id="edge16" class="edge"><title>Post&#45;&gt;Tag</title>
<path fill="none" stroke="#77ac26" d="M388.302,-139.965C390.201,-133.452 392.255,-126.41 394.181,-119.809"/>
<ellipse fill="none" stroke="#77ac26" cx="387.097" cy="-144.097" rx="4.00001" ry="4.00001"/>
<polygon fill="#77ac26" stroke="#77ac26" points="394.259,-119.541 401.379,-111.201 395.659,-114.741 397.059,-109.941 397.059,-109.941 397.059,-109.941 395.659,-114.741 392.739,-108.68 394.259,-119.541 394.259,-119.541"/>
</g>
<!-- CourseMembership -->
<g id="node6" class="node"><title>CourseMembership</title>
<ellipse fill="none" stroke="black" cx="196" cy="-92" rx="81.3646" ry="18"/>
<text text-anchor="middle" x="196" y="-88.3" font-family="Times,serif" font-size="14.00">CourseMembership</text>
</g>
<!-- Term -->
<g id="node7" class="node"><title>Term</title>
<ellipse fill="none" stroke="black" cx="355" cy="-314" rx="30.3206" ry="18"/>
<text text-anchor="middle" x="355" y="-310.3" font-family="Times,serif" font-size="14.00">Term</text>
</g>
<!-- Course -->
<g id="node12" class="node"><title>Course</title>
<ellipse fill="none" stroke="black" cx="308" cy="-240" rx="35.6194" ry="18"/>
<text text-anchor="middle" x="308" y="-236.3" font-family="Times,serif" font-size="14.00">Course</text>
</g>
<!-- Term&#45;&gt;Course -->
<g id="edge18" class="edge"><title>Term&#45;&gt;Course</title>
<path fill="none" stroke="#b2bfc9" d="M340.163,-290.272C335.066,-282.463 329.337,-273.686 324.141,-265.727"/>
<ellipse fill="none" stroke="#b2bfc9" cx="342.383" cy="-293.671" rx="4.00002" ry="4.00002"/>
<polygon fill="#b2bfc9" stroke="#b2bfc9" points="324.03,-265.557 322.332,-254.724 321.297,-261.37 318.564,-257.183 318.564,-257.183 318.564,-257.183 321.297,-261.37 314.796,-259.643 324.03,-265.557 324.03,-265.557"/>
</g>
<!-- Lecture&#45;&gt;Course -->
<g id="edge20" class="edge"><title>Lecture&#45;&gt;Course</title>
<path fill="none" stroke="#221a00" d="M281.943,-289.106C285.875,-281.846 290.21,-273.843 294.197,-266.483"/>
<ellipse fill="none" stroke="#221a00" cx="279.951" cy="-292.784" rx="4.00002" ry="4.00002"/>
<polygon fill="#221a00" stroke="#221a00" points="294.241,-266.402 302.96,-259.752 296.622,-262.005 299.004,-257.609 299.004,-257.609 299.004,-257.609 296.622,-262.005 295.047,-255.465 294.241,-266.402 294.241,-266.402"/>
</g>
<!-- Jexamwebservice -->
<g id="node10" class="node"><title>Jexamwebservice</title>
<ellipse fill="none" stroke="black" cx="397" cy="-557" rx="73.1654" ry="18"/>
<text text-anchor="middle" x="397" y="-553.3" font-family="Times,serif" font-size="14.00">Jexamwebservice</text>
</g>
<!-- Period -->
<g id="node11" class="node"><title>Period</title>
<ellipse fill="none" stroke="black" cx="326" cy="-18" rx="33.1991" ry="18"/>
<text text-anchor="middle" x="326" y="-14.3" font-family="Times,serif" font-size="14.00">Period</text>
</g>
<!-- Course&#45;&gt;Post -->
<g id="edge22" class="edge"><title>Course&#45;&gt;Post</title>
<path fill="none" stroke="#760130" d="M329.454,-217.84C338.877,-208.546 349.922,-197.653 359.365,-188.338"/>
<ellipse fill="none" stroke="#760130" cx="326.329" cy="-220.922" rx="4.00002" ry="4.00002"/>
<polygon fill="#760130" stroke="#760130" points="359.414,-188.29 369.694,-184.472 362.974,-184.779 366.534,-181.268 366.534,-181.268 366.534,-181.268 362.974,-184.779 363.374,-178.064 359.414,-188.29 359.414,-188.29"/>
</g>
<!-- Course&#45;&gt;CourseMembership -->
<g id="edge26" class="edge"><title>Course&#45;&gt;CourseMembership</title>
<path fill="none" stroke="#f20417" d="M278.144,-221.687C263.612,-212.074 246.78,-199.023 235,-184 219.986,-164.853 209.651,-139.056 203.412,-119.818"/>
<ellipse fill="none" stroke="#f20417" cx="281.695" cy="-223.964" rx="4.00002" ry="4.00002"/>
<polygon fill="#f20417" stroke="#f20417" points="203.381,-119.717 204.742,-108.836 201.911,-114.937 200.441,-110.158 200.441,-110.158 200.441,-110.158 201.911,-114.937 196.14,-111.481 203.381,-119.717 203.381,-119.717"/>
</g>
<!-- Event -->
<g id="node14" class="node"><title>Event</title>
<ellipse fill="none" stroke="black" cx="326" cy="-92" rx="31.2965" ry="18"/>
<text text-anchor="middle" x="326" y="-88.3" font-family="Times,serif" font-size="14.00">Event</text>
</g>
<!-- Course&#45;&gt;Event -->
<g id="edge24" class="edge"><title>Course&#45;&gt;Event</title>
<path fill="none" stroke="#c204e5" d="M311.107,-213.8C314.309,-187.827 319.287,-147.449 322.595,-120.622"/>
<ellipse fill="none" stroke="#c204e5" cx="310.59" cy="-217.996" rx="4.00001" ry="4.00001"/>
<polygon fill="#c204e5" stroke="#c204e5" points="322.634,-120.303 328.324,-110.929 323.246,-115.34 323.858,-110.378 323.858,-110.378 323.858,-110.378 323.246,-115.34 319.391,-109.827 322.634,-120.303 322.634,-120.303"/>
</g>
<!-- Course&#45;&gt;User -->
<g id="edge28" class="edge"><title>Course&#45;&gt;User</title>
<path fill="none" stroke="#1dce78" d="M294.786,-213.287C291.377,-206.652 287.705,-199.508 284.292,-192.865"/>
<polygon fill="#1dce78" stroke="#1dce78" points="294.848,-213.406 295.416,-224.358 297.133,-217.854 299.418,-222.301 299.418,-222.301 299.418,-222.301 297.133,-217.854 303.421,-220.244 294.848,-213.406 294.848,-213.406"/>
<polygon fill="#1dce78" stroke="#1dce78" points="284.106,-192.503 283.537,-181.552 281.82,-188.056 279.535,-183.609 279.535,-183.609 279.535,-183.609 281.82,-188.056 275.533,-185.665 284.106,-192.503 284.106,-192.503"/>
</g>
<!-- Event&#45;&gt;Period -->
<g id="edge30" class="edge"><title>Event&#45;&gt;Period</title>
<path fill="none" stroke="#e23264" d="M326,-65.7923C326,-59.5805 326,-52.8963 326,-46.5786"/>
<ellipse fill="none" stroke="#e23264" cx="326" cy="-69.937" rx="4" ry="4"/>
<polygon fill="#e23264" stroke="#e23264" points="326,-46.4407 330.5,-36.4406 326,-41.4407 326,-36.4407 326,-36.4407 326,-36.4407 326,-41.4407 321.5,-36.4407 326,-46.4407 326,-46.4407"/>
</g>
<!-- User&#45;&gt;CourseMembership -->
<g id="edge34" class="edge"><title>User&#45;&gt;CourseMembership</title>
<path fill="none" stroke="#8ec7ac" d="M250.395,-145.219C241.239,-136.429 230.383,-126.008 220.788,-116.796"/>
<ellipse fill="none" stroke="#8ec7ac" cx="253.297" cy="-148.005" rx="4.00002" ry="4.00002"/>
<polygon fill="#8ec7ac" stroke="#8ec7ac" points="220.633,-116.647 216.535,-106.476 217.026,-113.185 213.419,-109.722 213.419,-109.722 213.419,-109.722 217.026,-113.185 210.302,-112.968 220.633,-116.647 220.633,-116.647"/>
</g>
<!-- User&#45;&gt;FacultyMembership -->
<g id="edge36" class="edge"><title>User&#45;&gt;FacultyMembership</title>
<path fill="none" stroke="#9e95c3" d="M303.844,-156.306C348.083,-144.596 427.618,-123.542 482.757,-108.947"/>
<ellipse fill="none" stroke="#9e95c3" cx="299.968" cy="-157.332" rx="4.00001" ry="4.00001"/>
<polygon fill="#9e95c3" stroke="#9e95c3" points="483.087,-108.859 493.906,-110.65 487.921,-107.58 492.754,-106.3 492.754,-106.3 492.754,-106.3 487.921,-107.58 491.603,-101.95 483.087,-108.859 483.087,-108.859"/>
</g>
<!-- User&#45;&gt;Event -->
<g id="edge32" class="edge"><title>User&#45;&gt;Event</title>
<path fill="none" stroke="#c91c2b" d="M279.607,-140.926C281.704,-136.439 284.172,-131.93 287,-128 290.766,-122.766 295.436,-117.748 300.221,-113.227"/>
<ellipse fill="none" stroke="#c91c2b" cx="278.005" cy="-144.673" rx="4.00002" ry="4.00002"/>
<polygon fill="#c91c2b" stroke="#c91c2b" points="300.241,-113.209 310.708,-109.938 303.981,-109.89 307.721,-106.572 307.721,-106.572 307.721,-106.572 303.981,-109.89 304.735,-103.206 300.241,-113.209 300.241,-113.209"/>
</g>
<!-- Rating -->
<g id="node16" class="node"><title>Rating</title>
<ellipse fill="none" stroke="black" cx="523" cy="-557" rx="34.1708" ry="18"/>
<text text-anchor="middle" x="523" y="-553.3" font-family="Times,serif" font-size="14.00">Rating</text>
</g>
</g>
</svg>
