<?xml version="1.0" standalone="no"?>
<!DOCTYPE svg PUBLIC "-//W3C//DTD SVG 1.1//EN" "http://www.w3.org/Graphics/SVG/1.1/DTD/svg11.dtd" >
<svg xmlns="http://www.w3.org/2000/svg">
<metadata>
This is a custom SVG webfont generated by Font Squirrel.
Copyright   : Typeface  your company 2009 All Rights Reserved
Designer    : Lauren Thompson
</metadata>
<defs>
<font id="webfont0xb7ndAM" horiz-adv-x="1290" >
<font-face units-per-em="2048" ascent="1638" descent="-410" />
<missing-glyph horiz-adv-x="706" />
<glyph unicode=" "  horiz-adv-x="706" />
<glyph unicode="&#x09;" horiz-adv-x="706" />
<glyph unicode="&#xa0;" horiz-adv-x="706" />
<glyph unicode="!" horiz-adv-x="428" d="M125 76q0 39 27 63q31 27 63.5 27t63.5 -27q27 -25 26.5 -63.5t-26.5 -63.5q-31 -27 -64 -26.5t-63 26.5q-27 25 -27 64zM168 276v1323h90v-1323h-90z" />
<glyph unicode="&#x22;" horiz-adv-x="573" d="M125 997v600h90v-600h-90zM360 997v600h91v-600h-91z" />
<glyph unicode="#" horiz-adv-x="1652" d="M125 575l22 91h447l55 229h-444l22 90h447l110 445h90l-110 -445h229l111 445h90l-111 -445h445l-23 -90h-444l-57 -229h444l-23 -91h-444l-113 -446h-90l113 446h-232l-110 -446h-90l110 446h-444zM682 666h231l58 229h-232z" />
<glyph unicode="$" horiz-adv-x="1009" d="M100 444l82 31q12 -119 94 -196q80 -80 191 -93v705q-109 47 -170 113q-86 86 -86 206q0 119 86 205q68 72 170 84v164h88v-166q86 -14 156 -82q47 -47 67 -106l-78 -31q-18 47 -51 80q-39 39 -94 51v-463q137 -53 238 -151q119 -119 118 -287q0 -170 -118 -289 q-100 -100 -238 -117v-141h-88v139q-145 12 -252 119q-92 92 -115 225zM297 1210q0 -86 59 -145q43 -43 111 -80v428q-59 -8 -109 -57q-61 -62 -61 -146zM555 188q98 14 176 93q94 94 94 227t-94 227q-76 76 -176 121v-668z" />
<glyph unicode="%" horiz-adv-x="1220" d="M80 983q0 96 67.5 163.5t164 67.5t164 -67.5t67.5 -163.5q0 -94 -67.5 -161.5t-164 -67.5t-164 67.5t-67.5 161.5zM115 53l917 1313l76 -51l-920 -1313zM168 983q0 -59 41 -100q43 -43 102 -43q57 0 100.5 43t43.5 100q0 59 -43 102t-101 43q-59 0 -102 -43 q-41 -41 -41 -102zM680 385q0 94 67.5 161.5t164 67.5t164 -67.5t67.5 -161.5q0 -96 -67.5 -163.5t-164 -67.5t-164 67.5t-67.5 163.5zM768 385q0 -61 41 -102q43 -43 102 -43q57 0 100.5 43t43.5 102q0 57 -43 100t-101 43q-59 0 -102 -43q-41 -41 -41 -100z" />
<glyph unicode="&#x26;" horiz-adv-x="1302" d="M76 457q0 197 137 342q94 100 244 149q-68 29 -148 113q-76 78 -76 221q0 139 99 238q100 100 239 100q135 0 240 -100q55 -53 78 -119l-82 -33q-18 49 -59 90q-78 74 -177 74q-102 0 -176 -74q-72 -72 -71 -176q0 -106 69 -178q76 -80 131 -98q70 -25 150 -25v-84h-72 q-217 -39 -330 -162q-109 -117 -108.5 -278.5t113 -274t272.5 -112.5t272 112q68 68 94 150q-4 2 -12 5t-12 5q-49 29 -121 102q-55 47 -68 56q-23 12 -45 12q-16 0 -24 -2q-33 -8 -53 -43q-14 -25 -15 -43q0 -10 4 -27q8 -35 39 -51q20 -10 54 -10q12 0 40 4l-10 -84 q-25 -6 -49 -6q-43 0 -78 20q-61 34 -80 105q-6 25 -6 49q0 43 25 86q37 63 106 82q25 6 49 6q47 0 84 -23q39 -20 105 -90q58 -52 86 -67q27 -16 61 -17q23 0 35 5q52 15 80 61q16 27 16 63q0 23 -4 35q-14 51 -59 78q-29 16 -64 16q-31 0 -55 -8v88q25 8 55 9 q51 0 105 -29q78 -43 102 -131q8 -27 8 -58q0 -53 -28 -104q-43 -78 -133 -102q-33 -8 -49 -9q-35 -111 -119 -194q-137 -139 -336 -139q-197 0 -336 139q-137 137 -137 336z" />
<glyph unicode="'" horiz-adv-x="339" d="M125 997v600h90v-600h-90z" />
<glyph unicode="(" horiz-adv-x="702" d="M100 801q0 436 203 692q131 166 299 223v-88q-137 -63 -244 -198q-180 -225 -180 -629q0 -406 180 -631q106 -137 244 -203v-84q-168 57 -299 223q-203 256 -203 695z" />
<glyph unicode=")" horiz-adv-x="702" d="M100 -33q137 66 244 203q180 225 180 631q0 403 -180 629q-106 135 -244 198v88q168 -57 299 -223q203 -256 203 -692q0 -439 -203 -695q-131 -166 -299 -223v84z" />
<glyph unicode="*" horiz-adv-x="798" d="M127 1161l195 135l-195 136l53 73l174 -123v215h90v-213l174 121l54 -73l-195 -136l195 -135l-54 -74l-174 123v-213h-90v213l-174 -123z" />
<glyph unicode="+" horiz-adv-x="1048" d="M125 547v90h354v354h90v-354h357v-90h-357v-354h-90v354h-354z" />
<glyph unicode="," horiz-adv-x="378" d="M10 -219l103 385h166l-185 -385h-84z" />
<glyph unicode="-" horiz-adv-x="839" d="M125 547v90h590v-90h-590z" />
<glyph unicode="." horiz-adv-x="378" d="M100 76q0 39 27 63q31 27 63.5 27t63.5 -27q27 -25 27 -63.5t-27 -63.5q-31 -27 -63.5 -26.5t-63.5 26.5q-27 25 -27 64z" />
<glyph unicode="/" horiz-adv-x="724" d="M-49 0l723 1599h102l-725 -1599h-100z" />
<glyph unicode="0" horiz-adv-x="1249" d="M76 520v531q0 227 162 389q160 160 387 159q229 0 389 -159.5t160 -388.5v-531q0 -227 -160 -387q-162 -162 -389 -162q-225 0 -387 162t-162 387zM170 520q0 -186 133 -319t321.5 -133t321.5 133t133 319v531q0 188 -133 321q-131 131 -321.5 131t-321.5 -131 q-133 -133 -133 -321v-531z" />
<glyph unicode="1" horiz-adv-x="1249" d="M532 1442l123 157h62v-1599h-90v1442h-95z" />
<glyph unicode="2" horiz-adv-x="1249" d="M152 1219q20 150 133 262q141 141 338 141q201 0 338 -139q139 -143 139 -338q0 -199 -137 -344q-86 -94 -222 -197l-284 -215q-160 -119 -199 -299h842v-90h-944q47 311 211 434l292 219q145 109 238 213q109 121 109 279t-113 270.5t-270 112.5q-154 0 -271 -113 q-94 -94 -110 -229z" />
<glyph unicode="3" horiz-adv-x="1249" d="M152 381l90 33q16 -135 110 -230q114 -111 271 -110q160 0 270 110q113 113 113 273q0 156 -109 276q-106 119 -328 160l-75 2v90q86 0 153 25q57 20 129 96q70 72 70 176q0 100 -74 174q-72 72 -174 72q-96 0 -172 -72q-43 -43 -59 -90l-86 33q23 72 75 123 q100 100 242 100q145 0 244 -100q98 -101 98 -240q0 -141 -76 -223q-74 -80 -141 -109q145 -49 240 -149q137 -145 137 -344q0 -195 -139 -338q-137 -141 -338 -142q-197 0 -338 142q-113 110 -133 262z" />
<glyph unicode="4" horiz-adv-x="1249" d="M172 469l662 1130h90v-1042h151v-88h-151v-469h-90v469h-662zM328 557h506v850z" />
<glyph unicode="5" horiz-adv-x="1249" d="M117 211l63 70q86 -125 246 -175q74 -23 143 -22q111 0 217 55q172 92 232 281q23 74 22 141q0 113 -57 219q-94 176 -281 240q-78 27 -178 27q-127 0 -280 -50l-74 64l184 508v30h500v-90h-424l-147 -405q16 6 110 29q66 12 125 12q106 0 211 -35q223 -76 336 -285 q70 -133 70 -264q0 -78 -27 -170q-68 -223 -277 -336q-123 -66 -260 -65q-86 0 -172 26q-180 56 -282 195z" />
<glyph unicode="6" horiz-adv-x="1249" d="M74 504q8 352 170 577q160 225 395 488l27 30h125l-43 -49q-252 -281 -416 -514q-39 -53 -60 -96q150 131 357 131q225 0 387 -161.5t162 -389.5q0 -225 -162 -387t-387 -162q-227 0 -389 162q-154 154 -160 371h-6zM174 520q0 -186 133 -319t322 -133q186 0 319 133 t133 319q0 188 -133 321.5t-319 133.5q-188 0 -321.5 -133.5t-133.5 -321.5z" />
<glyph unicode="7" horiz-adv-x="1249" d="M154 0q8 352 170 578q160 225 395 487q233 262 274 444h-839v90h942q-6 -256 -268.5 -552.5t-415.5 -514.5q-156 -219 -164 -532h-94z" />
<glyph unicode="8" horiz-adv-x="1249" d="M106 457q0 199 138 344q94 100 239 149q-68 29 -141 109q-78 84 -78 223q0 135 101 240q98 100 241 100h37q143 0 242 -100q100 -104 100 -240q0 -141 -76 -223q-74 -80 -141 -109q143 -49 238 -149q137 -145 137 -344q0 -195 -139 -338q-139 -141 -338 -142q-27 0 -41 3 q-14 -2 -41 -3q-199 0 -338 142q-140 143 -140 338zM201 457q0 -160 112 -273q111 -111 271 -110q27 0 41 2h2q14 -2 39 -2q162 0 272.5 110.5t110.5 272.5q0 156 -109 276q-104 115 -315 158q-211 -43 -316 -158q-108 -120 -108 -276zM360 1282q0 -104 70 -176 q72 -76 129 -96q33 -12 66 -19q33 6 65 19q57 20 129 96q70 72 70 176q0 102 -72 174t-174 72h-16h-2h-19q-102 0 -174 -72t-72 -174z" />
<glyph unicode="9" horiz-adv-x="1249" d="M74 1050.5q0 229.5 159.5 389t389.5 159.5q227 0 387 -159q156 -156 161 -373h7q-8 -350 -170 -575q-160 -223 -398 -490l-26 -31h-123q6 8 20.5 25.5t20.5 26.5q268 299 418 512q37 49 59 98q-150 -131 -356 -131q-229 0 -389 159.5t-160 389zM168 1051q0 -188 133 -322 q131 -131 322 -131q188 0 319 131q133 133 133 321.5t-133 321.5q-131 131 -319 131q-190 0 -322 -131q-133 -133 -133 -321z" />
<glyph unicode=":" horiz-adv-x="428" d="M125 76q0 39 27 63q31 27 63.5 27t63.5 -27q27 -25 26.5 -63.5t-26.5 -63.5q-31 -27 -64 -26.5t-63 26.5q-27 25 -27 64zM125 692q0 39 27 64q31 27 63.5 26.5t63.5 -26.5q27 -25 26.5 -64t-26.5 -63q-31 -27 -64 -27t-63 27q-27 24 -27 63z" />
<glyph unicode=";" horiz-adv-x="475" d="M84 -219l102 385h166l-184 -385h-84zM125 692q0 39 27 64q31 27 63.5 26.5t63.5 -26.5q27 -25 26.5 -64t-26.5 -63q-31 -27 -64 -27t-63 27q-27 24 -27 63z" />
<glyph unicode="&#x37e;" horiz-adv-x="475" d="M84 -219l102 385h166l-184 -385h-84zM125 692q0 39 27 64q31 27 63.5 26.5t63.5 -26.5q27 -25 26.5 -64t-26.5 -63q-31 -27 -64 -27t-63 27q-27 24 -27 63z" />
<glyph unicode="&#x3c;" horiz-adv-x="1347" d="M100 563l1149 418v-96l-887 -322l887 -321v-97z" />
<glyph unicode="=" horiz-adv-x="1048" d="M125 387v90h801v-90h-801zM125 707v90h801v-90h-801z" />
<glyph unicode="&#x3e;" horiz-adv-x="1347" d="M100 145v97l885 321l-885 322v96l1149 -418z" />
<glyph unicode="?" horiz-adv-x="954" d="M127 1210v9q0 59 33 129q61 127 192 172q55 20 115 20q72 0 145 -35q127 -61 172 -190q20 -55 21 -115q0 -72 -35 -145q-61 -127 -203 -238q-119 -106 -178 -227q-39 -80 -39 -166q0 -61 23 -129l-82 -31q-29 82 -29 160q0 100 49 203q78 164 242 288q95 92 135 179 q27 57 27 108q0 45 -15 82q-33 94 -129 143q-51 25 -106 25q-41 0 -82 -14q-96 -33 -143 -127q-25 -52 -25 -105zM236 76q0 39 26 63q31 27 63.5 27t63.5 -27q27 -25 27 -63.5t-27 -63.5q-31 -27 -63.5 -26.5t-63.5 26.5q-26 25 -26 64z" />
<glyph unicode="@" horiz-adv-x="1624" d="M125 547q0 285 202.5 487.5t485.5 202.5q289 0 487 -203q201 -205 201 -487q0 -129 -92 -273q-92 -145 -205 -145q-16 0 -24 2q-88 18 -95 100v82q-121 -127 -272 -127q-150 0 -256 106.5t-106 256.5q0 152 106.5 258t255.5 106q152 0 272 -127v113h82v-647 q18 -43 56 -43q43 0 120 110q78 113 78 228q0 252 -178 430t-430 178q-250 0 -428 -178q-176 -176 -176 -430q0 -252 176 -428q178 -178 428 -178q172 0 252 49l57 -60q-119 -70 -309 -69q-285 0 -485 200q-203 203 -203 486zM537 549q0 -117 81.5 -199t196.5 -82 q117 0 199 82q53 53 73 133v131q-20 80 -73 134q-82 82 -199 81q-115 0 -196.5 -81.5t-81.5 -198.5z" />
<glyph unicode="A" d="M49 0l596 1636l596 -1636h-94l-223 612h-555l-224 -612h-96zM401 702h490l-246 672z" />
<glyph unicode="B" horiz-adv-x="1064" d="M150 0v1599h270v3h14q123 0 211 -89q86 -86 86 -210q0 -123 -127 -232q111 -23 211 -131q162 -162 162 -389q0 -225 -162 -393q-152 -156 -354 -158h-311zM240 90h221v-2q168 12 287 137q133 139 133 326q0 188 -133.5 321.5t-321.5 133.5h-186v-916zM240 1102h217 q78 6 129 55q59 53 59 145.5t-59.5 149.5t-151.5 57h-194v-407z" />
<glyph unicode="C" horiz-adv-x="1593" d="M125 801q0 338 240 577q242 242 579 242q315 0 551 -213l-68 -64q-207 184 -483 185q-301 0 -514 -213t-213 -514q0 -303 213 -516t514 -213q276 0 483 184l68 -61q-236 -213 -551 -213q-340 0 -579.5 239.5t-239.5 579.5z" />
<glyph unicode="D" horiz-adv-x="1198" d="M150 0v1599h90v-2h8q393 0 610 -217q242 -242 242 -579q0 -340 -242 -582q-217 -217 -610 -217h-8v-2h-90zM240 92h8q354 0 547 193q213 213 213 516q0 297 -213 514q-190 190 -547 190h-8v-1413z" />
<glyph unicode="E" horiz-adv-x="1073" d="M150 0v1599h800v-90h-710v-663h710v-90h-710v-666h710v-90h-800z" />
<glyph unicode="F" horiz-adv-x="974" d="M150 0v1599h700v-90h-610v-663h610v-90h-610v-756h-90z" />
<glyph unicode="G" horiz-adv-x="1619" d="M125 801q0 338 240 577q242 242 579 242q315 0 551 -213l-68 -64q-207 184 -483 185q-301 0 -514 -213t-213 -514q0 -303 213 -516t514 -213q258 0 455 159v488h90v-520q-225 -217 -545 -217q-340 0 -579.5 239.5t-239.5 579.5z" />
<glyph unicode="H" horiz-adv-x="1148" d="M150 0v1599h90v-792h669v792h90v-1599h-90v717h-669v-717h-90z" />
<glyph unicode="I" horiz-adv-x="428" d="M170 0v1599h90v-1599h-90z" />
<glyph unicode="J" horiz-adv-x="856" d="M125 258l88 25q0 -86 61 -148q59 -59 142 -59q80 0 143 59q53 53 53 137v17v1310h90v-1325q0 -123 -79 -202q-86 -86 -207 -86q-119 0 -205 86t-86 186z" />
<glyph unicode="K" horiz-adv-x="1095" d="M150 0v1599h90v-679l512 679h114l-479 -643l621 -956h-111l-569 885l-88 -111v-774h-90z" />
<glyph unicode="L" horiz-adv-x="948" d="M150 0v1599h90v-1509h620v-90h-710z" />
<glyph unicode="M" horiz-adv-x="1705" d="M150 1599h104l600 -1040l600 1040h102l-4 -6v-1593h-90v1438l-608 -1055l-610 1055v-1438h-90v1593z" />
<glyph unicode="N" horiz-adv-x="1310" d="M150 0v1599h100l821 -1423v1423h90v-1599h-90l-831 1438v-1438h-90z" />
<glyph unicode="O" horiz-adv-x="1890" d="M125 803q0 340 239.5 579.5t581.5 239.5q340 0 580 -240q242 -242 241 -579q0 -340 -241 -582q-240 -240 -580 -239q-342 0 -581.5 239.5t-239.5 581.5zM217 803q0 -299 213 -516q213 -215 516 -215t516 215q213 217 213 516q0 301 -213 514q-215 215 -516 215t-516 -215 q-213 -213 -213 -514z" />
<glyph unicode="P" horiz-adv-x="1087" d="M150 0v1599h419q184 -25 312 -151q154 -154 153 -371q0 -215 -153.5 -368.5t-368.5 -153.5h-272v-555h-90zM240 645h272q178 0 305 127q125 125 125 305t-125 305q-127 127 -305 127h-272v-864z" />
<glyph unicode="Q" horiz-adv-x="1890" d="M125 803q0 340 239.5 579.5t581.5 239.5q340 0 580 -240q242 -242 241 -579q0 -342 -239 -582q-172 -172 -400 -221q4 -2 11 -2q74 -22 196 -98q83 -46 117 -56q23 -6 41 -6q39 0 72 19q53 31 67 88q6 14 6 32h93q-4 -37 -11 -55q-27 -92 -112 -141q-59 -33 -113 -33 q-29 0 -65 10q-57 14 -170 86q-100 55 -146 68q-18 6 -57 6q-49 0 -96 -24q-76 -43 -97 -123q-4 -16 -4 -25h-92q2 16 10 49q33 115 140 176q4 2 10 5.5t10 5.5q-335 3 -571 239q-242 242 -242 582zM217 803q0 -299 213 -516q213 -215 516 -215t516 215q213 217 213 516 q0 301 -213 514q-215 215 -516 215t-516 -215q-213 -213 -213 -514z" />
<glyph unicode="R" horiz-adv-x="1087" d="M150 0v1599h419q184 -25 312 -151q154 -154 153 -371q0 -215 -153 -368q-106 -106 -242 -140l369 -569h-111l-358 555h-27h-272v-555h-90zM240 645h272q178 0 305 127q125 125 125 305t-125 305q-127 127 -305 127h-272v-864z" />
<glyph unicode="S" horiz-adv-x="1040" d="M49 379l86 31q16 -133 111 -228q113 -113 272.5 -112.5t272 113t112.5 274.5q0 158 -112 270q-104 104 -242 160q-174 59 -270 155q-100 100 -101 240q0 137 100.5 237.5t239.5 100.5q135 0 240 -100q53 -49 76 -119l-80 -33q-18 49 -60 90q-78 74 -176 74 q-102 0 -176 -74t-74 -176t74 -176q68 -68 188 -123q193 -61 324 -192q137 -137 137 -334q0 -199 -137 -336q-139 -139 -336 -139q-199 0 -336 139q-113 113 -133 258z" />
<glyph unicode="T" horiz-adv-x="999" d="M49 1509v90h901v-90h-405v-1509h-90v1509h-406z" />
<glyph unicode="U" horiz-adv-x="1343" d="M150 508v1091h92v-1091q0 -180 125 -305t307 -125q180 0 305 125t125 305v1091h90v-1148q-25 -184 -152 -312q-154 -154 -368 -153q-217 0 -370.5 153.5t-153.5 368.5z" />
<glyph unicode="V" d="M49 1599h96l500 -1374l500 1374h96l-596 -1636z" />
<glyph unicode="W" horiz-adv-x="1671" d="M125 371v1228h90v-1220q0 -125 90 -215q88 -88 215 -88q121 0 213 88q39 39 58 76v1359h90v-1359q18 -37 57 -76q92 -88 213 -88q127 0 215 88q90 90 90 215v1220h90v-1228q-2 -158 -114 -269q-117 -117 -281 -116q-160 0 -279 114q-27 27 -36 41q-10 -14 -37 -41 q-119 -115 -279 -114q-164 0 -278 116q-113 111 -117 269z" />
<glyph unicode="X" horiz-adv-x="1216" d="M49 0l508 879l-416 720h103l364 -630l367 630h102l-418 -720l508 -879h-102l-457 791l-456 -791h-103z" />
<glyph unicode="Y" d="M49 1599h105l491 -851l494 851h102l-551 -952v-647h-90v647z" />
<glyph unicode="Z" horiz-adv-x="1325" d="M150 0l872 1509h-872v90h1028l-875 -1509h875v-90h-1028z" />
<glyph unicode="[" horiz-adv-x="559" d="M125 -375v1974h309v-90h-219v-1794h219v-90h-309z" />
<glyph unicode="\" horiz-adv-x="724" d="M-49 1599h102l723 -1599h-100z" />
<glyph unicode="]" horiz-adv-x="559" d="M125 -285h219v1794h-219v90h309v-1974h-309v90z" />
<glyph unicode="^" horiz-adv-x="919" d="M100 1067l310 532h102l309 -532h-104l-256 442l-256 -442h-105z" />
<glyph unicode="_" horiz-adv-x="1048" d="M25 -31h999v-90h-999v90z" />
<glyph unicode="`" horiz-adv-x="628" d="M150 1286h165l164 -186h-84z" />
<glyph unicode="a" horiz-adv-x="1359" d="M125 520q0 227 162 389t387 162q227 0 389 -162q35 -35 57 -65v137h90v-981h-90v201q-27 -37 -57 -68q-162 -162 -389 -162q-225 0 -387 162t-162 387zM219 520q0 -186 133 -319t321.5 -133t321.5 133q100 100 125 231v178q-25 131 -125 232q-133 133 -321.5 133 t-321.5 -133.5t-133 -321.5z" />
<glyph unicode="b" horiz-adv-x="1357" d="M150 0v1599h90v-755q23 31 57 65q162 162 387 162q227 0 389 -161.5t162 -389.5q0 -225 -162 -387t-389 -162q-225 0 -387 162q-35 35 -57 66v-199h-90zM240 426q25 -125 125 -225q133 -133 319 -133q188 0 321.5 133t133.5 319q0 188 -133.5 321.5t-321.5 133.5 q-186 0 -319 -133q-100 -100 -125 -228v-188z" />
<glyph unicode="c" horiz-adv-x="1175" d="M90 522q0 225 162 387t387 162q227 0 389 -162q37 -37 59 -67l-96 -35q-4 4 -9 11l-10 13.5t-11 12.5q-131 131 -322 131q-186 0 -319.5 -133t-133.5 -320q0 -188 133.5 -321t319.5 -133q188 0 322 133q10 10 30 35l96 -33q-20 -31 -59 -70q-162 -162 -389 -162 q-225 0 -387 162t-162 389z" />
<glyph unicode="d" horiz-adv-x="1359" d="M125 520q0 227 162 389t387 162q227 0 389 -162q35 -35 57 -65v755h90v-1599h-90v201q-27 -37 -57 -68q-162 -162 -389 -162q-225 0 -387 162t-162 387zM219 520q0 -186 133 -319t321.5 -133t321.5 133q100 100 125 231v178q-25 131 -125 232q-133 133 -321.5 133 t-321.5 -133.5t-133 -321.5z" />
<glyph unicode="e" horiz-adv-x="1175" d="M90 522q0 225 162 387t387 162q195 0 342 -117q16 -14 47 -45l16 -16l-67 -70l-639 -639q126 -117 301 -116q188 0 322 133q10 10 30 35l96 -33q-20 -31 -59 -70q-162 -162 -389 -162q-225 0 -387 162t-162 389zM186 522q0 -154 90 -272l635 635q-119 90 -272 90 q-186 0 -319.5 -133.5t-133.5 -319.5z" />
<glyph unicode="f" horiz-adv-x="522" d="M90 893v88h100v266q6 115 84 193q82 76 191 76q53 0 117 -23l-27 -80q-43 18 -82 19q-70 0 -133 -58q-57 -55 -59 -133v-260h198v-88h-198v-893h-91v893h-100z" />
<glyph unicode="g" horiz-adv-x="1363" d="M125 520q0 227 162 389q160 160 387 160q229 0 389 -160q35 -35 57 -65v137h90v-762q0 -221 -157 -379q-160 -160 -387 -159q-229 0 -390 159q-39 39 -59 70l94 35q10 -12 33 -35q133 -133 322 -133q186 0 319 133q119 119 131 285q-16 -20 -53 -62q-162 -162 -389 -162 q-225 0 -387 162t-162 387zM219 520q0 -186 133 -319t321.5 -133t321.5 133q94 94 123 225v188q-25 129 -123 228q-133 133 -321.5 133t-321.5 -133.5t-133 -321.5z" />
<glyph unicode="h" horiz-adv-x="1058" d="M150 0v1599h90v-667q111 109 274 108q174 0 283 -108q111 -111 112 -275v-657h-90v649q0 123 -90 213q-88 88 -215 88q-125 0 -215 -86q-35 -35 -59 -84v-780h-90z" />
<glyph unicode="i" horiz-adv-x="428" d="M125 1241q0 39 27 64q29 25 63.5 24.5t63.5 -24.5q27 -25 26.5 -64t-26.5 -63q-31 -27 -64 -27t-63 27q-27 24 -27 63zM170 0v981h90v-981h-90z" />
<glyph unicode="j" horiz-adv-x="454" d="M49 -137q121 16 121 135v983h90v-981q0 -209 -211 -227v90zM125 1241q0 39 27 64q29 25 63.5 24.5t63.5 -24.5q27 -25 26.5 -64t-26.5 -63q-31 -27 -64 -27t-63 27q-27 24 -27 63z" />
<glyph unicode="k" horiz-adv-x="821" d="M150 0v1401h90v-756l272 336h117l-242 -299l385 -682h-110l-334 610l-88 -108v-502h-90z" />
<glyph unicode="l" horiz-adv-x="389" d="M150 0v1599h90v-1599h-90z" />
<glyph unicode="m" horiz-adv-x="1374" d="M150 0v981h90v-23q86 82 200 82q121 0 207 -86q18 -18 39 -49q25 33 41 49q86 86 207 86t207 -86q82 -84 84 -196v-758h-90v758h2q-2 78 -60 133q-63 59 -143 59q-84 0 -143.5 -59.5t-59.5 -147.5v-743h-90v758h2q-4 78 -59 133q-63 59 -144 59q-82 0 -141 -59 q-53 -53 -59 -125v-766h-90z" />
<glyph unicode="n" horiz-adv-x="1069" d="M150 0v981h90v-61q121 121 286 120q174 0 283 -108q111 -111 113 -275v-657h-91v649q0 123 -90 213q-88 88 -215 88q-125 0 -215 -86q-51 -51 -71 -100v-764h-90z" />
<glyph unicode="o" horiz-adv-x="1277" d="M90 520q0 227 162 389t387 162q227 0 389 -162q160 -160 160 -389q0 -227 -160 -387q-162 -162 -389 -162q-225 0 -387 162t-162 387zM184 520q0 -186 133.5 -319t321.5 -133t321.5 133t133.5 319q0 188 -133.5 321.5t-321.5 133.5t-321.5 -133.5t-133.5 -321.5z" />
<glyph unicode="p" horiz-adv-x="1333" d="M150 -375v1356h90v-137q23 31 57 65q160 160 387 160q229 0 389 -160q162 -162 162 -389q0 -225 -162 -387t-389 -162q-225 0 -387 162q-35 35 -57 66v-574h-90zM240 426q25 -125 125 -225q133 -133 319 -133q188 0 321.5 133t133.5 319q0 188 -133.5 321.5t-321.5 133.5 q-186 0 -319 -133q-100 -100 -125 -228v-188z" />
<glyph unicode="q" horiz-adv-x="1333" d="M100 520q0 229 160 389t389.5 160t388.5 -160q35 -35 58 -65v137h90v-1356h-90v576q-27 -37 -58 -68q-162 -162 -389 -162t-389 162q-160 160 -160 387zM195 520q0 -186 133 -319t321.5 -133t321.5 133q100 100 125 231v178q-25 131 -125 232q-133 133 -321.5 133 t-321.5 -133.5t-133 -321.5z" />
<glyph unicode="r" horiz-adv-x="598" d="M150 0v981h90v-178q27 41 65 78q119 119 244 125v-99q-82 -2 -176 -96q-127 -125 -133 -303v-508h-90z" />
<glyph unicode="s" horiz-adv-x="800" d="M115 250l90 22q0 -88 59.5 -147t141.5 -59q84 0 143 59t59 143t-59 144q-37 37 -129 94q-121 66 -160 104q-68 68 -67 166q0 96 67 168q68 70 166 70q100 0 164 -64q61 -66 61 -143v-4l-78 -33q-8 78 -47 115q-39 39 -100 39q-59 0 -102 -43t-43 -105q0 -59 43 -102 q18 -18 106 -76q127 -70 182 -125q84 -84 84 -205q0 -123 -84 -207q-86 -86 -206 -86q-119 0 -205 86.5t-86 188.5z" />
<glyph unicode="t" horiz-adv-x="669" d="M90 893v88h201v420h90v-420h199v-88h-199v-893h-90v893h-201z" />
<glyph unicode="u" horiz-adv-x="1097" d="M150 371v612h90v-604q0 -125 92 -213q90 -90 223 -90q125 0 213 88q90 90 90 215v604h90v-612q-4 -170 -110 -277q-109 -109 -283 -108q-184 0 -292.5 108.5t-112.5 276.5z" />
<glyph unicode="v" horiz-adv-x="1062" d="M49 981h105l378 -817l377 817h105l-482 -1008z" />
<glyph unicode="w" horiz-adv-x="1374" d="M150 268v713h90v-713q2 -76 59 -133q59 -59 141 -59q80 0 144 59q51 51 57 125v721h90v-698q0 -88 59.5 -147.5t143.5 -59.5q80 0 143 59q57 57 60 133h-2v713h90v-713q-4 -117 -84 -196q-86 -86 -207 -86t-207 86q-8 8 -39 49q-29 -39 -41 -49q-86 -86 -207 -86 q-119 0 -204 86q-84 83 -86 196z" />
<glyph unicode="x" horiz-adv-x="870" d="M76 0l309 535l2 4l-2 6l-254 436h105l200 -346l201 346h104l-254 -436l-2 -6l2 -4l310 -535h-105l-256 442l-256 -442h-104z" />
<glyph unicode="y" horiz-adv-x="1003" d="M76 981h100l328 -702l325 702h101l-426 -895v2l-223 -463h-88l266 555z" />
<glyph unicode="z" horiz-adv-x="999" d="M150 0l53 90l454 789h-507v90h661l-51 -90l-457 -789h547v-90h-700z" />
<glyph unicode="{" horiz-adv-x="864" d="M125 571v82q12 -4 20 -4q43 0 123 45q115 66 152 195q18 70 18 151q0 45 -6 90q-14 66 -14 136q0 66 16 127q31 113 133 170q65 37 135 36q27 0 39 -2v-75q-25 4 -36 4q-49 0 -101 -29q-76 -43 -96 -125q-16 -59 -16 -125q0 -18 4 -63q16 -82 16 -150q0 -82 -23 -166 q-43 -158 -184 -237q-6 -4 -17.5 -10.5t-17.5 -8.5l35 -16q141 -80 184 -240q23 -84 23 -166q0 -66 -16 -147q-4 -45 -4 -66q0 -66 16 -124q20 -82 96 -125q51 -27 105 -27h32v-74q-12 -2 -39 -2q-71 0 -135 37q-102 57 -133 172q-16 61 -16 125q0 70 14 135q6 45 6 90 q0 82 -18 152q-37 129 -152 194q-80 45 -123 45q-8 0 -20 -4z" />
<glyph unicode="|" horiz-adv-x="389" d="M150 -375v1974h90v-1974h-90z" />
<glyph unicode="}" horiz-adv-x="864" d="M125 -299h33q53 0 104 27q76 43 96 125q16 59 17 124q0 20 -4 66q-16 82 -17 147q0 82 23 166q43 160 184 240q16 8 35 16q-6 2 -17.5 8.5t-17.5 10.5q-141 80 -184 237q-23 84 -23 166q0 68 17 150q4 45 4 63q0 66 -17 125q-20 82 -96 125q-51 29 -100 29q-12 0 -37 -4 v75q12 2 39 2q71 0 135 -36q102 -57 133 -170q16 -61 17 -127q0 -70 -15 -136q-6 -45 -6 -90q0 -82 18 -151q37 -129 152 -195q80 -45 123 -45q8 0 20 4v-82q-12 4 -20 4q-43 0 -123 -45q-115 -66 -152 -194q-18 -70 -18 -152q0 -45 6 -90q14 -66 15 -135q0 -63 -17 -125 q-31 -115 -133 -172q-65 -37 -135 -37q-27 0 -39 2v74z" />
<glyph unicode="~" horiz-adv-x="1275" d="M125 707q4 55 22 98q47 111 156 147q23 8 55 9q104 0 281 -101q188 -109 272 -108q10 0 27 4q78 23 109 98q14 35 14 78l90 -14q-2 -43 -23 -97q-47 -111 -155 -147q-23 -8 -55 -8q-106 0 -279 98q-193 109 -274 108q-16 0 -25 -2q-78 -23 -109 -100q-16 -43 -16 -78z " />
<glyph unicode="&#xa1;" horiz-adv-x="428" d="M125 1528q0 39 27 63q31 27 63.5 27t63.5 -27q27 -25 26.5 -63.5t-26.5 -63.5q-29 -25 -64 -24.5t-63 24.5q-27 25 -27 64zM172 4v1323h90v-1323h-90z" />
<glyph unicode="&#xa2;" horiz-adv-x="1011" d="M98 1063q0 182 131 313q100 100 232 125v162h90v-156q182 -4 309 -131q45 -49 51 -59l-86 -35q-4 6 -14 16.5t-14 16.5q-104 102 -246 104v-714q141 2 246 106q18 18 28 31l86 -33q-14 -20 -51 -61q-127 -129 -309 -132v-153h-90v160q-127 20 -232 125q-131 129 -131 315 zM188 1063q0 -147 105 -252q76 -76 168 -96v694q-96 -20 -168 -94q-105 -105 -105 -252z" />
<glyph unicode="&#xa3;" horiz-adv-x="1128" d="M100 20q133 119 156 150q109 131 109 291q0 31 -3 45l-6 49h-229v90h211q-20 84 -76 189q-109 180 -125 344q-2 12 -2 36q0 139 92 250q104 123 267 138q6 0 18 1t18 1q139 0 250 -93q123 -104 140 -268q4 -29 4 -43q0 -59 -23 -115l-86 29q14 41 14 96v27 q-12 127 -106 205q-82 70 -191 69q-4 0 -14 -1t-14 -1q-127 -12 -205 -104q-70 -82 -70 -191q0 -6 1 -14t1 -14q8 -109 78 -256q84 -133 121 -285h199v-90h-180q2 -6 2 -20.5t2 -22.5q2 -14 2 -43q0 -205 -170 -406q123 45 245 46q68 0 144 -17q102 -23 188 -22q88 0 152 16 l16 -88q-76 -20 -168 -21q-82 0 -182 23q-94 20 -174 20q-74 0 -117 -16q-90 -33 -203 -88z" />
<glyph unicode="&#xa4;" horiz-adv-x="1110" d="M100 754l140 139q-90 109 -90 252q0 145 90 254l-140 137l64 66l139 -140q106 88 252 88q147 0 254 -88l139 140l64 -66l-140 -137q90 -109 91 -254q0 -143 -91 -252l140 -139l-64 -66l-139 139q-106 -88 -254 -88q-145 0 -252 88l-139 -139zM240 1145q0 -111 63 -189 q14 -20 31 -34q12 -16 33 -29q78 -63 188 -64q113 0 190 64q18 12 35 28.5t29 34.5q63 78 63 188.5t-63 188.5q-2 2 -29 35l-16 15.5t-19 15.5q-76 61 -190 61q-113 0 -188 -61q-6 -4 -33 -31q-23 -23 -31 -35q-63 -77 -63 -188z" />
<glyph unicode="&#xa5;" d="M49 1599h105l485 -843h10l490 843h102l-489 -843h295v-90h-347l-10 -19v-102h357v-90h-357v-455h-90v455h-354v90h354v102l-10 19h-344v90h293z" />
<glyph unicode="&#xa6;" horiz-adv-x="389" d="M150 -375v848h90v-848h-90zM150 752v847h90v-847h-90z" />
<glyph unicode="&#xa7;" horiz-adv-x="1157" d="M100 1024q0 199 88 287q35 35 62 51q-4 18 -4 61q0 139 98 237.5t240 98.5q137 0 239 -98q53 -49 76 -119l-80 -33q-18 49 -59 90q-76 72 -176 72q-104 0 -176 -71.5t-72 -176t72 -176.5q68 -68 188 -123q193 -61 324 -192q139 -139 139 -334q0 -197 -90 -287 q-35 -35 -62 -51q6 -27 6 -61q0 -137 -100 -238q-98 -98 -240 -98q-139 0 -239 98q-53 49 -76 119l82 33q20 -53 57 -90q76 -72 176 -72q104 0 177 72q74 74 73.5 176t-73.5 176q-68 68 -189 123q-190 61 -321 192q-140 139 -140 334zM188 1024q0 -158 113 -270 q100 -98 244 -158q168 -57 268 -158q43 -43 68 -94q16 20 26 31q63 63 64 223q0 156 -115 270q-100 100 -242 158q-170 57 -270 158q-43 43 -68 94l-24 -31q-64 -63 -64 -223z" />
<glyph unicode="&#xa8;" horiz-adv-x="729" d="M125 1241q0 39 27 64q29 25 63.5 24.5t63.5 -24.5q27 -25 26.5 -64t-26.5 -63q-31 -27 -64 -27t-63 27q-27 24 -27 63zM426 1241q0 41 25 64q29 25 63.5 24.5t63.5 -24.5q27 -25 26.5 -64t-26.5 -63q-31 -27 -64 -27t-63 27q-25 22 -25 63z" />
<glyph unicode="&#xa9;" horiz-adv-x="1404" d="M98 602q0 250 176.5 426t425.5 176q248 0 424 -176t176 -426q0 -248 -176 -424t-424 -176q-250 0 -426 176t-176 424zM170 602q0 -213 156 -373q154 -156 374 -155q219 0 373 155q156 160 156 373q0 221 -156 377q-154 154 -373 154q-221 0 -374 -154 q-156 -156 -156 -377zM381 602q0 139 96 235.5t233.5 96.5t233.5 -96q12 -12 41 -50l-67 -24q-4 4 -10.5 12t-10.5 12q-76 76 -186 76q-109 0 -185 -76q-78 -78 -77 -186q0 -106 77 -184q76 -76 185 -76q111 0 186 76q4 4 21 24l67 -24q-29 -37 -41 -49 q-96 -96 -233.5 -96.5t-233.5 96t-96 233.5z" />
<glyph unicode="&#xaa;" horiz-adv-x="876" d="M100 913v627h31v-596h576v-31h-607zM244 1329q0 113 78 191q80 80 192 79q115 0 193 -77q6 -6 11 -14l5 -7v55h55v-485h-55v84l-5 -6q-5 -6 -11 -12q-78 -78 -193 -78t-192.5 77.5t-77.5 192.5zM299 1329q0 -88 63 -151q61 -61 152 -62q88 0 150 62q47 43 59 108v84 q-14 68 -59 111q-61 61 -149.5 61t-152 -63.5t-63.5 -149.5z" />
<glyph unicode="&#xab;" horiz-adv-x="978" d="M100 463l428 459v-105l-329 -354l329 -357v-106zM444 463l437 459v-105l-332 -354l332 -357v-106z" />
<glyph unicode="&#xad;" horiz-adv-x="839" d="M125 547v90h590v-90h-590z" />
<glyph unicode="&#xae;" horiz-adv-x="1159" d="M100 1118q0 201 140 340q141 141 342 141q197 0 338 -141t141 -339.5t-141 -340.5q-47 -49 -138 -94q-88 -45 -200 -45q-203 0 -342.5 139t-139.5 340zM158 1118q0 -172 123 -299q59 -59 129 -90q18 -8 59 -20q49 -14 113 -15q72 0 147 27l-137 215h-125v-156h-55v645 h198q86 -12 146 -71q72 -72 71 -172q0 -102 -71 -174q-51 -51 -105 -64l131 -199q52 31 99 74q123 127 123 299q0 178 -123 301t-299 123q-178 0 -301 -123t-123 -301zM467 993h117q78 0 133 55.5t55 133.5t-55 133t-133 55h-117v-377z" />
<glyph unicode="&#xaf;" horiz-adv-x="839" d="M125 1237v90h590v-90h-590z" />
<glyph unicode="&#xb0;" horiz-adv-x="761" d="M150 1368q0 96 67.5 163.5t163.5 67.5t163.5 -67.5t67.5 -163.5q0 -94 -67.5 -161.5t-163.5 -67.5t-163.5 67.5t-67.5 161.5zM221 1368q0 -66 47 -113t112.5 -47t113 47.5t47.5 112.5q0 68 -47.5 115t-113 47t-112.5 -47t-47 -115z" />
<glyph unicode="&#xb1;" horiz-adv-x="1048" d="M125 0v90h801v-90h-801zM125 547v90h354v354h90v-354h357v-90h-357v-354h-90v354h-354z" />
<glyph unicode="&#xb4;" horiz-adv-x="628" d="M150 1100l163 186h166l-246 -186h-83z" />
<glyph unicode="&#xb5;" horiz-adv-x="1044" d="M150 -375v1356h90v-729q25 -49 59 -84q90 -86 215 -86t215 88q59 59 80 129v682h88v-981h-88v111q-2 -2 -5 -4.5t-7 -6.5q-109 -109 -283 -108q-164 0 -274 108v-475h-90z" />
<glyph unicode="&#xb6;" horiz-adv-x="1134" d="M51 1169q0 215 154 369q129 129 309 154h82h489v-90h-88v-1977h-90v1977h-92v-1977h-90v1020h-152q-215 0 -368.5 153.5t-153.5 370.5z" />
<glyph unicode="&#xb7;" horiz-adv-x="401" d="M125 801q0 31 22.5 53.5t55.5 22.5q31 0 53.5 -23t22.5 -53q0 -33 -23 -56q-20 -20 -53 -20q-35 0 -56 20q-22 23 -22 56z" />
<glyph unicode="&#x2219;" horiz-adv-x="401" d="M125 801q0 31 22.5 53.5t55.5 22.5q31 0 53.5 -23t22.5 -53q0 -33 -23 -56q-20 -20 -53 -20q-35 0 -56 20q-22 23 -22 56z" />
<glyph unicode="&#xb8;" horiz-adv-x="581" d="M164 -229l41 36q14 -4 33 -6h10q18 0 41 6q29 10 41 31q6 12 6 23q0 8 -4 16q-27 29 -58 33h-28q-12 0 -74 -4l57 94h70l-12 -35q109 0 133 -43q10 -18 10 -41q0 -29 -12 -51q-29 -53 -76 -70q-47 -14 -82 -14h-14q-51 2 -82 25z" />
<glyph unicode="&#xba;" horiz-adv-x="913" d="M100 913v627h31v-596h576v-31h-607zM244 1329q0 113 78 191q80 80 192 79h29q113 0 192 -79q78 -78 78 -191q0 -115 -78 -192.5t-192 -77.5h-29q-115 0 -192.5 77.5t-77.5 192.5zM299 1329q0 -90 63 -151q55 -55 166 -62q111 6 166 62q63 63 64 151q0 84 -64 152 q-55 55 -166 61q-111 -6 -166 -61q-63 -64 -63 -152z" />
<glyph unicode="&#xbb;" horiz-adv-x="978" d="M100 0v106l330 357l-330 354v105l437 -459zM451 0v106l331 357l-331 354v105l430 -459z" />
<glyph unicode="&#xbf;" horiz-adv-x="954" d="M152 403q0 72 34 146q61 127 203 237q115 102 176 230q41 86 41 166q0 61 -22 129l82 28q29 -82 28 -157q0 -104 -49 -205q-78 -164 -242 -289q-95 -92 -135 -178q-27 -57 -26 -109q0 -45 14 -82q33 -94 129 -143q53 -25 107 -24q37 0 81 16q98 33 144 125q25 52 24 104 l88 -4v-8q0 -59 -32 -129q-61 -125 -195 -172q-55 -20 -113 -21q-74 0 -147 35q-127 61 -172 193q-18 49 -18 112zM541 1528q0 39 26 63q31 27 64 27t63 -27q27 -25 27 -63.5t-26.5 -63t-63.5 -24.5t-63.5 24.5t-26.5 63.5z" />
<glyph unicode="&#xc0;" d="M49 0l596 1636l596 -1636h-94l-223 612h-555l-224 -612h-96zM356 1886h166l162 -186h-84zM401 702h490l-246 672z" />
<glyph unicode="&#xc1;" d="M49 0l596 1636l596 -1636h-94l-223 612h-555l-224 -612h-96zM401 702h490l-246 672zM606 1700l162 186h168l-246 -186h-84z" />
<glyph unicode="&#xc2;" d="M49 0l596 1636l596 -1636h-94l-223 612h-555l-224 -612h-96zM360 1608l230 233h104l238 -233h-105l-186 143l-174 -143h-107zM401 702h490l-246 672z" />
<glyph unicode="&#xc3;" d="M49 0l596 1636l596 -1636h-94l-223 612h-555l-224 -612h-96zM383 1661q23 129 100 151q20 6 41 7q57 0 115 -45q74 -61 125 -62h4q49 4 72 84h67q-23 -131 -98 -151q-23 -6 -41 -7q-57 0 -117 48q-76 59 -123 59h-6q-47 -2 -69 -84h-70zM401 702h490l-246 672z" />
<glyph unicode="&#xc4;" d="M49 0l596 1636l596 -1636h-94l-223 612h-555l-224 -612h-96zM401 702h490l-246 672zM406 1749q0 39 26.5 63.5t63 24.5t63.5 -24.5t27 -63.5t-27 -63q-31 -27 -63.5 -27t-63.5 27q-26 24 -26 63zM707 1749q0 39 26 63q29 25 63.5 25t63.5 -25q27 -25 27 -63.5t-27 -62.5 q-31 -27 -63.5 -27t-63.5 27q-26 24 -26 63z" />
<glyph unicode="&#xc5;" d="M49 0l565 1548q-33 10 -55 33q-37 37 -37 86t37 86t86 37t86 -37t37 -86t-37 -86q-25 -25 -53 -33l563 -1548h-94l-223 612h-555l-224 -612h-96zM401 702h490l-246 672zM588 1667q0 -25 16 -41q10 -10 33 -14h18q20 4 31 14q16 16 16 41t-16 41t-40.5 16t-41 -16 t-16.5 -41z" />
<glyph unicode="&#xc6;" horiz-adv-x="1757" d="M125 0l696 1599h811v-90h-708v-663h708v-90h-708v-666h708v-90h-798v612h-340l-273 -612h-96zM526 702h308v713z" />
<glyph unicode="&#xc7;" horiz-adv-x="1593" d="M125 801q0 338 240 577q242 242 579 242q315 0 551 -213l-68 -64q-207 184 -483 185q-301 0 -514 -213t-213 -514q0 -303 213 -516t514 -213q276 0 483 184l68 -61q-219 -199 -506 -213l-8 -27q109 0 131 -41q12 -20 12 -41q0 -27 -14 -53q-29 -55 -74 -70 q-41 -12 -82 -12h-16q-55 4 -82 22l41 37q10 -2 35 -6h8q18 0 41 6q31 10 43 31q4 8 4 22q0 8 -4 17q-27 31 -55 33h-31q-12 0 -74 -4l54 86q-323 9 -553 239q-240 240 -240 580z" />
<glyph unicode="&#xc8;" horiz-adv-x="1073" d="M150 0v1599h800v-90h-710v-663h710v-90h-710v-666h710v-90h-800zM332 1855h166l161 -188h-84z" />
<glyph unicode="&#xc9;" horiz-adv-x="1073" d="M150 0v1599h800v-90h-710v-663h710v-90h-710v-666h710v-90h-800zM440 1667l162 188h166l-244 -188h-84z" />
<glyph unicode="&#xca;" horiz-adv-x="1073" d="M150 0v1599h800v-90h-710v-663h710v-90h-710v-666h710v-90h-800zM266 1659l230 233h102l240 -233h-105l-186 141l-176 -141h-105z" />
<glyph unicode="&#xcb;" horiz-adv-x="1073" d="M150 0v1599h800v-90h-710v-663h710v-90h-710v-666h710v-90h-800zM309 1759q0 39 27 64q29 25 63.5 24.5t63.5 -24.5q27 -25 26.5 -64t-26.5 -63q-31 -27 -63.5 -27t-63.5 27q-27 24 -27 63zM610 1759q0 39 27 63.5t63.5 24.5t63.5 -24.5t27 -63.5t-27 -63 q-31 -27 -63.5 -27t-63.5 27q-27 24 -27 63z" />
<glyph unicode="&#xcc;" horiz-adv-x="428" d="M-74 1855h166l164 -188h-86zM170 0v1599h90v-1599h-90z" />
<glyph unicode="&#xcd;" horiz-adv-x="428" d="M170 0v1599h90v-1599h-90zM174 1667l164 188h166l-246 -188h-84z" />
<glyph unicode="&#xce;" horiz-adv-x="428" d="M-70 1608l230 233h102l240 -233h-105l-186 143l-176 -143h-105zM170 0v1599h90v-1599h-90z" />
<glyph unicode="&#xcf;" horiz-adv-x="428" d="M-25 1759q0 39 27 63.5t63.5 24.5t63.5 -24.5t27 -63.5t-27 -63q-31 -27 -63.5 -27t-63.5 27q-27 24 -27 63zM170 0v1599h90v-1599h-90zM274 1759q0 39 27 63.5t63.5 24.5t63.5 -24.5t27 -63.5t-27 -63q-31 -27 -63.5 -27t-63.5 27q-27 24 -27 63z" />
<glyph unicode="&#xd0;" horiz-adv-x="1282" d="M49 756v90h162v753h88v-2h8q395 0 613 -217q240 -240 239 -579q0 -342 -239 -582q-217 -217 -613 -217h-8v-2h-88v756h-162zM299 92h8q354 0 547 193q213 213 213 516q0 297 -213 514q-190 190 -547 190h-8v-659h371v-90h-371v-664z" />
<glyph unicode="&#xd1;" horiz-adv-x="1310" d="M150 0v1599h100l821 -1423v1423h90v-1599h-90l-831 1438v-1438h-90zM393 1661q23 129 101 151q23 6 41 7q57 0 114 -45q74 -61 125 -62h4q49 4 72 84h68q-23 -131 -99 -151q-22 -6 -43 -7q-55 0 -114 48q-76 59 -123 59h-7q-47 -2 -69 -84h-70z" />
<glyph unicode="&#xd2;" horiz-adv-x="1890" d="M125 803q0 340 239.5 579.5t581.5 239.5q340 0 580 -240q242 -242 241 -579q0 -340 -241 -582q-240 -240 -580 -239q-342 0 -581.5 239.5t-239.5 581.5zM217 803q0 -299 213 -516q213 -215 516 -215t516 215q213 217 213 516q0 301 -213 514q-215 215 -516 215t-516 -215 q-213 -213 -213 -514zM727 1855h166l164 -188h-84z" />
<glyph unicode="&#xd3;" horiz-adv-x="1890" d="M125 803q0 340 239.5 579.5t581.5 239.5q340 0 580 -240q242 -242 241 -579q0 -340 -241 -582q-240 -240 -580 -239q-342 0 -581.5 239.5t-239.5 581.5zM217 803q0 -299 213 -516q213 -215 516 -215t516 215q213 217 213 516q0 301 -213 514q-215 215 -516 215t-516 -215 q-213 -213 -213 -514zM836 1667l163 188h166l-245 -188h-84z" />
<glyph unicode="&#xd4;" horiz-adv-x="1890" d="M125 803q0 340 239.5 579.5t581.5 239.5q340 0 580 -240q242 -242 241 -579q0 -340 -241 -582q-240 -240 -580 -239q-342 0 -581.5 239.5t-239.5 581.5zM217 803q0 -299 213 -516q213 -215 516 -215t516 215q213 217 213 516q0 301 -213 514q-215 215 -516 215t-516 -215 q-213 -213 -213 -514zM662 1659l229 233h104l238 -233h-105l-186 141l-174 -141h-106z" />
<glyph unicode="&#xd5;" horiz-adv-x="1890" d="M125 803q0 340 239.5 579.5t581.5 239.5q340 0 580 -240q242 -242 241 -579q0 -340 -241 -582q-240 -240 -580 -239q-342 0 -581.5 239.5t-239.5 581.5zM217 803q0 -299 213 -516q213 -215 516 -215t516 215q213 217 213 516q0 301 -213 514q-215 215 -516 215t-516 -215 q-213 -213 -213 -514zM684 1679q23 131 100 154q14 4 41 4q57 0 115 -45q72 -59 125 -59h4q49 4 72 84h67q-23 -131 -98 -152q-22 -6 -43 -6q-55 0 -115 47q-72 57 -123 57h-6q-47 -2 -69 -84h-70z" />
<glyph unicode="&#xd6;" horiz-adv-x="1890" d="M125 803q0 340 239.5 579.5t581.5 239.5q340 0 580 -240q242 -242 241 -579q0 -340 -241 -582q-240 -240 -580 -239q-342 0 -581.5 239.5t-239.5 581.5zM217 803q0 -299 213 -516q213 -215 516 -215t516 215q213 217 213 516q0 301 -213 514q-215 215 -516 215t-516 -215 q-213 -213 -213 -514zM707 1759q0 39 26 64q29 25 63.5 24.5t63.5 -24.5q27 -25 27 -64t-27 -63q-31 -27 -63.5 -27t-63.5 27q-26 24 -26 63zM1006 1759q0 39 26 64q29 25 63.5 24.5t63.5 -24.5q27 -25 27 -64t-27 -63q-31 -27 -63.5 -27t-63.5 27q-26 24 -26 63z" />
<glyph unicode="&#xd7;" horiz-adv-x="1048" d="M211 342l250 250l-250 252l63 63l250 -252l252 252l64 -63l-252 -252l252 -250l-64 -66l-252 252l-250 -252z" />
<glyph unicode="&#xd8;" horiz-adv-x="1890" d="M125 803q0 340 239.5 579.5t581.5 239.5q172 0 305 -55l86 182l82 -37l-86 -184q104 -55 195 -146q240 -240 239.5 -579.5t-241.5 -581.5q-240 -240 -580 -239q-168 0 -307 57l-84 -184l-84 36l86 185q-96 51 -190 145q-242 242 -242 582zM217 803q0 -303 213 -516 q76 -76 168 -127l614 1323q-123 49 -266 49q-301 0 -516 -215q-213 -213 -213 -514zM678 121q123 -49 268 -49q303 0 516 215q213 217 213 516t-213 516q-72 72 -168 125z" />
<glyph unicode="&#xd9;" horiz-adv-x="1343" d="M150 508v1091h92v-1091q0 -180 125 -305t307 -125q180 0 305 125t125 305v1091h90v-1148q-25 -184 -152 -312q-154 -154 -368 -153q-217 0 -370.5 153.5t-153.5 368.5zM453 1855h165l164 -188h-84z" />
<glyph unicode="&#xda;" horiz-adv-x="1343" d="M150 508v1091h92v-1091q0 -180 125 -305t307 -125q180 0 305 125t125 305v1091h90v-1148q-25 -184 -152 -312q-154 -154 -368 -153q-217 0 -370.5 153.5t-153.5 368.5zM563 1667l162 188h168l-246 -188h-84z" />
<glyph unicode="&#xdb;" horiz-adv-x="1343" d="M150 508v1091h92v-1091q0 -180 125 -305t307 -125q180 0 305 125t125 305v1091h90v-1148q-25 -184 -152 -312q-154 -154 -368 -153q-217 0 -370.5 153.5t-153.5 368.5zM387 1608l229 233h105l237 -233h-104l-184 143l-176 -143h-107z" />
<glyph unicode="&#xdc;" horiz-adv-x="1343" d="M150 508v1091h92v-1091q0 -180 125 -305t307 -125q180 0 305 125t125 305v1091h90v-1148q-25 -184 -152 -312q-154 -154 -368 -153q-217 0 -370.5 153.5t-153.5 368.5zM432 1749q0 39 27 63q29 25 63.5 25t63.5 -25q27 -25 26.5 -63.5t-26.5 -62.5q-31 -27 -64 -27 t-63 27q-27 24 -27 63zM733 1749q0 39 26.5 63.5t63.5 24.5t63.5 -24.5t26.5 -63.5t-26 -63q-31 -27 -63.5 -27t-63.5 27q-27 24 -27 63z" />
<glyph unicode="&#xdd;" d="M49 1599h105l491 -851l494 851h102l-551 -952v-647h-90v647zM537 1667l161 188h166l-243 -188h-84z" />
<glyph unicode="&#xde;" horiz-adv-x="1122" d="M150 0v1599h90v-276h329q182 -25 312 -154q154 -154 153 -368q0 -217 -153 -371q-152 -152 -369 -151h-272v-279h-90zM240 369h272q178 0 305 127q125 125 125 305t-125 305q-127 127 -305 127h-272v-864z" />
<glyph unicode="&#xe0;" horiz-adv-x="1359" d="M125 520q0 227 162 389t387 162q227 0 389 -162q35 -35 57 -65v137h90v-981h-90v201q-27 -37 -57 -68q-162 -162 -389 -162q-225 0 -387 162t-162 387zM219 520q0 -186 133 -319t321.5 -133t321.5 133q100 100 125 231v178q-25 131 -125 232q-133 133 -321.5 133 t-321.5 -133.5t-133 -321.5zM449 1286h165l162 -186h-84z" />
<glyph unicode="&#xe1;" horiz-adv-x="1359" d="M125 520q0 227 162 389t387 162q227 0 389 -162q35 -35 57 -65v137h90v-981h-90v201q-27 -37 -57 -68q-162 -162 -389 -162q-225 0 -387 162t-162 387zM219 520q0 -186 133 -319t321.5 -133t321.5 133q100 100 125 231v178q-25 131 -125 232q-133 133 -321.5 133 t-321.5 -133.5t-133 -321.5zM557 1100l164 186h166l-246 -186h-84z" />
<glyph unicode="&#xe2;" horiz-adv-x="1359" d="M125 520q0 227 162 389t387 162q227 0 389 -162q35 -35 57 -65v137h90v-981h-90v201q-27 -37 -57 -68q-162 -162 -389 -162q-225 0 -387 162t-162 387zM219 520q0 -186 133 -319t321.5 -133t321.5 133q100 100 125 231v178q-25 131 -125 232q-133 133 -321.5 133 t-321.5 -133.5t-133 -321.5zM383 1090l229 233h105l237 -233h-104l-186 143l-177 -143h-104z" />
<glyph unicode="&#xe3;" horiz-adv-x="1359" d="M125 520q0 227 162 389t387 162q227 0 389 -162q35 -35 57 -65v137h90v-981h-90v201q-27 -37 -57 -68q-162 -162 -389 -162q-225 0 -387 162t-162 387zM219 520q0 -186 133 -319t321.5 -133t321.5 133q100 100 125 231v178q-25 131 -125 232q-133 133 -321.5 133 t-321.5 -133.5t-133 -321.5zM406 1143q23 129 100 151q23 6 41 6q57 0 115 -45q74 -61 124 -61h5q47 2 69 86h70q-23 -133 -99 -154q-22 -6 -43 -6q-55 0 -114 47q-76 59 -123 60h-6q-47 -2 -70 -84h-69z" />
<glyph unicode="&#xe4;" horiz-adv-x="1359" d="M125 520q0 227 162 389t387 162q227 0 389 -162q35 -35 57 -65v137h90v-981h-90v201q-27 -37 -57 -68q-162 -162 -389 -162q-225 0 -387 162t-162 387zM219 520q0 -186 133 -319t321.5 -133t321.5 133q100 100 125 231v178q-25 131 -125 232q-133 133 -321.5 133 t-321.5 -133.5t-133 -321.5zM428 1241q0 39 27 64q29 25 63.5 24.5t63.5 -24.5q27 -25 26.5 -64t-26.5 -63q-31 -27 -64 -27t-63 27q-27 24 -27 63zM727 1241q0 39 27 64q29 25 63.5 24.5t63.5 -24.5q27 -25 26.5 -64t-26.5 -63q-31 -27 -64 -27t-63 27q-27 24 -27 63z" />
<glyph unicode="&#xe5;" horiz-adv-x="1359" d="M125 520q0 227 162 389q139 139 329 158q-16 8 -34 27q-37 37 -37 86t36.5 86t86 37t86.5 -37t37 -86.5t-37 -85.5q-16 -16 -33 -25q199 -16 342 -160q35 -35 57 -65v137h90v-981h-90v201q-27 -37 -57 -68q-162 -162 -389 -162q-225 0 -387 162t-162 387zM219 520 q0 -186 133 -319t321.5 -133t321.5 133q100 100 125 231v178q-25 131 -125 232q-133 133 -321.5 133t-321.5 -133.5t-133 -321.5zM610 1179.5q0 -24.5 16.5 -41t41 -16.5t41 16.5t16.5 41t-16.5 41t-41 16.5t-41 -16.5t-16.5 -41z" />
<glyph unicode="&#xe6;" horiz-adv-x="2170" d="M90 520q0 227 162 389t387 162q227 0 389 -162q35 -35 57 -65v137h91v-53q152 143 368 143q227 0 389 -162q141 -144 148 -338l-905 2v-317q35 -43 47 -55q133 -133 321.5 -133t321.5 133l43 49l96 -35q-20 -31 -72 -82q-162 -162 -389 -162q-217 0 -368 144v-115h-91 v201q-27 -37 -57 -68q-162 -162 -389 -162q-225 0 -387 162t-162 387zM184 520q0 -186 133.5 -319t321.5 -133t322 133q47 47 77 102q35 63 47 129v178q-12 66 -47 129q-31 55 -77 103q-133 133 -321.5 133t-322 -133.5t-133.5 -321.5zM1176 664h796q-31 102 -106 178 q-133 133 -321.5 133t-321.5 -133q-18 -18 -47 -56v-122z" />
<glyph unicode="&#xe7;" horiz-adv-x="1175" d="M90 522q0 225 162 387t387 162q227 0 389 -162q37 -37 59 -67l-96 -35q-4 4 -9 11l-10 13.5t-11 12.5q-131 131 -322 131q-186 0 -319.5 -133t-133.5 -320q0 -188 133.5 -321t319.5 -133q188 0 322 133q10 10 30 35l96 -33q-20 -31 -59 -70q-144 -144 -344 -160l-6 -16 q111 0 133 -41q12 -22 12 -43q0 -25 -14 -51q-29 -53 -76 -70q-41 -12 -80 -12h-16q-55 4 -82 22l41 37q8 -2 35 -6h8q22 0 43 6q27 8 39 31q6 12 6 24.5t-2 16.5q-25 27 -59 31q-4 0 -12.5 1t-14.5 1q-14 0 -76 -4l45 73q-206 9 -356 160q-162 162 -162 389z" />
<glyph unicode="&#xe8;" horiz-adv-x="1265" d="M90 522q0 225 162 387t387 162q195 0 342 -117q16 -14 47 -45l16 -16l-67 -70l-639 -639q126 -117 301 -116q188 0 322 133q10 10 30 35l96 -33q-20 -31 -59 -70q-162 -162 -389 -162q-225 0 -387 162t-162 389zM186 522q0 -154 90 -272l635 635q-119 90 -272 90 q-186 0 -319.5 -133.5t-133.5 -319.5zM414 1286h166l163 -186h-84z" />
<glyph unicode="&#xe9;" horiz-adv-x="1265" d="M90 522q0 225 162 387t387 162q195 0 342 -117q16 -14 47 -45l16 -16l-67 -70l-639 -639q126 -117 301 -116q188 0 322 133q10 10 30 35l96 -33q-20 -31 -59 -70q-162 -162 -389 -162q-225 0 -387 162t-162 389zM186 522q0 -154 90 -272l635 635q-119 90 -272 90 q-186 0 -319.5 -133.5t-133.5 -319.5zM522 1100l164 186h166l-246 -186h-84z" />
<glyph unicode="&#xea;" horiz-adv-x="1265" d="M90 522q0 225 162 387t387 162q195 0 342 -117q16 -14 47 -45l16 -16l-67 -70l-639 -639q126 -117 301 -116q188 0 322 133q10 10 30 35l96 -33q-20 -31 -59 -70q-162 -162 -389 -162q-225 0 -387 162t-162 389zM186 522q0 -154 90 -272l635 635q-119 90 -272 90 q-186 0 -319.5 -133.5t-133.5 -319.5zM348 1090l230 233h104l238 -233h-105l-184 143l-176 -143h-107z" />
<glyph unicode="&#xeb;" horiz-adv-x="1265" d="M90 522q0 225 162 387t387 162q195 0 342 -117q16 -14 47 -45l16 -16l-67 -70l-639 -639q126 -117 301 -116q188 0 322 133q10 10 30 35l96 -33q-20 -31 -59 -70q-162 -162 -389 -162q-225 0 -387 162t-162 389zM186 522q0 -154 90 -272l635 635q-119 90 -272 90 q-186 0 -319.5 -133.5t-133.5 -319.5zM393 1241q0 39 26.5 63.5t63.5 24.5t63.5 -24.5t26.5 -63.5t-26 -63q-31 -27 -63.5 -27t-63.5 27q-27 24 -27 63zM692 1241q0 39 26.5 63.5t63.5 24.5t63.5 -24.5t26.5 -63.5t-26 -63q-31 -27 -63.5 -27t-63.5 27q-27 24 -27 63z" />
<glyph unicode="&#xec;" horiz-adv-x="428" d="M-74 1286h166l164 -186h-86zM170 0v981h90v-981h-90z" />
<glyph unicode="&#xed;" horiz-adv-x="428" d="M170 0v981h90v-981h-90zM174 1100l164 186h166l-246 -186h-84z" />
<glyph unicode="&#xee;" horiz-adv-x="428" d="M-70 1090l230 233h102l240 -233h-105l-186 143l-176 -143h-105zM170 0v981h90v-981h-90z" />
<glyph unicode="&#xef;" horiz-adv-x="428" d="M-25 1241q0 39 27 63.5t63.5 24.5t63.5 -24.5t27 -63.5t-27 -63q-31 -27 -63.5 -27t-63.5 27q-27 24 -27 63zM170 0v981h90v-981h-90zM274 1241q0 39 27 63.5t63.5 24.5t63.5 -24.5t27 -63.5t-27 -63q-31 -27 -63.5 -27t-63.5 27q-27 24 -27 63z" />
<glyph unicode="&#xf0;" horiz-adv-x="1277" d="M90 520q0 227 162 389t387 162q25 0 66 -4l-56 61h-168v91h88l-104 114h129l115 -114h163v-91h-73l157 -157q41 -31 72 -62q160 -160 160 -389q0 -227 -160 -387q-162 -162 -389 -162q-225 0 -387 162t-162 387zM184 520q0 -186 133.5 -319t321.5 -133t321.5 133 t133.5 319q0 188 -133.5 321.5t-321.5 133.5t-321.5 -133.5t-133.5 -321.5z" />
<glyph unicode="&#xf1;" horiz-adv-x="1069" d="M150 0v981h90v-61q121 121 286 120q174 0 283 -108q111 -111 113 -275v-657h-91v649q0 123 -90 213q-88 88 -215 88q-125 0 -215 -86q-51 -51 -71 -100v-764h-90zM272 1143q23 129 101 151q22 6 43 6q57 0 114 -45q74 -61 123 -61h6q47 2 70 86h70q-23 -131 -101 -154 q-23 -6 -41 -6q-55 0 -114 47q-76 59 -125 60h-4q-49 -4 -72 -84h-70z" />
<glyph unicode="&#xf2;" horiz-adv-x="1277" d="M90 520q0 227 162 389t387 162q227 0 389 -162q160 -160 160 -389q0 -227 -160 -387q-162 -162 -389 -162q-225 0 -387 162t-162 387zM184 520q0 -186 133.5 -319t321.5 -133t321.5 133t133.5 319q0 188 -133.5 321.5t-321.5 133.5t-321.5 -133.5t-133.5 -321.5z M420 1286h166l164 -186h-84z" />
<glyph unicode="&#xf3;" horiz-adv-x="1277" d="M90 520q0 227 162 389t387 162q227 0 389 -162q160 -160 160 -389q0 -227 -160 -387q-162 -162 -389 -162q-225 0 -387 162t-162 387zM184 520q0 -186 133.5 -319t321.5 -133t321.5 133t133.5 319q0 188 -133.5 321.5t-321.5 133.5t-321.5 -133.5t-133.5 -321.5z M528 1100l164 186h166l-246 -186h-84z" />
<glyph unicode="&#xf4;" horiz-adv-x="1277" d="M90 520q0 227 162 389t387 162q227 0 389 -162q160 -160 160 -389q0 -227 -160 -387q-162 -162 -389 -162q-225 0 -387 162t-162 387zM184 520q0 -186 133.5 -319t321.5 -133t321.5 133t133.5 319q0 188 -133.5 321.5t-321.5 133.5t-321.5 -133.5t-133.5 -321.5z M354 1090l230 233h104l238 -233h-105l-184 143l-176 -143h-107z" />
<glyph unicode="&#xf5;" horiz-adv-x="1277" d="M90 520q0 227 162 389t387 162q227 0 389 -162q160 -160 160 -389q0 -227 -160 -387q-162 -162 -389 -162q-225 0 -387 162t-162 387zM184 520q0 -186 133.5 -319t321.5 -133t321.5 133t133.5 319q0 188 -133.5 321.5t-321.5 133.5t-321.5 -133.5t-133.5 -321.5z M377 1143q23 129 100 151q23 6 41 6q59 0 117 -45q74 -61 123 -61h6q47 2 70 86h67q-23 -133 -98 -154q-20 -6 -41 -6q-57 0 -117 47q-76 59 -123 60h-6q-47 -2 -70 -84h-69z" />
<glyph unicode="&#xf6;" horiz-adv-x="1277" d="M90 520q0 227 162 389t387 162q227 0 389 -162q160 -160 160 -389q0 -227 -160 -387q-162 -162 -389 -162q-225 0 -387 162t-162 387zM184 520q0 -186 133.5 -319t321.5 -133t321.5 133t133.5 319q0 188 -133.5 321.5t-321.5 133.5t-321.5 -133.5t-133.5 -321.5z M399 1241q0 39 27 64q29 25 63.5 24.5t63.5 -24.5q27 -25 27 -64t-27 -63q-31 -27 -63.5 -27t-63.5 27q-27 24 -27 63zM698 1241q0 39 27 64q29 25 63.5 24.5t63.5 -24.5q27 -25 27 -64t-27 -63q-31 -27 -63.5 -27t-63.5 27q-27 24 -27 63z" />
<glyph unicode="&#xf7;" horiz-adv-x="1048" d="M125 569v90h801v-90h-801zM434 414q0 39 27 63q31 27 63.5 27t63.5 -27q27 -25 26.5 -63.5t-26.5 -63.5q-31 -27 -63.5 -26.5t-63.5 26.5q-27 25 -27 64zM434 813q0 39 27 64q31 27 63.5 26.5t63.5 -26.5q27 -25 26.5 -64t-27 -63.5t-63.5 -24.5t-63.5 24.5t-26.5 63.5z " />
<glyph unicode="&#xf8;" horiz-adv-x="1277" d="M90 522.5q0 227.5 162 388.5q160 160 387 160q133 0 238 -51l120 213l80 -41l-125 -217q39 -29 76 -64q160 -160 160 -389t-160 -389t-389 -160q-131 0 -236 52l-122 -213l-80 38l127 220q-41 29 -76 63q-162 162 -162 389.5zM184 522q0 -186 133 -319q31 -31 58 -49 l452 784q-84 39 -188 39q-188 0 -321.5 -133.5t-133.5 -321.5zM451 109q84 -39 188 -39q190 0 322 131q133 133 133 321.5t-133 321.5q-10 12 -58 47z" />
<glyph unicode="&#xf9;" horiz-adv-x="1097" d="M150 371v612h90v-604q0 -125 92 -213q90 -90 223 -90q125 0 213 88q90 90 90 215v604h90v-612q-4 -170 -110 -277q-109 -109 -283 -108q-184 0 -292.5 108.5t-112.5 276.5zM330 1286h166l163 -186h-84z" />
<glyph unicode="&#xfa;" horiz-adv-x="1097" d="M150 371v612h90v-604q0 -125 92 -213q90 -90 223 -90q125 0 213 88q90 90 90 215v604h90v-612q-4 -170 -110 -277q-109 -109 -283 -108q-184 0 -292.5 108.5t-112.5 276.5zM440 1100l162 186h166l-244 -186h-84z" />
<glyph unicode="&#xfb;" horiz-adv-x="1097" d="M150 371v612h90v-604q0 -125 92 -213q90 -90 223 -90q125 0 213 88q90 90 90 215v604h90v-612q-4 -170 -110 -277q-109 -109 -283 -108q-184 0 -292.5 108.5t-112.5 276.5zM264 1090l230 233h104l238 -233h-105l-184 143l-176 -143h-107z" />
<glyph unicode="&#xfc;" horiz-adv-x="1097" d="M150 371v612h90v-604q0 -125 92 -213q90 -90 223 -90q125 0 213 88q90 90 90 215v604h90v-612q-4 -170 -110 -277q-109 -109 -283 -108q-184 0 -292.5 108.5t-112.5 276.5zM309 1241q0 39 27 64q29 25 63.5 24.5t63.5 -24.5q27 -25 26.5 -64t-26.5 -63q-31 -27 -63.5 -27 t-63.5 27q-27 24 -27 63zM610 1241q0 39 27 63.5t63.5 24.5t63.5 -24.5t27 -63.5t-27 -63q-31 -27 -63.5 -27t-63.5 27q-27 24 -27 63z" />
<glyph unicode="&#xfd;" horiz-adv-x="1003" d="M76 981h100l328 -702l325 702h101l-426 -895v2l-223 -463h-88l266 555zM393 1100l162 186h168l-246 -186h-84z" />
<glyph unicode="&#xfe;" horiz-adv-x="1333" d="M129 -358v1759h90v-551q25 31 53 59q160 160 387 160q229 0 389 -159.5t160 -389.5q0 -227 -159 -387q-162 -162 -390 -162q-225 0 -387 162q-20 20 -53 62v-553h-90zM219 410q27 -115 121 -209q133 -133 319 -133q188 0 321.5 133t133.5 319q0 188 -133 321.5 t-322 133.5q-186 0 -319 -133q-94 -94 -121 -209v-223z" />
<glyph unicode="&#xff;" horiz-adv-x="1003" d="M76 981h100l328 -702l325 702h101l-426 -895v2l-223 -463h-88l266 555zM262 1241q0 39 26.5 63.5t63.5 24.5t63.5 -24.5t26.5 -63.5t-26 -63q-31 -27 -64 -27t-63 27q-27 24 -27 63zM563 1241q0 39 27 64q29 25 63.5 24.5t63.5 -24.5q27 -25 26.5 -64t-26.5 -63 q-31 -27 -63.5 -27t-63.5 27q-27 24 -27 63z" />
<glyph unicode="&#x100;" d="M49 0l596 1636l596 -1636h-94l-223 612h-555l-224 -612h-96zM350 1675v70h590v-70h-590zM401 702h490l-246 672z" />
<glyph unicode="&#x101;" horiz-adv-x="1359" d="M125 520q0 227 162 389t387 162q227 0 389 -162q35 -35 57 -65v137h90v-981h-90v201q-27 -37 -57 -68q-162 -162 -389 -162q-225 0 -387 162t-162 387zM219 520q0 -186 133 -319t321.5 -133t321.5 133q100 100 125 231v178q-25 131 -125 232q-133 133 -321.5 133 t-321.5 -133.5t-133 -321.5zM373 1157v70h590v-70h-590z" />
<glyph unicode="&#x102;" d="M49 0l596 1636l596 -1636h-94l-223 612h-555l-224 -612h-96zM401 702h490l-246 672zM410 1855h73q8 -53 47 -90q49 -49 115 -49q68 0 117 49q39 35 45 90h74q-8 -82 -70 -143q-68 -68 -166 -67.5t-166 67.5q-65 65 -69 143z" />
<glyph unicode="&#x103;" horiz-adv-x="1359" d="M125 520q0 227 162 389t387 162q227 0 389 -162q35 -35 57 -65v137h90v-981h-90v201q-27 -37 -57 -68q-162 -162 -389 -162q-225 0 -387 162t-162 387zM219 520q0 -186 133 -319t321.5 -133t321.5 133q100 100 125 231v178q-25 131 -125 232q-133 133 -321.5 133 t-321.5 -133.5t-133 -321.5zM432 1337h74q10 -51 47 -90q49 -49 114.5 -49t114.5 49q41 37 47 90h72q-10 -86 -67 -143q-68 -68 -166.5 -68t-166 67.5t-69.5 143.5z" />
<glyph unicode="&#x106;" horiz-adv-x="1593" d="M125 801q0 338 240 577q242 242 579 242q315 0 551 -213l-68 -64q-207 184 -483 185q-301 0 -514 -213t-213 -514q0 -303 213 -516t514 -213q276 0 483 184l68 -61q-236 -213 -551 -213q-340 0 -579.5 239.5t-239.5 579.5zM850 1667l164 188h166l-246 -188h-84z" />
<glyph unicode="&#x107;" horiz-adv-x="1175" d="M90 522q0 225 162 387t387 162q227 0 389 -162q37 -37 59 -67l-96 -35q-4 4 -9 11l-10 13.5t-11 12.5q-131 131 -322 131q-186 0 -319.5 -133t-133.5 -320q0 -188 133.5 -321t319.5 -133q188 0 322 133q10 10 30 35l96 -33q-20 -31 -59 -70q-162 -162 -389 -162 q-225 0 -387 162t-162 389zM549 1100l164 186h166l-246 -186h-84z" />
<glyph unicode="&#x108;" horiz-adv-x="1593" d="M125 801q0 338 240 577q242 242 579 242q315 0 551 -213l-68 -64q-207 184 -483 185q-301 0 -514 -213t-213 -514q0 -303 213 -516t514 -213q276 0 483 184l68 -61q-236 -213 -551 -213q-340 0 -579.5 239.5t-239.5 579.5zM666 1659l229 233h104l238 -233h-104l-187 141 l-176 -141h-104z" />
<glyph unicode="&#x109;" horiz-adv-x="1175" d="M90 522q0 225 162 387t387 162q227 0 389 -162q37 -37 59 -67l-96 -35q-4 4 -9 11l-10 13.5t-11 12.5q-131 131 -322 131q-186 0 -319.5 -133t-133.5 -320q0 -188 133.5 -321t319.5 -133q188 0 322 133q10 10 30 35l96 -33q-20 -31 -59 -70q-162 -162 -389 -162 q-225 0 -387 162t-162 389zM354 1090l230 233h102l240 -233h-105l-186 143l-176 -143h-105z" />
<glyph unicode="&#x10a;" horiz-adv-x="1593" d="M125 801q0 338 240 577q242 242 579 242q315 0 551 -213l-68 -64q-207 184 -483 185q-301 0 -514 -213t-213 -514q0 -303 213 -516t514 -213q276 0 483 184l68 -61q-236 -213 -551 -213q-340 0 -579.5 239.5t-239.5 579.5zM870 1749q0 31 22.5 53.5t53.5 22.5 q33 0 55.5 -22.5t22.5 -53.5q0 -33 -22.5 -55.5t-55.5 -22.5q-31 0 -53.5 22.5t-22.5 55.5z" />
<glyph unicode="&#x10b;" horiz-adv-x="1175" d="M90 522q0 225 162 387t387 162q227 0 389 -162q37 -37 59 -67l-96 -35q-4 4 -9 11l-10 13.5t-11 12.5q-131 131 -322 131q-186 0 -319.5 -133t-133.5 -320q0 -188 133.5 -321t319.5 -133q188 0 322 133q10 10 30 35l96 -33q-20 -31 -59 -70q-162 -162 -389 -162 q-225 0 -387 162t-162 389zM553 1229q0 29 22.5 51.5t53 22.5t53.5 -23t23 -51q0 -33 -23 -55.5t-53.5 -22.5t-53 22.5t-22.5 55.5z" />
<glyph unicode="&#x10c;" horiz-adv-x="1593" d="M125 801q0 338 240 577q242 242 579 242q315 0 551 -213l-68 -64q-207 184 -483 185q-301 0 -514 -213t-213 -514q0 -303 213 -516t514 -213q276 0 483 184l68 -61q-236 -213 -551 -213q-340 0 -579.5 239.5t-239.5 579.5zM645 1892h107l176 -143l184 143h105l-238 -233 h-105z" />
<glyph unicode="&#x10d;" horiz-adv-x="1175" d="M90 522q0 225 162 387t387 162q227 0 389 -162q37 -37 59 -67l-96 -35q-4 4 -9 11l-10 13.5t-11 12.5q-131 131 -322 131q-186 0 -319.5 -133t-133.5 -320q0 -188 133.5 -321t319.5 -133q188 0 322 133q10 10 30 35l96 -33q-20 -31 -59 -70q-162 -162 -389 -162 q-225 0 -387 162t-162 389zM354 1323h105l176 -141l186 141h105l-240 -233h-102z" />
<glyph unicode="&#x110;" horiz-adv-x="1282" d="M49 756v90h162v753h88v-2h8q395 0 613 -217q240 -240 239 -579q0 -342 -239 -582q-217 -217 -613 -217h-8v-2h-88v756h-162zM299 92h8q354 0 547 193q213 213 213 516q0 297 -213 514q-190 190 -547 190h-8v-659h371v-90h-371v-664z" />
<glyph unicode="&#x111;" horiz-adv-x="1359" d="M125 520q0 227 162 389t387 162q227 0 389 -162q35 -35 57 -65v438h-291v90h291v227h90v-227h99v-90h-99v-1282h-90v201q-27 -37 -57 -68q-162 -162 -389 -162q-225 0 -387 162t-162 387zM219 520q0 -186 133 -319t321.5 -133t321.5 133q100 100 125 231v178 q-25 131 -125 232q-133 133 -321.5 133t-321.5 -133.5t-133 -321.5z" />
<glyph unicode="&#x112;" horiz-adv-x="1073" d="M150 0v1599h800v-90h-710v-663h710v-90h-710v-666h710v-90h-800zM256 1686v69h590v-69h-590z" />
<glyph unicode="&#x113;" horiz-adv-x="1265" d="M90 522q0 225 162 387t387 162q195 0 342 -117q16 -14 47 -45l16 -16l-67 -70l-639 -639q126 -117 301 -116q188 0 322 133q10 10 30 35l96 -33q-20 -31 -59 -70q-162 -162 -389 -162q-225 0 -387 162t-162 389zM186 522q0 -154 90 -272l635 635q-119 90 -272 90 q-186 0 -319.5 -133.5t-133.5 -319.5zM338 1157v70h590v-70h-590z" />
<glyph unicode="&#x114;" horiz-adv-x="1073" d="M150 0v1599h800v-90h-710v-663h710v-90h-710v-666h710v-90h-800zM315 1855h74q10 -55 45 -90q49 -49 117 -49q66 0 115 49q41 37 47 90h71q-10 -86 -67 -143q-68 -68 -166 -67.5t-166 67.5q-66 65 -70 143z" />
<glyph unicode="&#x115;" horiz-adv-x="1265" d="M90 522q0 225 162 387t387 162q195 0 342 -117q16 -14 47 -45l16 -16l-67 -70l-639 -639q126 -117 301 -116q188 0 322 133q10 10 30 35l96 -33q-20 -31 -59 -70q-162 -162 -389 -162q-225 0 -387 162t-162 389zM186 522q0 -154 90 -272l635 635q-119 90 -272 90 q-186 0 -319.5 -133.5t-133.5 -319.5zM397 1337h74q8 -51 47 -90q49 -49 117 -49q66 0 115 49q39 35 45 90h73q-10 -86 -67 -143q-68 -68 -166 -68q-100 0 -168 68q-66 67 -70 143z" />
<glyph unicode="&#x116;" horiz-adv-x="1073" d="M150 0v1599h800v-90h-710v-663h710v-90h-710v-666h710v-90h-800zM473 1749q0 31 22.5 53.5t55.5 22.5q31 0 53.5 -22.5t22.5 -53.5q0 -33 -22.5 -55.5t-53.5 -22.5q-33 0 -55.5 22.5t-22.5 55.5z" />
<glyph unicode="&#x117;" horiz-adv-x="1265" d="M90 522q0 225 162 387t387 162q195 0 342 -117q16 -14 47 -45l16 -16l-67 -70l-639 -639q126 -117 301 -116q188 0 322 133q10 10 30 35l96 -33q-20 -31 -59 -70q-162 -162 -389 -162q-225 0 -387 162t-162 389zM186 522q0 -154 90 -272l635 635q-119 90 -272 90 q-186 0 -319.5 -133.5t-133.5 -319.5zM557 1227q0 31 22.5 53.5t55.5 22.5q31 0 53.5 -23t22.5 -53.5t-22.5 -53t-53.5 -22.5q-33 0 -55.5 22.5t-22.5 53.5z" />
<glyph unicode="&#x118;" horiz-adv-x="1073" d="M150 0v1599h800v-90h-710v-663h710v-90h-710v-666h710v-90h-344q-12 -40 -12 -68q0 -45 28.5 -73.5t71.5 -28.5q45 0 70 27q27 31 33 80l55 -23q0 -59 -43 -102q-45 -45 -115 -45q-66 0 -115 49t-49 116q0 35 17 68h-397z" />
<glyph unicode="&#x119;" horiz-adv-x="1265" d="M90 520q0 227 162 389t387 162q227 0 389 -162q141 -144 148 -338l-988 2q-4 -33 -4 -53q0 -186 133.5 -319t321.5 -133t322 133l43 49l96 -35q-20 -31 -72 -82q-162 -162 -387 -162q-4 -14 -4 -41q0 -43 28.5 -71.5t71.5 -28.5q47 0 70 25q27 31 33 82l55 -23v-2 q0 -57 -43 -100q-45 -45 -115 -45q-68 0 -114 47q-49 49 -50 116q0 25 7 45q-188 18 -328 158q-162 162 -162 387zM207 664h860q-31 102 -106 178q-133 133 -321.5 133t-322.5 -133q-79 -80 -110 -178z" />
<glyph unicode="&#x11a;" horiz-adv-x="1073" d="M150 0v1599h800v-90h-710v-663h710v-90h-710v-666h710v-90h-800zM266 1892h105l176 -143l186 143h105l-240 -233h-102z" />
<glyph unicode="&#x11b;" horiz-adv-x="1265" d="M90 522q0 225 162 387t387 162q195 0 342 -117q16 -14 47 -45l16 -16l-67 -70l-639 -639q126 -117 301 -116q188 0 322 133q10 10 30 35l96 -33q-20 -31 -59 -70q-162 -162 -389 -162q-225 0 -387 162t-162 389zM186 522q0 -154 90 -272l635 635q-119 90 -272 90 q-186 0 -319.5 -133.5t-133.5 -319.5zM348 1323h107l176 -141l184 141h105l-238 -233h-104z" />
<glyph unicode="&#x11c;" horiz-adv-x="1619" d="M125 801q0 338 240 577q242 242 579 242q315 0 551 -213l-68 -64q-207 184 -483 185q-301 0 -514 -213t-213 -514q0 -303 213 -516t514 -213q258 0 455 159v488h90v-520q-225 -217 -545 -217q-340 0 -579.5 239.5t-239.5 579.5zM645 1659l229 233h105l238 -233h-105 l-184 141l-176 -141h-107z" />
<glyph unicode="&#x11d;" horiz-adv-x="1363" d="M125 520q0 227 162 389q160 160 387 160q229 0 389 -160q35 -35 57 -65v137h90v-762q0 -221 -157 -379q-160 -160 -387 -159q-229 0 -390 159q-39 39 -59 70l94 35q10 -12 33 -35q133 -133 322 -133q186 0 319 133q119 119 131 285q-16 -20 -53 -62q-162 -162 -389 -162 q-225 0 -387 162t-162 387zM219 520q0 -186 133 -319t321.5 -133t321.5 133q94 94 123 225v188q-25 129 -123 228q-133 133 -321.5 133t-321.5 -133.5t-133 -321.5zM383 1090l229 233h105l237 -233h-104l-186 143l-177 -143h-104z" />
<glyph unicode="&#x11e;" horiz-adv-x="1619" d="M125 801q0 338 240 577q242 242 579 242q315 0 551 -213l-68 -64q-207 184 -483 185q-301 0 -514 -213t-213 -514q0 -303 213 -516t514 -213q258 0 455 159v488h90v-520q-225 -217 -545 -217q-340 0 -579.5 239.5t-239.5 579.5zM705 1855h73q8 -53 47 -90q49 -49 115 -49 q68 0 117 49q39 35 45 90h74q-10 -86 -68 -143q-68 -68 -168 -67q-98 0 -166 67q-65 65 -69 143z" />
<glyph unicode="&#x11f;" horiz-adv-x="1363" d="M125 520q0 227 162 389q160 160 387 160q229 0 389 -160q35 -35 57 -65v137h90v-762q0 -221 -157 -379q-160 -160 -387 -159q-229 0 -390 159q-39 39 -59 70l94 35q10 -12 33 -35q133 -133 322 -133q186 0 319 133q119 119 131 285q-16 -20 -53 -62q-162 -162 -389 -162 q-225 0 -387 162t-162 387zM219 520q0 -186 133 -319t321.5 -133t321.5 133q94 94 123 225v188q-25 129 -123 228q-133 133 -321.5 133t-321.5 -133.5t-133 -321.5zM432 1337h76q10 -55 45 -90q49 -49 117 -49q66 0 114 49q39 35 45 90h74q-10 -86 -67 -143 q-68 -68 -166 -68q-100 0 -168 67.5t-70 143.5z" />
<glyph unicode="&#x120;" horiz-adv-x="1619" d="M125 801q0 338 240 577q242 242 579 242q315 0 551 -213l-68 -64q-207 184 -483 185q-301 0 -514 -213t-213 -514q0 -303 213 -516t514 -213q258 0 455 159v488h90v-520q-225 -217 -545 -217q-340 0 -579.5 239.5t-239.5 579.5zM864 1749q0 31 22.5 53.5t53.5 22.5 q33 0 55.5 -22.5t22.5 -53.5q0 -33 -22.5 -55.5t-55.5 -22.5q-31 0 -53.5 22.5t-22.5 55.5z" />
<glyph unicode="&#x121;" horiz-adv-x="1363" d="M125 520q0 227 162 389q160 160 387 160q229 0 389 -160q35 -35 57 -65v137h90v-762q0 -221 -157 -379q-160 -160 -387 -159q-229 0 -390 159q-39 39 -59 70l94 35q10 -12 33 -35q133 -133 322 -133q186 0 319 133q119 119 131 285q-16 -20 -53 -62q-162 -162 -389 -162 q-225 0 -387 162t-162 387zM219 520q0 -186 133 -319t321.5 -133t321.5 133q94 94 123 225v188q-25 129 -123 228q-133 133 -321.5 133t-321.5 -133.5t-133 -321.5zM592 1227q0 31 22.5 53.5t53 22.5t53 -23t22.5 -53.5t-22.5 -53t-53 -22.5t-53 22.5t-22.5 53.5z" />
<glyph unicode="&#x12c;" horiz-adv-x="419" d="M-25 1855h74q10 -55 45 -90q49 -49 117 -49q66 0 115 49q41 37 47 90h71q-10 -86 -67 -143q-68 -68 -166 -67q-100 0 -168 67q-64 63 -68 143zM166 0v1599h90v-1599h-90z" />
<glyph unicode="&#x12d;" horiz-adv-x="419" d="M-25 1237h74q10 -55 45 -90q47 -47 117 -47q68 0 115 47q41 37 47 90h71q-10 -82 -67 -141q-70 -70 -166 -70q-98 0 -168 70q-65 64 -68 141zM166 0v981h90v-981h-90z" />
<glyph unicode="&#x131;" horiz-adv-x="428" d="M170 0v981h90v-981h-90z" />
<glyph unicode="&#x13f;" horiz-adv-x="948" d="M150 0v1599h90v-1509h620v-90h-710zM662 801q0 31 22.5 53.5t53 22.5t53 -23t22.5 -53q0 -33 -22 -56q-20 -20 -53 -20t-54 20q-22 23 -22 56z" />
<glyph unicode="&#x140;" horiz-adv-x="591" d="M150 0v1599h90v-1599h-90zM340 801q0 31 22.5 53.5t55.5 22.5q31 0 53.5 -23t22.5 -53q0 -33 -23 -56q-20 -20 -53 -20q-35 0 -56 20q-22 23 -22 56z" />
<glyph unicode="&#x143;" horiz-adv-x="1310" d="M150 0v1599h100l821 -1423v1423h90v-1599h-90l-831 1438v-1438h-90zM547 1618l162 186h165l-243 -186h-84z" />
<glyph unicode="&#x144;" horiz-adv-x="1069" d="M150 0v981h90v-61q121 121 286 120q174 0 283 -108q111 -111 113 -275v-657h-91v649q0 123 -90 213q-88 88 -215 88q-125 0 -215 -86q-51 -51 -71 -100v-764h-90zM426 1100l164 186h166l-246 -186h-84z" />
<glyph unicode="&#x147;" horiz-adv-x="1310" d="M150 0v1599h100l821 -1423v1423h90v-1599h-90l-831 1438v-1438h-90zM371 1841h104l176 -141l187 141h104l-237 -233h-105z" />
<glyph unicode="&#x148;" horiz-adv-x="1069" d="M150 0v981h90v-61q121 121 286 120q174 0 283 -108q111 -111 113 -275v-657h-91v649q0 123 -90 213q-88 88 -215 88q-125 0 -215 -86q-51 -51 -71 -100v-764h-90zM252 1323h104l176 -141l187 141h102l-237 -233h-105z" />
<glyph unicode="&#x14c;" horiz-adv-x="1890" d="M125 803q0 340 239.5 579.5t581.5 239.5q340 0 580 -240q242 -242 241 -579q0 -340 -241 -582q-240 -240 -580 -239q-342 0 -581.5 239.5t-239.5 581.5zM217 803q0 -299 213 -516q213 -215 516 -215t516 215q213 217 213 516q0 301 -213 514q-215 215 -516 215t-516 -215 q-213 -213 -213 -514zM651 1675v70h590v-70h-590z" />
<glyph unicode="&#x14d;" horiz-adv-x="1277" d="M90 520q0 227 162 389t387 162q227 0 389 -162q160 -160 160 -389q0 -227 -160 -387q-162 -162 -389 -162q-225 0 -387 162t-162 387zM184 520q0 -186 133.5 -319t321.5 -133t321.5 133t133.5 319q0 188 -133.5 321.5t-321.5 133.5t-321.5 -133.5t-133.5 -321.5z M344 1128v70h590v-70h-590z" />
<glyph unicode="&#x14e;" horiz-adv-x="1890" d="M125 803q0 340 239.5 579.5t581.5 239.5q340 0 580 -240q242 -242 241 -579q0 -340 -241 -582q-240 -240 -580 -239q-342 0 -581.5 239.5t-239.5 581.5zM217 803q0 -299 213 -516q213 -215 516 -215t516 215q213 217 213 516q0 301 -213 514q-215 215 -516 215t-516 -215 q-213 -213 -213 -514zM711 1855h73q10 -53 47 -90q49 -49 115 -49q68 0 117 49q39 35 45 90h74q-10 -82 -70 -143q-68 -68 -166 -67.5t-166 67.5q-67 65 -69 143z" />
<glyph unicode="&#x14f;" horiz-adv-x="1277" d="M90 520q0 227 162 389t387 162q227 0 389 -162q160 -160 160 -389q0 -227 -160 -387q-162 -162 -389 -162q-225 0 -387 162t-162 387zM184 520q0 -186 133.5 -319t321.5 -133t321.5 133t133.5 319q0 188 -133.5 321.5t-321.5 133.5t-321.5 -133.5t-133.5 -321.5z M403 1337h74q10 -51 47 -90q49 -49 115 -49q68 0 117 49q39 35 45 90h73q-10 -86 -67 -143q-68 -68 -168 -68q-98 0 -166 67.5t-70 143.5z" />
<glyph unicode="&#x150;" horiz-adv-x="1890" d="M125 803q0 340 239.5 579.5t581.5 239.5q340 0 580 -240q242 -242 241 -579q0 -340 -241 -582q-240 -240 -580 -239q-342 0 -581.5 239.5t-239.5 581.5zM217 803q0 -299 213 -516q213 -215 516 -215t516 215q213 217 213 516q0 301 -213 514q-215 215 -516 215t-516 -215 q-213 -213 -213 -514zM727 1649l164 186h166l-246 -186h-84zM956 1649l162 186h166l-244 -186h-84z" />
<glyph unicode="&#x151;" horiz-adv-x="1277" d="M90 520q0 227 162 389t387 162q227 0 389 -162q160 -160 160 -389q0 -227 -160 -387q-162 -162 -389 -162q-225 0 -387 162t-162 387zM184 520q0 -186 133.5 -319t321.5 -133t321.5 133t133.5 319q0 188 -133.5 321.5t-321.5 133.5t-321.5 -133.5t-133.5 -321.5z M420 1081l164 187h166l-246 -187h-84zM649 1081l162 187h168l-246 -187h-84z" />
<glyph unicode="&#x152;" horiz-adv-x="2293" d="M90 803q0 340 239.5 579.5t581.5 239.5q133 0 258 -23h1002v-90h-842q86 -51 164 -127q223 -225 238 -536h440v-90h-440q-16 -313 -238 -535q-76 -76 -170 -131h848v-90h-1002q-120 -18 -258 -18q-342 0 -581.5 239.5t-239.5 581.5zM182 803q0 -299 213 -516 q211 -215 516 -215q141 0 258 45q49 20 91 43q92 51 167 127q195 197 211 469q0 6 1 22.5t1 24.5t-1 22.5t-1 20.5q-16 274 -211 473q-72 72 -167 125q-41 23 -91 43q-117 45 -258 45q-301 0 -516 -215q-213 -213 -213 -514z" />
<glyph unicode="&#x153;" horiz-adv-x="2125" d="M90 520q0 227 162 389t387 162q227 0 389 -162q8 -8 23.5 -26.5t17.5 -20.5q12 16 43 47q162 162 387 162q227 0 389 -162q143 -147 150 -338l-852 2q2 -16 2 -53q0 -143 -64 -258q25 -31 56 -61q133 -133 319 -133q188 0 322 133l43 49l96 -35q-20 -31 -72 -82 q-162 -162 -389 -162q-225 0 -387 162q-31 31 -43 47q-2 -2 -17.5 -20.5t-23.5 -26.5q-162 -162 -389 -162q-225 0 -387 162t-162 387zM184 520q0 -186 133.5 -319t321.5 -133t321.5 133t133.5 319q0 188 -133.5 321.5t-321.5 133.5t-321.5 -133.5t-133.5 -321.5zM1126 778 q33 -66 45 -114h758q-29 98 -108 178q-133 133 -322 133q-186 0 -319 -133q-36 -35 -54 -64z" />
<glyph unicode="&#x178;" d="M49 1599h105l491 -851l494 851h102l-551 -952v-647h-90v647zM406 1759q0 39 26.5 63.5t63 24.5t63.5 -24.5t27 -63.5t-27 -63q-31 -27 -63.5 -27t-63.5 27q-26 24 -26 63zM707 1759q0 39 26 64q29 25 63.5 24.5t63.5 -24.5q27 -25 27 -64t-27 -63q-31 -27 -63.5 -27 t-63.5 27q-26 24 -26 63z" />
<glyph unicode="&#x2c6;" horiz-adv-x="808" d="M121 1090l229 233h105l237 -233h-104l-187 143l-176 -143h-104z" />
<glyph unicode="&#x2c7;" horiz-adv-x="808" d="M121 1323h104l176 -141l187 141h104l-237 -233h-105z" />
<glyph unicode="&#x2c9;" horiz-adv-x="888" d="M150 1157v70h589v-70h-589z" />
<glyph unicode="&#x2d8;" horiz-adv-x="878" d="M205 1337h74q8 -51 47 -90q49 -49 114.5 -49t114.5 49q41 37 47 90h74q-8 -84 -70 -143q-68 -68 -166 -68t-166 68q-65 67 -69 143z" />
<glyph unicode="&#x2d9;" horiz-adv-x="401" d="M125 1227q0 31 22.5 53.5t55.5 22.5q31 0 53.5 -23t22.5 -53.5t-23 -53t-53 -22.5q-33 0 -55.5 22.5t-22.5 53.5z" />
<glyph unicode="&#x2da;" horiz-adv-x="761" d="M258 1139q0 51 37 88q35 35 88 35q51 0 86 -35q37 -37 37 -88q0 -49 -37 -86q-35 -35 -86 -35q-53 0 -88 35q-37 37 -37 86zM324 1139q0 -20 18 -39t41 -19q20 0 39 19q16 16 16 39q0 25 -16 41t-39 16q-25 0 -41 -16q-18 -18 -18 -41z" />
<glyph unicode="&#x2db;" horiz-adv-x="759" d="M219 -111q0 70 47 111h45q-31 -68 -30 -111q0 -41 30.5 -71.5t73.5 -30.5q41 0 67.5 26.5t32.5 80.5l56 -21v-4q0 -55 -43 -98q-47 -47 -113 -47q-68 0 -117 48.5t-49 116.5z" />
<glyph unicode="&#x2dc;" horiz-adv-x="823" d="M150 1143q23 129 100 151q22 6 43 6q57 0 115 -45q74 -61 122 -61h7q47 2 69 86h70q-23 -131 -101 -154q-23 -6 -40 -6q-55 0 -115 47q-76 59 -125 60h-4q-49 -4 -72 -84h-69z" />
<glyph unicode="&#x2dd;" horiz-adv-x="856" d="M150 1081l163 187h166l-246 -187h-83zM379 1081l164 187h166l-246 -187h-84z" />
<glyph unicode="&#x1ef2;" d="M49 1599h105l491 -851l494 851h102l-551 -952v-647h-90v647zM426 1804h166l164 -186h-84z" />
<glyph unicode="&#x1ef3;" horiz-adv-x="1003" d="M76 981h100l328 -702l325 702h101l-426 -895v2l-223 -463h-88l266 555zM283 1286h166l163 -186h-84z" />
<glyph unicode="&#x2000;" horiz-adv-x="944" />
<glyph unicode="&#x2001;" horiz-adv-x="1890" />
<glyph unicode="&#x2002;" horiz-adv-x="944" />
<glyph unicode="&#x2003;" horiz-adv-x="1890" />
<glyph unicode="&#x2004;" horiz-adv-x="628" />
<glyph unicode="&#x2005;" horiz-adv-x="471" />
<glyph unicode="&#x2006;" horiz-adv-x="313" />
<glyph unicode="&#x2007;" horiz-adv-x="313" />
<glyph unicode="&#x2008;" horiz-adv-x="235" />
<glyph unicode="&#x2009;" horiz-adv-x="376" />
<glyph unicode="&#x200a;" horiz-adv-x="104" />
<glyph unicode="&#x2010;" horiz-adv-x="839" d="M125 547v90h590v-90h-590z" />
<glyph unicode="&#x2011;" horiz-adv-x="839" d="M125 547v90h590v-90h-590z" />
<glyph unicode="&#x2012;" horiz-adv-x="839" d="M125 547v90h590v-90h-590z" />
<glyph unicode="&#x2013;" horiz-adv-x="870" d="M49 547v90h772v-90h-772z" />
<glyph unicode="&#x2014;" horiz-adv-x="1505" d="M49 547v90h1407v-90h-1407z" />
<glyph unicode="&#x2018;" horiz-adv-x="278" d="M49 1374q0 14 8 39l99 199h63l-55 -152q27 -8 41 -22q25 -25 24.5 -64t-26.5 -63q-31 -27 -64 -27t-63 27q-27 24 -27 63z" />
<glyph unicode="&#x2019;" horiz-adv-x="278" d="M49 1522q0 39 27 63q31 27 63.5 27t63.5 -27q27 -25 26 -63q0 -20 -6 -39l-98 -199h-66l58 152q-23 6 -39 22q-29 25 -29 64z" />
<glyph unicode="&#x201a;" horiz-adv-x="278" d="M49 74q0 39 27 63q31 27 63.5 27t63.5 -27q27 -25 26 -63q0 -20 -6 -39l-98 -199h-66l58 152q-23 6 -39 22q-29 25 -29 64z" />
<glyph unicode="&#x201c;" horiz-adv-x="530" d="M49 1374q0 14 8 39l99 199h63l-55 -152q27 -8 41 -22q25 -25 24.5 -64t-26.5 -63q-31 -27 -64 -27t-63 27q-27 24 -27 63zM301 1374q0 14 8 39l99 199h63l-55 -152q27 -8 41 -22q25 -25 24.5 -64t-26.5 -63q-31 -27 -64 -27t-63 27q-27 24 -27 63z" />
<glyph unicode="&#x201d;" horiz-adv-x="530" d="M49 1522q0 39 27 63q31 27 63.5 27t63.5 -27q27 -25 26 -63q0 -20 -6 -39l-98 -199h-66l58 152q-23 6 -39 22q-29 25 -29 64zM301 1522q0 39 27 63q31 27 63.5 27t63.5 -27q27 -25 26 -63q0 -20 -6 -39l-98 -199h-66l58 152q-23 6 -39 22q-29 25 -29 64z" />
<glyph unicode="&#x201e;" horiz-adv-x="530" d="M49 74q0 39 27 63q31 27 63.5 27t63.5 -27q27 -25 26 -63q0 -20 -6 -39l-98 -199h-66l58 152q-23 6 -39 22q-29 25 -29 64zM301 74q0 39 27 63q31 27 63.5 27t63.5 -27q27 -25 26 -63q0 -20 -6 -39l-98 -199h-66l58 152q-23 6 -39 22q-29 25 -29 64z" />
<glyph unicode="&#x2020;" horiz-adv-x="757" d="M100 1538v57h250v220h58v-220h249v-57h-249v-1366h-58v1366h-250z" />
<glyph unicode="&#x2021;" horiz-adv-x="757" d="M100 995v58h250v485h-250v57h250v220h58v-220h249v-57h-249v-485h249v-58h-249v-823h-58v823h-250z" />
<glyph unicode="&#x2022;" horiz-adv-x="2932" d="M150 -59q20 8 28 14t8 8v180q0 23 -34 33q92 45 127 68q18 -2 20 -51v-3q10 4 27 13l116 41q8 -39 19 -76q9 -34 18 -98q2 -8 2 -25q0 -53 -37 -111q-51 -80 -127 -143q53 96 54 180q0 14 -4 43q-18 102 -31 127q-37 -25 -37 -53v-117l4 -12q2 -6 37 -16q-31 -9 -86 -43 q-20 -10 -33 -11q-38 1 -71 52zM215 1092v28q223 61 295 146q74 106 174 106h8q131 0 131 -78q0 -29 -18 -49v-8q20 -125 110 -125l-69 301q23 0 84 90l252 303h547q27 -20 251 -329q55 -61 56 -91v-14l-49 -182l14 -41l-29 -43h8q117 49 117 131v8q-18 20 -18 49 q0 78 131 78h8q104 0 211 -139q72 -59 258 -113v-28q-20 0 -21 -15l7 -8v-4q-6 -29 -43 -29h-15l-215 -14q-33 29 -106 29l-62 26l-8 -20q25 -84 121 -84l18 -6q78 6 78 18v8l-12 21v8l27 -14l34 6h113l41 8l22 -8v-15q0 -39 -204 -69l-125 8v-23q111 -33 188 -32h43v-9 q-51 -70 -162 -69h-28q-76 0 -160 35v-9q0 -35 160 -90q0 -27 -76 -34q-45 0 -191 63q0 -35 70 -92l-18 -14l-135 43v-7l22 -57l-29 -6q-39 0 -133 125l-61 -307v-6h-744q-39 0 -84 292q-72 -92 -118 -104l-29 6l22 64h-8q-86 -43 -133 -43l-12 22q70 43 70 84h-9 q-127 -63 -188 -63q-70 8 -70 34q160 55 160 90v9h-6q-68 -35 -154 -35h-28q-111 0 -162 69v9h43q78 0 188 32v23l-139 -8q-190 33 -190 69v15h14v8l49 -8h113l28 -6l33 14v-8l-12 -21v-8q0 -12 69 -18q147 12 148 102l-8 8q-47 -25 -140 -35q0 -10 -28 -20l-215 14h-15 q-37 0 -43 29l7 18zM426 1098l14 -15h90l23 23v14h-14v6l-113 -20v-8zM453 -160q0 68 69 99q-8 18 -8 24v180q0 23 -35 33q92 45 127 68q20 -4 23 -51v-222q2 -16 12 -16t33 18v170q0 23 -35 33q92 45 127 68q20 -4 22 -51v-181q0 -51 -79 -88q-76 -35 -125 -35h-4 q-45 0 -54 -32q-2 -6 -2 -17q0 -22 25 -30q12 -4 20 -5q29 0 70 23q33 20 61 20q18 0 33 -8q18 -10 31 -33q4 -6 4 -20t-8 -25q-16 -16 -33 -16q-4 0 -16 4q-29 18 -43 51l-4 4q-4 0 -13 -8q-53 -53 -102 -53q-16 0 -33 6q-63 20 -63 88v2zM524 860h90q88 0 125 78v47h-6 l-110 -47q0 -12 -78 -41l-21 -23v-14zM692 1317l21 -43l69 29v20h-90v-6zM698 1042l9 -6h26l15 15l-23 47h-12zM707 799l6 -8v-7q111 39 110 125v6h-6q-63 -41 -110 -110v-6zM776 967h21l14 14v12q0 10 -29 21l-6 -6v-41zM799 -59q18 10 26 14q8 6 9 8v180q0 25 -33 33 q80 41 125 68q20 -4 22 -51v-3q16 8 27 13l86 41q2 -8 26 -41q10 -10 13 -17q6 4 20.5 9.5t18.5 7.5l86 41q0 -6 24 -41q27 -37 27 -51v-181l4 -12q2 -6 33 -16v200q0 23 -35 33q92 45 127 68q23 -47 27 -51q8 2 24 10l115 41q14 -70 28 -115q10 -37 11 -59q0 -31 -13 -56 q-27 -57 -96 -96q-39 -20 -76 -31v-57q0 -2 5 -14q4 -10 36 -17q-43 -16 -86 -45q-16 -10 -30 -10q-37 0 -74 53q20 8 28.5 14.5t8.5 8.5v121q-27 -10 -82 -43q-12 -6 -25 -7q-27 0 -45 37v144q-4 31 -33 69q-12 -20 -14 -37v-133l4 -12q2 -6 35 -16q-25 -8 -86 -45 q-12 -6 -23 -7q-27 0 -45 37v144q-4 31 -32 69q-18 -14 -19 -37v-133l4 -12q2 -6 19 -16l-70 -43q-20 -10 -33 -11q-36 1 -69 52zM831 762h7l63 22v76h-6q-64 -32 -64 -98zM852 938l22 -23h7l14 15v8l-21 20h-8l-14 -14v-6zM936 762l8 -6v-8q23 8 41 36v27l-12 14l-37 -34 v-29zM936 889l8 -6h6l15 14l-15 12zM950 1448h23q195 231 237 301q-23 0 -22 20h-6q-113 -113 -113 -153q-119 -131 -119 -168zM965 1350h8l6 -7h6q0 33 90 134l162 223l-12 14l-66 -84q-171 -210 -194 -280zM1006 1176q68 -453 196 -490l-188 510h-8v-20zM1020 1343 l223 -643h408q84 229 188 609l-70 110q-162 248 -161 275h-336l-252 -344v-7zM1182 504l28 -8l146 69v8q0 12 -84 29q-35 0 -90 -92v-6zM1237 963v6q66 154 66 202q-43 90 -43 127q35 182 182 183h4q178 0 178 -183q0 -34 -49 -141v-6l70 -188h-408zM1257 657l15 -14h307 l72 6v8h-394zM1430 68q0 -23 14 -45q15 -25 37 -25q25 2 28 37q-4 33 -18 57q-10 16 -27 49q-34 -24 -34 -73zM1546 565l154 -69l20 8v6q-37 70 -84 92q-90 -16 -90 -29v-8zM1591 -59q20 8 28.5 14t8.5 8v385q0 23 -35 35q63 31 125 51q18 -28 43 -55q-18 -2 -18 -23v-159 q2 0 8 4t8 4l115 41q8 -39 18 -76q10 -27 21 -80q2 -6 2 -18q0 -45 -27 -101q-35 -76 -123 -139q43 80 43 150q0 25 -6 49q-20 86 -35 112q-16 -10 -24 -24v-148l4 -12q2 -6 35 -16q-31 -9 -86 -43q-20 -10 -33 -11q-39 1 -72 52zM1630 1708l182 -289q55 -84 91 -84l26 23 l-258 385zM1706 1743q195 -256 231 -287v6q-176 264 -231 301v-20zM1720 727h9q98 0 167 449q-6 49 -22 49q-43 -53 -154 -463v-35zM1903 811q0 -33 55 -63l8 8v35l-49 40q-14 0 -14 -20zM1927 29q0 41 15 69q27 59 131 105l114 41q6 -39 29 -115q10 -29 10 -59.5t-12 -55.5 q-27 -57 -96 -96q-70 -33 -103 -33h-8q-43 4 -68 72q-12 37 -12 72zM1937 897l15 -14l14 14l-22 12l-7 -8v-4zM2001 784l63 -22h7v8q0 55 -64 90h-6v-76zM2007 930l14 -15h7l22 23v6l-14 14h-8l-21 -20v-8zM2046 68q0 -23 14 -45q16 -25 37 -25q29 4 29 37q-2 29 -21 57 l-24 49q-35 -24 -35 -73zM2079 909q0 -86 110 -125l6 7v14q-47 70 -110 110h-6v-6zM2091 981l14 -14h21v32l-21 23l-14 -14v-27zM2120 1303l69 -29l21 43v6h-90v-20zM2148 1057l21 -21h20l15 15l-15 47h-20q-21 -6 -21 -41zM2163 967q0 -90 116 -107h99v14q-23 29 -99 56 q0 20 -84 37l-26 18h-6v-18zM2222 -59q20 8 28.5 14t8.5 8v180q0 23 -35 33q86 41 125 68q20 -4 23 -51v-3l28 13l115 41q16 -74 16 -76q14 -39 23 -98q2 -8 2 -23q0 -51 -39 -113q-45 -74 -127 -143q51 94 51 180q0 14 -4 43q-20 109 -29 127q-35 -25 -34 -53h-2v-117 l4 -12q2 -6 37 -16q-27 -8 -84 -43q-20 -10 -33 -11q-37 1 -74 52zM2349 1106l23 -23h90l14 15v8l-104 20l-23 -6v-14zM2560 131q0 18 10 39q12 18 29 27l8 4v65q0 61 39 113q35 47 127 53q-51 -53 -51 -158v-86q16 6 45 23q8 -18 8 -41t-8 -39q-10 -16 -29 -25 q-12 -4 -16 -4v-88q2 -31 26 -30q16 0 35 10q-23 -49 -76 -90q-18 -12 -36 -13q-41 0 -99 50q20 8 29 14q6 4 6 8v150q-8 -4 -37 -21q-10 25 -10 39z" />
<glyph unicode="&#x2026;" horiz-adv-x="2146" d="M100 76q0 39 27 63q31 27 63.5 27t63.5 -27q27 -25 27 -63.5t-27 -63.5q-31 -27 -63.5 -26.5t-63.5 26.5q-27 25 -27 64zM782 76q0 39 27 63q31 27 63.5 27t63.5 -27q27 -25 27 -63.5t-27 -63.5q-31 -27 -63.5 -26.5t-63.5 26.5q-27 25 -27 64zM1466 76q0 39 27 63 q31 27 63.5 27t63.5 -27q27 -25 27 -63.5t-27 -63.5q-31 -27 -63.5 -26.5t-63.5 26.5q-27 25 -27 64z" />
<glyph unicode="&#x202f;" horiz-adv-x="376" />
<glyph unicode="&#x2030;" horiz-adv-x="1771" d="M80 983q0 96 67.5 163.5t164 67.5t164 -67.5t67.5 -163.5q0 -94 -67.5 -161.5t-164 -67.5t-164 67.5t-67.5 161.5zM115 53l917 1313l76 -51l-920 -1313zM168 983q0 -59 41 -100q43 -43 102 -43q57 0 100.5 43t43.5 100q0 59 -43 102t-101 43q-59 0 -102 -43 q-41 -41 -41 -102zM680 385q0 94 67.5 161.5t164 67.5t164 -67.5t67.5 -161.5q0 -96 -67.5 -163.5t-164 -67.5t-164 67.5t-67.5 163.5zM768 385q0 -61 41 -102q43 -43 102 -43q57 0 100.5 43t43.5 102q0 57 -43 100t-101 43q-59 0 -102 -43q-41 -41 -41 -100zM1231 385 q0 94 67.5 161.5t161.5 67.5q96 0 164 -67.5t68 -161.5q0 -96 -68 -163.5t-164 -67.5q-94 0 -161.5 67.5t-67.5 163.5zM1317 385q0 -59 43 -102t100 -43q59 0 102.5 43t43.5 102q0 57 -43 100t-103 43q-57 0 -100 -43t-43 -100z" />
<glyph unicode="&#x2039;" horiz-adv-x="628" d="M100 463l428 459v-105l-329 -354l329 -357v-106z" />
<glyph unicode="&#x203a;" horiz-adv-x="628" d="M100 0v106l330 357l-330 354v105l428 -459z" />
<glyph unicode="&#x2044;" horiz-adv-x="1089" d="M49 170l920 1311l71 -51l-915 -1311z" />
<glyph unicode="&#x2215;" horiz-adv-x="1089" d="M49 170l920 1311l71 -51l-915 -1311z" />
<glyph unicode="&#x205f;" horiz-adv-x="471" />
<glyph unicode="&#x20a3;" horiz-adv-x="1011" d="M49 379v90h164v1130h698v-90h-610v-663h610v-90h-610v-287h289v-90h-289v-379h-88v379h-164z" />
<glyph unicode="&#x20a4;" horiz-adv-x="1128" d="M100 20q133 119 156 150q104 123 109 285h-238v90h229q-12 78 -24 121h-205v90h172q-31 66 -37 78q-109 180 -125 344q-2 12 -2 36q0 139 92 250q104 123 267 138q6 0 18 1t18 1q139 0 250 -93q123 -104 140 -268q4 -29 4 -43q0 -59 -23 -115l-86 29q14 41 14 96v27 q-12 127 -106 205q-82 70 -191 69q-4 0 -14 -1t-14 -1q-127 -12 -205 -104q-70 -82 -70 -191q0 -6 1 -14t1 -14q8 -109 78 -256q53 -88 86 -174h234v-90h-203q16 -63 23 -121h180v-90h-174q-6 -197 -170 -392q123 45 245 46q68 0 144 -17q102 -23 188 -22q88 0 152 16 l16 -88q-76 -20 -168 -21q-82 0 -182 23q-94 20 -174 20q-74 0 -117 -16q-90 -33 -203 -88z" />
<glyph unicode="&#x20a7;" horiz-adv-x="1853" d="M150 0v1599h378q166 -25 281 -151q137 -152 137 -371q0 -35 -8 -96h86v420h88v-420h250q55 33 119 33q98 0 161 -64q61 -66 62 -143v-4l-78 -33q-8 78 -47 115q-39 39 -98 39q-61 0 -104.5 -43t-43.5 -105q0 -59 43 -102q18 -18 107 -76q127 -70 182 -125q84 -84 84 -205 q0 -123 -84 -207q-86 -86 -207 -86q-119 0 -205 86t-86 189l90 22q0 -88 59.5 -147t141.5 -59q84 0 143.5 59t59.5 143t-59 144q-37 37 -129 94q-117 63 -158 104q-70 70 -70 166q0 63 29 117h-162v-893h-88v893h-106q-33 -100 -109 -184q-137 -154 -334 -154h-244v-555h-81 zM231 645h244q160 0 274.5 127t114.5 305t-114.5 305t-274.5 127h-244v-864z" />
<glyph unicode="&#x20ac;" horiz-adv-x="1449" d="M100 586l19 90h149v119h-127l19 90h108v166q0 229 160 388.5t389 159.5q227 0 387 -159l-65 -68q-131 131 -321.5 131t-321.5 -131q-133 -133 -134 -321v-166h658l-19 -90h-639v-119h617l-18 -90h-599v-66q0 -186 133.5 -319t322 -133t321.5 133q82 82 112 184h99 q-33 -139 -146 -252q-162 -162 -387 -162q-227 0 -389 162q-160 160 -160 387v66h-168z" />
<glyph unicode="&#x2116;" horiz-adv-x="2052" d="M125 0v1599h98l824 -1423v1423h90v-1599h-90l-832 1438v-1438h-90zM1212 1329q0 115 80 195t195 80h29q115 0 194 -80q82 -82 82 -194.5t-82 -194.5q-80 -80 -194 -80h-29q-115 0 -195 79.5t-80 194.5zM1219 911v35h675v596h35v-631h-710zM1288 1329q0 -80 60 -139 q57 -53 153 -60q98 6 156 60q57 57 57 139t-57 139q-57 53 -156 60q-96 -6 -153 -60q-60 -59 -60 -139z" />
<glyph unicode="&#x2122;" horiz-adv-x="1249" d="M100 1556v52h453l266 -410l266 410h66l-8 -13v-643h-58v555l-266 -409l-266 409v-555h-55v604h-158v-604h-57v604h-183z" />
<glyph unicode="&#x2212;" horiz-adv-x="1048" d="M125 547v90h801v-90h-801z" />
<glyph unicode="&#x221e;" horiz-adv-x="1216" d="M90 522q0 29 2 43q15 200 160 344q162 162 387 162q227 0 389 -162q47 -47 98 -161l-940 -252q8 -170 133 -295q133 -133 320 -133q188 0 322 133q10 10 30 35l96 -33q-20 -31 -59 -70q-162 -162 -389 -162q-225 0 -387 162q-145 145 -160 340q-2 16 -2 49zM190 590 l801 215l-30 39q-131 131 -322 131q-188 0 -320 -131q-109 -109 -129 -250v-4z" />
<glyph unicode="&#x2248;" horiz-adv-x="1275" d="M125 547q4 51 22 96q47 113 156 150q23 8 55 8q104 0 281 -101q188 -109 272 -108q10 0 27 4q78 23 109 98q14 35 14 78l90 -14q-2 -43 -23 -96q-47 -113 -155 -150q-16 -6 -55 -6q-106 0 -279 98q-193 109 -274 109q-16 0 -25 -2q-78 -23 -109 -101q-16 -43 -16 -78z M125 842q4 51 22 96q47 113 156 149q23 8 55 9q104 0 281 -101q188 -109 272 -108q10 0 27 4q78 23 109 98q14 35 14 78l90 -14q-2 -43 -23 -97q-47 -111 -155 -147q-23 -8 -55 -8q-106 0 -279 98q-193 109 -274 109q-16 0 -25 -2q-78 -23 -109 -101q-16 -43 -16 -78z" />
<glyph unicode="&#x2264;" horiz-adv-x="1347" d="M100 563l1149 418v-96l-887 -322l887 -321v-97zM150 0v90h1099v-90h-1099z" />
<glyph unicode="&#x2265;" horiz-adv-x="1347" d="M100 0v90h1100v-90h-1100zM100 145v97l885 321l-885 322v96l1149 -418z" />
<glyph unicode="&#xe000;" horiz-adv-x="980" d="M0 980h980v-980h-980v980z" />
</font>
</defs>
</svg>
