<?xml version="1.0" standalone="no"?>
<!DOCTYPE svg PUBLIC "-//W3C//DTD SVG 1.1//EN" "http://www.w3.org/Graphics/SVG/1.1/DTD/svg11.dtd" >
<svg xmlns="http://www.w3.org/2000/svg">
<metadata>
This is a custom SVG webfont generated by Font Squirrel.
Copyright   : Typeface  your company 2009 All Rights Reserved
Designer    : Lauren Thompson
</metadata>
<defs>
<font id="webfontLKJdiVIC" horiz-adv-x="1153" >
<font-face units-per-em="2048" ascent="1638" descent="-410" />
<missing-glyph horiz-adv-x="706" />
<glyph unicode=" "  horiz-adv-x="706" />
<glyph unicode="&#x09;" horiz-adv-x="706" />
<glyph unicode="&#xa0;" horiz-adv-x="706" />
<glyph unicode="!" horiz-adv-x="458" d="M125 92q0 43 30.5 74t73.5 31t74 -31q33 -33 33 -74t-33 -74q-31 -31 -74 -30q-43 0 -73.5 30.5t-30.5 73.5zM166 254v1262h125v-1262h-125z" />
<glyph unicode="&#x22;" horiz-adv-x="591" d="M125 918v595h127v-595h-127zM342 918v595h127v-595h-127z" />
<glyph unicode="#" horiz-adv-x="1597" d="M125 528l33 127h409l41 168h-409l32 127h408l102 410h129l-102 -410h168l100 410h129l-102 -410h410l-33 -127h-410l-41 -168h410l-33 -127h-410l-102 -407h-127l102 407h-165l-103 -407h-129l103 407h-410zM694 655h166l43 168h-168z" />
<glyph unicode="$" horiz-adv-x="991" d="M100 446l119 43q12 -129 82 -194q72 -72 137 -78v610q-82 35 -149 103q-84 84 -84 204.5t84 204.5q70 72 149 82v152h127v-156q70 -12 137 -78q45 -45 74 -127l-112 -45q-23 61 -50 88q-35 33 -49 35v-383q113 -45 211 -139q117 -117 117 -279q0 -164 -117 -280 q-96 -96 -211 -113v-131h-127v129q-117 8 -223 115q-92 94 -115 237zM328 1135q0 -70 49 -119q35 -35 61 -51v331q-20 -2 -61 -43q-49 -48 -49 -118zM565 221q59 8 125 74q80 80 80 194q0 113 -80 193q-63 63 -125 92v-553z" />
<glyph unicode="%" horiz-adv-x="1179" d="M80 927.5q0 96.5 70 166.5q68 68 166 67.5t165.5 -68t67.5 -166t-68 -165.5q-70 -70 -166 -70t-165.5 69.5t-69.5 166zM102 66l871 1243l104 -72l-868 -1243zM205 928q0 -47 31 -78q33 -33 79 -33q41 0 78 33q33 31 33 78q0 45 -33 77.5t-78 32.5q-49 0 -79 -32 q-31 -35 -31 -78zM633 374.5q0 98.5 67 166.5q70 70 166.5 69.5t166 -70t69.5 -165.5t-70 -166q-68 -68 -166 -68t-165.5 67.5t-67.5 166zM756 375q0 -45 32.5 -78t77.5 -33q41 0 78 33q33 31 33 78q0 45 -33 77.5t-78 32.5q-47 0 -78 -32q-32 -37 -32 -78z" />
<glyph unicode="&#x26;" horiz-adv-x="1255" d="M76 442q0 188 131 328q86 96 178 127q-16 6 -90 86q-76 82 -76 217q0 137 98.5 235.5t237.5 98.5q137 0 236 -98q55 -51 81 -138l-114 -45q-20 59 -58 97q-59 59 -145 59t-147.5 -61.5t-61.5 -147.5t62 -149q63 -68 110 -84q57 -20 152 -21v-119l-86 -4 q-195 -37 -287 -139q-96 -106 -96 -242q0 -141 96 -237t235 -96q137 0 236 98q55 55 74 106l-6 4q-49 29 -115 99q-49 43 -57 47q-14 8 -31 8q-10 0 -17 -2q-25 -6 -36 -29q-8 -14 -9 -28q0 -12 2 -19q6 -23 25 -33q16 -8 39 -8q12 0 61 6l-12 -116q-39 -12 -65 -13 q-43 0 -84 23q-59 31 -82 108q-8 33 -9 52q0 47 25 90q35 63 113 86q33 8 51 8q41 0 88 -27q41 -23 100 -84q47 -45 74 -59q20 -12 45 -12q8 0 29 4q37 8 59 45q12 25 12 47q0 6 -4 27q-8 37 -45 59q-18 10 -47 10q-20 0 -69 -14l-3 127q46 12 74 12q53 0 107 -29 q80 -47 104 -133q8 -27 8 -59q0 -55 -30 -109q-45 -78 -133 -102l-37 -8q-28 -89 -111 -172q-135 -135 -324 -135q-190 0 -323 132.5t-133 325.5z" />
<glyph unicode="'" horiz-adv-x="376" d="M125 918v595h127v-595h-127z" />
<glyph unicode="(" horiz-adv-x="706" d="M100 757.5q0 409.5 193 651.5q129 162 313 223v-127q-129 -59 -227 -182q-164 -205 -164 -565.5t164 -564.5q98 -123 227 -187v-123q-184 61 -313 223q-193 242 -193 651.5z" />
<glyph unicode=")" horiz-adv-x="706" d="M100 6q131 63 230 187q162 201 162 565t-162 565q-96 121 -230 182v127q188 -63 314 -223q193 -238 192.5 -651.5t-192.5 -651.5q-125 -160 -314 -223v123z" />
<glyph unicode="*" horiz-adv-x="817" d="M127 1096l172 118l-172 119l74 105l145 -101v176h125v-176l145 101l72 -105l-170 -119l170 -118l-72 -105l-145 103v-176h-125v176l-145 -103z" />
<glyph unicode="+" horiz-adv-x="1028" d="M125 504v127h328v325h125v-325h327v-127h-327v-328h-125v328h-328z" />
<glyph unicode="," horiz-adv-x="419" d="M10 -201l107 398h205l-193 -398h-119z" />
<glyph unicode="-" horiz-adv-x="835" d="M125 504v127h588v-127h-588z" />
<glyph unicode="." horiz-adv-x="409" d="M100 92q0 43 31 74t74 31t73.5 -31t30.5 -74t-30.5 -73.5t-73.5 -30.5t-74 30.5t-31 73.5z" />
<glyph unicode="/" horiz-adv-x="727" d="M-49 0l686 1516h141l-686 -1516h-141z" />
<glyph unicode="0" horiz-adv-x="1204" d="M76 502v487q0 217 155 373q154 154 371 154q221 0 374.5 -154t153.5 -373v-487q0 -219 -153 -373q-156 -156 -375 -156q-215 0 -370.5 156t-155.5 373zM207 502q0 -166 117 -281q119 -115 278 -115q162 0 281 115q117 115 116 281v487q0 162 -116.5 278.5t-280.5 116.5 q-162 0 -278.5 -116.5t-116.5 -278.5v-487z" />
<glyph unicode="1" horiz-adv-x="1300" d="M532 1327l148 189h88v-1516h-127v1327h-109z" />
<glyph unicode="2" horiz-adv-x="1218" d="M152 1128q25 166 131 273q135 135 325 135q193 0 328 -135q133 -133 133 -328q0 -190 -131 -330q-76 -84 -205 -182l-264 -199q-141 -106 -168 -235h768v-127h-913q46 319 202 436l273 203q109 80 211 192q96 106 96 242q0 139 -96.5 235.5t-233.5 96.5q-135 0 -231 -96 q-82 -82 -98 -226z" />
<glyph unicode="3" horiz-adv-x="1218" d="M152 387l127 45q14 -139 98 -223q98 -98 231 -98q137 0 233.5 96t96.5 235q0 137 -94 240q-92 102 -287 139l-88 2v127q98 0 153.5 20.5t110.5 82.5q59 66 60 147q0 86 -62 146q-66 61 -143 61q-82 0 -146 -59q-33 -33 -57 -99l-119 47q27 88 84 142q98 98 237.5 98 t238 -98.5t98.5 -237.5t-74 -219t-84 -84q82 -29 172 -125q131 -139 131 -330q0 -195 -133 -327q-135 -135 -328 -135q-188 0 -325 137q-106 106 -131 270z" />
<glyph unicode="4" horiz-adv-x="1236" d="M172 430l635 1086h117v-959h141v-127h-141v-430h-127v430h-625zM393 557h404v680z" />
<glyph unicode="5" horiz-adv-x="1218" d="M117 217l90 98q88 -131 229 -174q61 -20 125 -20q98 0 191 49q152 80 200 246q20 72 21 123q0 98 -49 190q-80 151 -246 209q-72 25 -158 25q-121 0 -264 -48l-86 76l172 477v48h504v-127h-397l-115 -318q2 2 61 14q68 10 119 11q106 0 203 -33q213 -74 319 -272 q68 -129 68 -252q0 -72 -27 -162q-66 -217 -264 -324q-119 -63 -250 -63q-76 0 -166 26q-176 54 -280 201z" />
<glyph unicode="6" horiz-adv-x="1206" d="M74 465q8 352 159 561q170 236 367 455l31 35h170q-37 -47 -68 -82q-246 -279 -383 -471q59 66 256 65q219 0 373 -153.5t154 -372.5t-154 -373q-156 -156 -373 -156t-373 156q-147 147 -153 336h-6zM211 502q0 -168 115 -281q119 -115 280.5 -115t280.5 115 q115 113 114 281q0 164 -114 278q-117 117 -281 117t-280 -117q-115 -114 -115 -278z" />
<glyph unicode="7" horiz-adv-x="1218" d="M154 0q10 354 159 563q162 225 365 451q217 242 244 375h-768v127h913q-6 -266 -252 -543q-250 -281 -383 -471q-141 -199 -149 -502h-129z" />
<glyph unicode="8" horiz-adv-x="1210" d="M106 442q0 186 134 330q92 98 172 125q-10 2 -86 84q-74 80 -74 219t98.5 237.5t239.5 98.5h33q139 0 237 -98.5t98 -237.5t-73 -219q-76 -82 -86 -84q82 -27 174 -125q131 -139 131 -330q0 -193 -135 -327.5t-326 -134.5q-6 0 -18.5 1t-18.5 1t-18.5 -1t-20.5 -1 q-190 0 -325.5 134.5t-135.5 327.5zM238 442q0 -141 96 -235q100 -96 233 -96q25 0 37 2h4q12 -2 35 -2q133 0 234 96q98 96 98 235q0 133 -96 240q-92 100 -273 137q-184 -37 -274 -137q-94 -103 -94 -240zM385 1200q0 -82 59 -147q57 -61 109 -82q16 -6 53 -15q33 6 51 15 q55 20 111 82q57 63 57 147q0 86 -59 146q-61 61 -143 61q-2 0 -7.5 -1t-7.5 -1h-6q-2 0 -6 1t-6 1q-84 0 -146 -61q-59 -60 -59 -146z" />
<glyph unicode="9" horiz-adv-x="1206" d="M74 989q0 219 153.5 373t372.5 154t373 -154q147 -147 153 -336h7q-8 -354 -160 -563q-162 -225 -367 -453l-31 -37h-169l67 84q244 274 381 469q-59 -66 -254 -65q-217 0 -373 155q-153 154 -153 373zM205 989q0 -166 114.5 -280.5t280.5 -114.5t280.5 114.5 t114.5 280.5q0 164 -114 279q-117 117 -281 116.5t-281 -116.5q-114 -115 -114 -279z" />
<glyph unicode=":" horiz-adv-x="458" d="M125 92q0 43 30.5 74t73.5 31t74 -31q33 -33 33 -74t-33 -74q-31 -31 -74 -30q-43 0 -73.5 30.5t-30.5 73.5zM125 659q0 43 30.5 74t73.5 31t74 -31q33 -33 33 -74t-33 -73q-31 -31 -74 -31t-73.5 30.5t-30.5 73.5z" />
<glyph unicode=";" horiz-adv-x="518" d="M84 -201l106 398h203l-190 -398h-119zM127 659q0 41 33 74q31 31 73 31q43 0 74 -31t31 -74t-31 -73.5t-74 -30.5t-73 31q-33 32 -33 73z" />
<glyph unicode="&#x37e;" horiz-adv-x="518" d="M84 -201l106 398h203l-190 -398h-119zM127 659q0 41 33 74q31 31 73 31q43 0 74 -31t31 -74t-31 -73.5t-74 -30.5t-73 31q-33 32 -33 73z" />
<glyph unicode="&#x3c;" horiz-adv-x="1341" d="M100 541l1143 415v-135l-772 -280l772 -283v-133z" />
<glyph unicode="=" horiz-adv-x="1028" d="M125 356v127h780v-127h-780zM125 649v127h780v-127h-780z" />
<glyph unicode="&#x3e;" horiz-adv-x="1341" d="M100 125v133l772 283l-772 280v135l1143 -415z" />
<glyph unicode="?" horiz-adv-x="944" d="M127 1114v29q0 59 33 129q59 123 190 170q49 18 113 18q76 0 143 -33q121 -61 168 -190q20 -53 21 -111q0 -70 -35 -143q-59 -123 -193 -225q-102 -90 -155 -203q-35 -74 -35 -143q0 -59 26 -133l-118 -41q-33 96 -33 174q0 98 47 196q76 158 227 273q80 78 119 157 q23 45 23 90q0 34 -13 68q-27 80 -106 119q-41 20 -88 20q-35 0 -70 -12q-82 -29 -119 -104q-20 -41 -20 -111zM227 92q0 43 31 74t74 31t73.5 -31t30.5 -74t-30.5 -73.5t-73.5 -30.5t-74 30.5t-31 73.5z" />
<glyph unicode="@" horiz-adv-x="1558" d="M125 524q0 272 192.5 465t462.5 193q272 0 463 -193q193 -197 193 -465q0 -121 -90 -264q-88 -139 -205 -139q-20 0 -29 2q-94 20 -102 113v20q-82 -86 -230 -86q-145 0 -252 106q-104 104 -104 250q0 147 104 252q106 106 252 107q150 0 230 -84v71h118v-614 q10 -23 27 -22q29 0 96 94q68 96 68 194q0 223 -157.5 381t-381.5 158q-221 0 -379 -158q-156 -156 -155 -381q0 -221 155 -377q158 -158 379 -157q154 0 236 51l84 -88q-137 -82 -320 -82q-270 0 -462.5 192.5t-192.5 460.5zM549 526q0 -98 67 -166q70 -70 166.5 -69.5 t165.5 69.5q49 49 64 109v117q-14 59 -64 108q-68 70 -166 70t-166 -70q-67 -72 -67 -168z" />
<glyph unicode="A" horiz-adv-x="1257" d="M49 0l582 1591l577 -1591h-135l-205 563h-479l-205 -563h-135zM436 690h387l-192 533z" />
<glyph unicode="B" horiz-adv-x="1042" d="M150 0v1516h247v2h35q123 0 211 -88q86 -86 86 -209q0 -125 -90 -199q66 -16 162 -121q154 -154 153 -373q0 -217 -153 -376q-145 -150 -322 -152h-329zM276 127h203q125 10 228 119q117 120 116 282q0 164 -116.5 281t-280.5 117h-150v-799zM276 1057h177q59 6 104 47 q49 47 49 117q0 74 -49 120q-51 47 -125 48h-156v-332z" />
<glyph unicode="C" horiz-adv-x="1538" d="M125 757.5q0 321.5 227.5 549t546.5 227.5q303 0 541 -217l-94 -88q-199 176 -447 176q-266 0 -455 -188q-190 -190 -190 -459t190 -459q188 -188 455 -188q248 0 447 176l94 -86q-238 -217 -541 -217q-322 0 -547 225q-227 227 -227 548.5z" />
<glyph unicode="D" horiz-adv-x="1165" d="M150 0v1516h126v-3h-16q373 0 580 -206q227 -227 227 -549t-227 -549q-207 -207 -580 -207h16v-2h-126zM276 129q303 0 474 170q188 188 188 458.5t-188 459.5q-170 170 -474 169v-1257z" />
<glyph unicode="E" horiz-adv-x="1054" d="M150 0v1516h780v-127h-654v-568h654v-127h-654v-567h654v-127h-780z" />
<glyph unicode="F" horiz-adv-x="962" d="M150 0v1516h688v-127h-562v-568h562v-127h-562v-694h-126z" />
<glyph unicode="G" horiz-adv-x="1564" d="M125 757.5q0 321.5 227.5 549t546.5 227.5q303 0 541 -217l-94 -88q-199 176 -447 176q-266 0 -455 -188q-190 -190 -190 -459t190 -459q188 -188 455 -188q231 0 397 135v459h127v-508q-225 -213 -524 -213q-322 0 -547 225q-227 227 -227 548.5z" />
<glyph unicode="H" horiz-adv-x="1124" d="M150 0v1516h126v-730h574v730h127v-1516h-127v659h-574v-659h-126z" />
<glyph unicode="I" horiz-adv-x="466" d="M170 0v1516h127v-1516h-127z" />
<glyph unicode="J" horiz-adv-x="854" d="M125 276l127 33q0 -100 47 -147t117 -47q68 0 114 47q43 43 43 110v15v1229h127v-1242q0 -121 -79 -200q-86 -86 -205 -86q-123 0 -207 83.5t-84 204.5z" />
<glyph unicode="K" horiz-adv-x="1089" d="M150 0v1516h126v-582l439 582h159l-456 -615l583 -901h-155l-512 799l-58 -72v-727h-126z" />
<glyph unicode="L" horiz-adv-x="935" d="M150 0v1516h126v-1389h572v-127h-698z" />
<glyph unicode="M" horiz-adv-x="1669" d="M150 1516h145l541 -934l538 934h146l-19 -33v-1483h-127v1262l-538 -932l-539 932v-1262h-127v1483z" />
<glyph unicode="N" horiz-adv-x="1273" d="M150 0v1516h126l721 -1250v1250h127v-1516h-116l-732 1262v-1262h-126z" />
<glyph unicode="O" horiz-adv-x="1804" d="M125 760q0 322 227.5 549t548.5 227q324 0 551 -227.5t227 -549t-227 -548.5t-551 -227q-322 0 -549 227t-227 549zM254 760q0 -268 190.5 -458.5t456.5 -190.5q270 0 461 190q188 188 188 458.5t-188 459.5q-190 190 -461 190q-266 0 -456.5 -190.5t-190.5 -458.5z" />
<glyph unicode="P" horiz-adv-x="1060" d="M150 0v1516h409q178 -25 301 -148q147 -147 148 -354q0 -209 -148 -357q-145 -145 -354 -145h-230v-512h-126zM276 639h230q156 0 264 109q111 111 111 266q0 154 -111 264.5t-264 110.5h-230v-750z" />
<glyph unicode="Q" horiz-adv-x="1804" d="M125 760q0 322 227.5 549t548.5 227q324 0 551 -227.5t227 -549t-227 -548.5q-160 -164 -307 -195l127 -67q72 -39 102 -49q10 -4 33 -4q31 0 53 14q41 23 53 67q4 12 7 46h127q-4 -57 -11 -78q-29 -96 -114 -146q-55 -31 -113 -30q-31 0 -68 10q-51 14 -161 82 q-88 47 -129 57q-25 6 -47 6q-41 0 -76 -20q-57 -33 -78 -101q-3 -9 -6 -36h-127q2 41 10 71q31 115 137 176l-61 -30q-229 4 -451 227q-227 227 -227 549zM254 760q0 -268 190.5 -458.5t456.5 -190.5q270 0 461 190q188 188 188 458.5t-188 459.5q-190 190 -461 190 q-266 0 -456.5 -190.5t-190.5 -458.5z" />
<glyph unicode="R" horiz-adv-x="1060" d="M150 0v1516h409q178 -25 301 -148q147 -147 148 -354q0 -209 -148 -357q-102 -102 -205 -127l346 -530h-155l-340 512h-230v-512h-126zM276 639h230q156 0 264 109q111 111 111 266q0 154 -111 264.5t-264 110.5h-230v-750z" />
<glyph unicode="S" horiz-adv-x="1011" d="M49 385l121 43q14 -135 100 -221q98 -98 236 -98q139 0 235.5 96t96.5 237q0 137 -97 234q-86 86 -217 139q-162 55 -258 151.5t-96 233.5t98.5 235.5t237.5 98.5q137 0 235 -98q55 -51 82 -138l-114 -45q-20 59 -58 97q-59 59 -145 59t-148 -61q-59 -59 -59 -148 q0 -86 59.5 -145.5t165.5 -108.5q180 -57 305 -182q133 -131 134 -322q0 -193 -133.5 -325.5t-324 -132.5t-325.5 135q-106 106 -131 266z" />
<glyph unicode="T" horiz-adv-x="970" d="M49 1389v127h873v-127h-373v-1389h-125v1389h-375z" />
<glyph unicode="U" horiz-adv-x="1304" d="M150 489v1027h129v-1027q0 -156 108 -264q111 -111 266 -110q154 0 264.5 110.5t110.5 263.5v1027h127v-1082q-25 -178 -147 -301q-145 -145 -354.5 -145t-356.5 147t-147 354z" />
<glyph unicode="V" horiz-adv-x="1257" d="M49 1516h135l445 -1221l444 1221h135l-579 -1592z" />
<glyph unicode="W" horiz-adv-x="1601" d="M125 362v1154h127v-1145q0 -109 76 -183q78 -74 182 -73.5t182 73.5q25 25 45 60v1268h127v-1268q20 -35 45 -60q78 -74 182.5 -73.5t182.5 73.5q76 74 76 183v1145h127v-1154q-4 -152 -111 -262q-113 -113 -274 -112q-158 0 -273 110l-18 19l-19 -19 q-115 -111 -272 -110q-162 0 -272 112q-109 108 -113 262z" />
<glyph unicode="X" horiz-adv-x="1204" d="M49 0l479 831l-395 685h146l321 -560l326 560h145l-397 -685l481 -831h-145l-410 705l-405 -705h-146z" />
<glyph unicode="Y" horiz-adv-x="1271" d="M49 1516h148l440 -762l438 762h148l-525 -906v-610h-127v610z" />
<glyph unicode="Z" horiz-adv-x="1320" d="M150 0l802 1389h-786v127h1005l-802 -1389h786v-127h-1005z" />
<glyph unicode="[" horiz-adv-x="577" d="M125 -344v1860h330v-127h-203v-1606h203v-127h-330z" />
<glyph unicode="\" horiz-adv-x="727" d="M-49 1516h141l686 -1516h-141z" />
<glyph unicode="]" horiz-adv-x="577" d="M125 -217h203v1606h-203v127h330v-1860h-330v127z" />
<glyph unicode="^" horiz-adv-x="937" d="M100 981l310 535h120l310 -535h-148l-223 385l-221 -385h-148z" />
<glyph unicode="_" horiz-adv-x="1013" d="M25 16h964v-127h-964v127z" />
<glyph unicode="`" horiz-adv-x="714" d="M150 1229h229l186 -217h-133z" />
<glyph unicode="a" horiz-adv-x="1316" d="M125 502q0 219 153.5 372.5t372.5 153.5q223 0 389 -164v82h127v-946h-127v139q-168 -166 -389 -166q-217 0 -372 156q-154 154 -154 373zM256 502q0 -166 117 -281q119 -115 278 -115q162 0 281 115q88 90 108 201v160q-20 111 -108 198q-117 117 -281 117 q-162 0 -278.5 -116.5t-116.5 -278.5z" />
<glyph unicode="b" horiz-adv-x="1314" d="M150 0v1516h126v-650q168 162 387.5 162t372.5 -154q156 -156 156 -372.5t-155.5 -372.5t-373 -156t-387.5 164v-137h-126zM276 418q23 -111 109 -197q119 -115 279 -115q162 0 280 115q117 115 117 281q0 162 -117 278.5t-280 116.5q-162 0 -279 -117q-88 -88 -109 -194 v-168z" />
<glyph unicode="c" d="M90 502q0 219 153.5 372.5t372.5 153.5q221 0 375 -154q33 -33 74 -88l-129 -49q-23 29 -39 45q-119 115 -281 115q-164 0 -278 -115q-117 -117 -117 -280q0 -162 117 -279t278.5 -117t280.5 115q25 25 39 43l129 -45q-45 -61 -74 -90q-156 -156 -375 -156 q-217 0 -372 156q-154 154 -154 373z" />
<glyph unicode="d" horiz-adv-x="1316" d="M125 502q0 219 153.5 372.5t372.5 153.5q223 0 389 -164v652h127v-1516h-127v139q-168 -166 -389 -166q-217 0 -372 156q-154 154 -154 373zM256 502q0 -166 117 -281q119 -115 278 -115q162 0 281 115q88 90 108 201v160q-20 111 -108 198q-117 117 -281 117 q-162 0 -278.5 -116.5t-116.5 -278.5z" />
<glyph unicode="e" d="M90 502q0 219 153.5 372.5t372.5 153.5q186 0 328 -110q29 -25 47 -44l31 -32l-78 -76l-573 -573q95 -86 245 -87q162 0 281 115q25 25 39 43l129 -45q-45 -61 -74 -90q-156 -156 -375 -156q-217 0 -372 156q-154 154 -154 373zM221 502q0 -135 64 -217l549 549 q-82 63 -218 63q-164 0 -278 -115q-117 -116 -117 -280z" />
<glyph unicode="f" horiz-adv-x="532" d="M90 821v125h92v225q6 113 84 191q82 76 191 76q51 0 137 -29l-41 -117q-55 25 -88 25q-57 0 -109 -45q-43 -41 -47 -109v-217h185v-125h-185v-821h-127v821h-92z" />
<glyph unicode="g" horiz-adv-x="1320" d="M125 502q0 219 153.5 372.5t372.5 153.5t389 -164v82h127v-723q0 -211 -151 -362q-156 -156 -373 -156t-373 156q-29 29 -73 90l129 45q6 -8 39 -41q117 -117 278 -117q164 0 281 117q102 102 108 176l-6 -2q-156 -156 -375 -156q-217 0 -372 156q-154 154 -154 373z M256 502q0 -164 117 -281q115 -115 278 -115q166 0 281 115q84 84 106 195v170q-20 109 -106 194q-117 117 -281 117q-162 0 -278.5 -116.5t-116.5 -278.5z" />
<glyph unicode="h" horiz-adv-x="1040" d="M150 0v1516h126v-586q76 72 232 71q168 0 274.5 -106.5t110.5 -267.5v-627h-127v618q0 109 -78 182.5t-180 73.5q-106 0 -182 -73q-33 -33 -50 -66v-735h-126z" />
<glyph unicode="i" horiz-adv-x="458" d="M125 1163q0 43 30.5 74t73.5 31t74 -31q33 -33 33 -74t-33 -73q-31 -31 -74 -31t-73.5 30.5t-30.5 73.5zM166 0v946h127v-946h-127z" />
<glyph unicode="j" horiz-adv-x="477" d="M49 -86q111 12 111 106v926h127v-923q0 -213 -238 -236v127zM119 1163q0 43 30.5 74t73.5 31q45 0 76 -31t31 -74t-31 -73.5t-76 -30.5q-43 0 -73.5 30.5t-30.5 73.5z" />
<glyph unicode="k" horiz-adv-x="831" d="M150 0v1331h126v-653l220 268h163l-241 -299l364 -647h-153l-297 545l-56 -70v-475h-126z" />
<glyph unicode="l" horiz-adv-x="425" d="M150 0v1516h126v-1516h-126z" />
<glyph unicode="m" horiz-adv-x="1331" d="M150 0v946h126v10q45 45 164 45t205 -86l21 -20l22 20q86 86 205 86q123 0 205 -86q84 -84 86 -194v-721h-127v741q-4 43 -47 84q-49 49 -117 49q-66 0 -115 -49t-49 -118v-707h-127v741q-4 41 -47 84q-49 49 -115 49q-68 0 -114 -49q-43 -39 -50 -100v-725h-126z" />
<glyph unicode="n" horiz-adv-x="1052" d="M150 0v946h126v-26q82 82 242 81q168 0 274.5 -106.5t110.5 -267.5v-627h-127v618q0 109 -76 183q-78 74 -182 73.5t-182 -73.5q-41 -41 -60 -82v-719h-126z" />
<glyph unicode="o" horiz-adv-x="1232" d="M90 502q0 219 153.5 372.5t373 153.5t372.5 -154q156 -156 156 -372.5t-155.5 -372.5t-373 -156t-372.5 156q-154 154 -154 373zM221 502q0 -166 117 -281q119 -115 278 -115q162 0 281 115q117 115 117 281q0 162 -117 278.5t-281 116.5q-162 0 -278.5 -116.5 t-116.5 -278.5z" />
<glyph unicode="p" horiz-adv-x="1290" d="M150 -344v1290h126v-80q168 162 387.5 162t372.5 -154q156 -156 156 -372.5t-155.5 -372.5t-373 -156t-387.5 164v-481h-126zM276 418q20 -109 109 -197q115 -115 279 -115q166 0 280 115q117 117 117 281q0 162 -117 278.5t-280 116.5q-162 0 -279 -117 q-88 -88 -109 -194v-168z" />
<glyph unicode="q" horiz-adv-x="1290" d="M100 502q0 219 154 372.5t373 153.5t389 -164v82h127v-1290h-127v483q-168 -166 -389 -166q-217 0 -373 156q-154 154 -154 373zM231 502q0 -166 115 -281t281 -115t280 115q88 86 109 201v160q-20 111 -109 198q-117 117 -280.5 117t-280.5 -117q-115 -114 -115 -278z " />
<glyph unicode="r" horiz-adv-x="610" d="M150 0v946h126v-115q139 133 285 140v-135q-88 -2 -168 -82q-115 -115 -117 -267v-487h-126z" />
<glyph unicode="s" horiz-adv-x="798" d="M115 268l127 33q0 -104 47 -149q51 -47 117 -48q63 0 114 48q49 45 49 116q0 68 -49 117q-29 29 -114 84q-106 59 -150 100q-70 68 -70 168.5t70 170t168 69.5q100 0 166 -66q61 -61 61 -147v-19l-110 -45q-12 90 -41 119q-31 31 -76 31q-47 0 -80 -33t-33 -80t33 -80 q12 -12 94 -65q115 -61 172 -119q84 -88 84 -205q0 -121 -84 -205q-86 -86 -204 -86q-121 0 -207 86q-84 84 -84 205z" />
<glyph unicode="t" horiz-adv-x="673" d="M90 821v125h184v385h127v-385h185v-125h-185v-821h-127v821h-184z" />
<glyph unicode="u" horiz-adv-x="1077" d="M150 362v586h126v-577q0 -106 78 -181q76 -76 191 -75q102 0 180 73.5t78 182.5v577h127v-586q-2 -160 -111 -268q-106 -106 -274 -106q-178 0 -285 106q-108 108 -110 268z" />
<glyph unicode="v" horiz-adv-x="1056" d="M49 946h146l333 -721l334 721h146l-480 -999z" />
<glyph unicode="w" horiz-adv-x="1331" d="M150 268v678h126v-698q4 -43 50 -86q45 -47 114 -47q68 0 115 47q41 41 47 100v684h127v-665q0 -70 49 -119q47 -47 115 -47q70 0 117 47q43 41 47 86v698h127v-678q-2 -111 -86 -194q-82 -86 -205 -86q-121 0 -225 104q-104 -104 -228 -104q-121 0 -204 86 q-84 83 -86 194z" />
<glyph unicode="x" horiz-adv-x="888" d="M76 0l299 518l-248 428h145l172 -297l172 297h148l-248 -428l299 -518h-147l-224 385l-223 -385h-145z" />
<glyph unicode="y" horiz-adv-x="1005" d="M76 946h141l287 -616l287 616h141l-619 -1290h-129l254 532z" />
<glyph unicode="z" horiz-adv-x="1003" d="M150 0l466 809h-450v127h670l-467 -809h485v-127h-704z" />
<glyph unicode="{" horiz-adv-x="860" d="M166 528v113q33 0 100 39q98 55 129 166q18 65 19 135q0 39 -6 78q-14 80 -15 129q0 59 17 121q31 111 133 170q65 37 135 37q20 0 57 -7v-112q-40 6 -55 6q-41 0 -82 -23q-61 -35 -80 -100q-12 -49 -12 -111q0 -18 4 -55q14 -66 14 -141q0 -84 -20 -158 q-43 -152 -172 -229q129 -76 172 -232q20 -74 20 -155q0 -76 -14 -142q-4 -37 -4 -55q0 -61 12 -111q18 -66 80 -100q45 -23 84 -22q27 0 53 4v-113q-25 -4 -57 -4q-71 0 -135 37q-102 59 -133 172q-16 61 -17 121q0 47 15 127q6 39 6 77q0 71 -19 136q-31 111 -129 166 q-65 36 -100 36z" />
<glyph unicode="|" horiz-adv-x="425" d="M150 -344v1860h126v-1860h-126z" />
<glyph unicode="}" horiz-adv-x="860" d="M166 -227q27 -4 51 -4q39 0 84 22q61 35 80 100q12 49 12 111q0 37 -2 55q-14 66 -14 142q0 82 20 155q43 156 172 232q-129 78 -172 229q-20 74 -20 158q0 76 14 141q2 18 2 55q0 61 -12 111q-18 66 -80 100q-41 23 -82 23q-14 0 -53 -6v112q37 6 55 7q74 0 137 -37 q102 -57 134 -170q14 -55 14 -121q0 -61 -12 -129q-6 -39 -7 -78q0 -66 17 -135q31 -111 129 -166q68 -39 102 -39v-113q-39 0 -102 -36q-98 -55 -129 -166q-16 -70 -17 -136q0 -39 7 -77q12 -68 12 -127q0 -66 -14 -121q-31 -115 -134 -172q-63 -37 -137 -37q-31 0 -55 4 v113z" />
<glyph unicode="~" horiz-adv-x="1239" d="M125 653q4 74 22 117q47 113 158 150q23 8 57 8q104 0 269 -94q169 -98 239 -99q14 0 21 2q59 18 84 80q12 31 12 88l129 -20q-6 -68 -24 -117q-47 -111 -156 -147q-25 -8 -59 -9q-104 0 -267 95q-166 96 -241 96q-12 0 -19 -2q-59 -18 -84 -78q-14 -35 -14 -88z" />
<glyph unicode="&#xa1;" horiz-adv-x="458" d="M125 1427q0 45 30.5 76t73.5 31t74 -31q33 -33 33 -76q0 -41 -33 -73q-31 -31 -74 -31t-73.5 30.5t-30.5 73.5zM168 4v1262h127v-1262h-127z" />
<glyph unicode="&#xa2;" horiz-adv-x="1003" d="M98 999.5q0 178.5 127 305.5q94 94 207 116v152h127v-141q156 -4 279 -127q8 -8 65 -82l-121 -47q-20 29 -34 41q-88 88 -189 88v-613q98 0 189 90q20 20 34 39l121 -45q-45 -61 -65 -82q-123 -123 -279 -127v-141h-127v152q-109 18 -207 116q-127 127 -127 305.5z M225 999q0 -127 90 -217q63 -63 117 -75v585q-53 -12 -117 -75q-90 -91 -90 -218z" />
<glyph unicode="&#xa3;" horiz-adv-x="1110" d="M100 43q119 104 156 150q96 113 96 253q0 25 -2 39q0 6 -1 12.5t-2 10.5l-1 4h-213v125h186q-14 55 -59 141q-104 168 -117 326q-2 12 -2 37q0 133 90 241q102 121 261 136q6 0 17 1t17 1q135 0 244 -90q123 -106 137 -261q2 -14 2 -43q0 -70 -28 -133l-121 41 q20 55 20 101q0 4 -1 12t-1 12q-8 104 -90 172q-72 59 -160 60q-4 0 -12 -1t-12 -1q-104 -10 -172 -89q-59 -68 -60 -159v-27q10 -104 70 -227q84 -137 111 -250h186v-125h-164q4 -49 4 -59q0 -195 -108 -326q43 16 155 16q66 0 138 -16q84 -20 167 -21q66 0 156 23l25 -125 q-98 -25 -181 -24q-88 0 -172 20q-90 18 -155 18q-63 0 -101 -14q-92 -33 -198 -86z" />
<glyph unicode="&#xa4;" horiz-adv-x="1099" d="M100 715l129 129q-74 90 -73.5 231.5t73.5 231.5l-129 129l90 90l129 -129q90 74 231.5 73.5t231.5 -73.5l129 129l90 -90l-129 -129q74 -90 74 -231.5t-74 -231.5l129 -129l-90 -90l-129 129q-90 -74 -231 -74t-232 74l-129 -129zM283 1075q0 -90 53 -160q16 -20 24 -28 q18 -18 29 -27q70 -53 162 -53q90 0 160 53q20 16 30 27q4 4 25 28q53 70 53 160q0 92 -53 162q-4 4 -12.5 14.5t-12.5 14.5l-30 24q-70 53 -160 53q-92 0 -162 -53q-4 -4 -14 -12l-15 -12q-8 -8 -24 -29q-53 -70 -53 -162z" />
<glyph unicode="&#xa5;" horiz-adv-x="1271" d="M49 1516h148l438 -762l440 762h148l-451 -777h254v-127h-328v-67h328v-125h-328v-420h-127v420h-325v125h325v67h-325v127h254z" />
<glyph unicode="&#xa6;" horiz-adv-x="425" d="M150 -344v823h126v-823h-126zM150 690v826h126v-826h-126z" />
<glyph unicode="&#xa7;" horiz-adv-x="1124" d="M100 964.5q0 190.5 88 278.5q39 39 48 43q-2 10 -3 45q0 137 97 234q98 98 237.5 98t235.5 -96q53 -51 82 -140l-115 -45q-23 63 -55 97q-59 59 -148 59q-86 0 -145 -59q-61 -61 -62 -148q0 -84 62 -145q66 -61 164 -109q180 -57 305 -182q133 -131 133 -323.5 t-86 -278.5q-31 -31 -47 -43q2 -10 2 -45q0 -135 -98.5 -233.5t-237.5 -98.5t-235 96q-53 51 -82 140l114 45q20 -59 58 -97q59 -59 145 -59t147.5 61.5t61.5 145.5t-61 145q-70 68 -166 111q-180 57 -306 180q-133 133 -133 323.5zM225 964.5q0 -139.5 97 -235.5 q86 -86 217 -139q162 -55 256 -150q43 -43 51 -59l4 2q49 49 49 188.5t-96 235.5q-88 88 -215 139q-164 57 -256 150q-43 43 -51 59h-5q-51 -51 -51 -190.5z" />
<glyph unicode="&#xa8;" horiz-adv-x="735" d="M125 1163q0 43 30.5 74t73.5 31t74 -31q33 -33 33 -74t-33 -73q-31 -31 -74 -31t-73.5 30.5t-30.5 73.5zM401 1163q0 43 31 74t74 31t73.5 -31t30.5 -74t-30.5 -73.5t-73.5 -30.5t-74 30.5t-31 73.5z" />
<glyph unicode="&#xa9;" horiz-adv-x="1351" d="M98 578q0 236 170 405q168 168 405.5 168t405.5 -168t168 -405q0 -240 -168 -408t-405.5 -168t-405.5 168q-170 170 -170 408zM209 578q0 -195 135 -330q137 -137 329.5 -137t330.5 137q135 135 135 330q0 193 -135 327q-137 137 -330 137t-330 -137q-135 -134 -135 -327 zM358 578q0 135 95 229q96 96 231 96q137 0 231 -94q16 -16 56 -72l-105 -39q-18 25 -28 35q-63 63 -154 64q-88 0 -153.5 -65.5t-65.5 -153.5q0 -90 65 -156q63 -63 154 -64q92 0 156 64q8 8 26 33l105 -39q-43 -57 -56 -70q-96 -96 -231 -96t-231 96q-95 95 -95 232z" />
<glyph unicode="&#xaa;" horiz-adv-x="866" d="M100 840v622h72v-551h530v-71h-602zM231 1245q0 111 80 191t193 80q111 0 170 -62v23h94v-492h-94v29q-59 -41 -170 -41q-113 0 -193 79.5t-80 192.5zM328 1245q0 -74 51 -123q55 -51 125 -51q72 0 121 49q40 40 49 86v74q-10 51 -49 88q-49 51 -121 51q-74 0 -125 -51 t-51 -123z" />
<glyph unicode="&#xab;" horiz-adv-x="968" d="M100 446l447 480v-160l-297 -320l297 -319v-160zM416 446l454 480v-160l-297 -320l297 -319v-160z" />
<glyph unicode="&#xad;" horiz-adv-x="835" d="M125 504v127h588v-127h-588z" />
<glyph unicode="&#xae;" horiz-adv-x="1126" d="M100 1051q0 195 135.5 330t329.5 135q193 0 328 -135.5t135 -329.5q0 -193 -135 -328q-59 -55 -133 -92q-86 -43 -195 -43q-195 0 -330 135t-135 328zM197 1051q0 -154 106 -260q51 -47 113 -76q23 -10 51 -19q53 -14 98 -14q68 0 103 14l-105 164h-82v-100h-94v596h207 q86 -12 147 -74q72 -72 72 -172t-72 -176q-51 -51 -75 -57l92 -140q20 10 65 54q109 109 109 260q0 154 -109 262q-106 106 -258 106q-156 0 -262 -106t-106 -262zM481 958h84q63 0 108.5 45.5t45.5 106.5t-45 106.5t-109 45.5h-84v-304z" />
<glyph unicode="&#xaf;" horiz-adv-x="835" d="M125 1139v127h588v-127h-588z" />
<glyph unicode="&#xb0;" horiz-adv-x="768" d="M150 1280q0 98 69 168q68 68 166 68t165.5 -68t67.5 -168q0 -96 -67 -164q-70 -70 -166 -69.5t-165.5 70t-69.5 163.5zM258 1280q0 -47 39 -86t88 -39t88 39q37 37 37 86q0 53 -37 90t-88 37t-88 -37q-39 -39 -39 -90z" />
<glyph unicode="&#xb1;" horiz-adv-x="1028" d="M125 0v127h780v-127h-780zM125 504v127h328v325h125v-325h327v-127h-327v-328h-125v328h-328z" />
<glyph unicode="&#xb4;" horiz-adv-x="714" d="M150 1012l188 217h227l-282 -217h-133z" />
<glyph unicode="&#xb5;" horiz-adv-x="1028" d="M150 -344v1290h126v-688q16 -33 50 -65q76 -74 182 -74q100 0 180 76q49 49 68 106v645h125v-946h-125v72q-80 -80 -248 -80q-156 0 -232 71v-407h-126z" />
<glyph unicode="&#xb6;" horiz-adv-x="1095" d="M51 1098q0 207 148 354q123 123 299 147h53v3h496v-127h-80v-1819h-127v1819h-41v-1819h-127v938h-119q-207 0 -354.5 147.5t-147.5 356.5z" />
<glyph unicode="&#xb7;" horiz-adv-x="434" d="M125 758q0 39 26.5 65.5t65.5 26.5t65.5 -26.5t26.5 -65.5t-26.5 -65.5t-65.5 -26.5t-65.5 26.5t-26.5 65.5z" />
<glyph unicode="&#x2219;" horiz-adv-x="434" d="M125 758q0 39 26.5 65.5t65.5 26.5t65.5 -26.5t26.5 -65.5t-26.5 -65.5t-65.5 -26.5t-65.5 26.5t-26.5 65.5z" />
<glyph unicode="&#xb8;" horiz-adv-x="618" d="M164 -193l67 64q20 -10 37 -10h8q14 0 33 6q18 2 25 16v4q0 6 -6 15q-8 12 -29 14h-25q-25 0 -108 -6l82 133h106l-10 -31q82 0 111 -51q12 -25 12 -47q0 -31 -14 -59q-29 -55 -82 -74q-47 -14 -82 -14h-15q-53 1 -110 40z" />
<glyph unicode="&#xba;" horiz-adv-x="899" d="M100 840v622h72v-551h530v-71h-602zM231 1245q0 111 80 191t193 80h26q113 0 193 -80q78 -78 78 -191q0 -115 -78 -192q-80 -80 -193 -80h-26q-113 0 -193 79.5t-80 192.5zM328 1245q0 -74 51 -125q47 -47 137 -49q92 4 137 49q51 55 52 125q0 68 -52 123q-45 45 -137 51 q-90 -6 -135 -51q-53 -53 -53 -123z" />
<glyph unicode="&#xbb;" horiz-adv-x="968" d="M100 -33v160l295 319l-295 320v160l453 -480zM424 -33v160l295 319l-295 320v160l446 -480z" />
<glyph unicode="&#xbf;" horiz-adv-x="944" d="M152 393q0 76 32 144q59 121 195 225q102 90 156 203q35 74 34 145q0 57 -26 131l116 41q35 -100 35 -172q0 -104 -47 -199q-78 -160 -227 -272q-82 -78 -121 -158q-20 -43 -20 -90q0 -34 12 -67q27 -80 106 -119q41 -20 88 -21q35 0 70 13q82 29 119 104q20 41 20 111 l125 -6v-29q0 -57 -33 -127q-61 -126 -190 -172q-59 -18 -113 -19q-76 0 -143 33q-125 61 -170 191q-18 47 -18 110zM510 1427q0 45 30.5 76t73.5 31t74 -30.5t31 -76.5q0 -43 -31 -73.5t-74 -30.5t-73.5 30.5t-30.5 73.5z" />
<glyph unicode="&#xc0;" horiz-adv-x="1257" d="M49 0l582 1591l577 -1591h-135l-205 563h-479l-205 -563h-135zM299 1878h227l189 -215h-133zM436 690h387l-192 533z" />
<glyph unicode="&#xc1;" horiz-adv-x="1257" d="M49 0l582 1591l577 -1591h-135l-205 563h-479l-205 -563h-135zM436 690h387l-192 533zM545 1663l188 215h228l-283 -215h-133z" />
<glyph unicode="&#xc2;" horiz-adv-x="1257" d="M49 0l582 1591l577 -1591h-135l-205 563h-479l-205 -563h-135zM315 1579l254 260h113l264 -260h-155l-164 127l-156 -127h-156zM436 690h387l-192 533z" />
<glyph unicode="&#xc3;" horiz-adv-x="1257" d="M49 0l582 1591l577 -1591h-135l-205 563h-479l-205 -563h-135zM362 1626q29 162 111 184q23 6 45 7q57 0 121 -48q66 -49 98 -49h4q31 4 50 76h106q-25 -158 -111 -182q-20 -6 -45 -6q-59 0 -118 47q-66 49 -103 49h-4q-29 0 -47 -78h-107zM436 690h387l-192 533z" />
<glyph unicode="&#xc4;" horiz-adv-x="1257" d="M49 0l582 1591l577 -1591h-135l-205 563h-479l-205 -563h-135zM387 1731q0 43 31 73.5t74 30.5t73 -31q33 -33 33 -73.5t-33 -73.5q-31 -31 -73 -31q-43 0 -74 31t-31 74zM436 690h387l-192 533zM664 1731q0 43 30.5 73.5t73.5 30.5t73.5 -30.5t30.5 -73.5t-30.5 -74 t-73.5 -31t-73.5 31t-30.5 74z" />
<glyph unicode="&#xc5;" horiz-adv-x="1257" d="M49 0l522 1432q-10 2 -36 28q-39 39 -39 96q0 55 39 95q41 41 96 41q53 0 94 -41q39 -39 39 -95q0 -57 -39 -96q-25 -25 -37 -28l520 -1432h-135l-205 563h-479l-205 -563h-135zM436 690h387l-192 533zM598 1556.5q0 -12.5 10 -22.5q8 -8 15 -8h14q6 0 14 8t8 22.5 t-8 22.5t-20 8q-14 0 -23 -8q-10 -10 -10 -22.5z" />
<glyph unicode="&#xc6;" horiz-adv-x="1691" d="M125 0l659 1516h785v-127h-654v-568h654v-127h-654v-567h654v-127h-781v563h-276l-252 -563h-135zM561 690h227v527z" />
<glyph unicode="&#xc7;" horiz-adv-x="1538" d="M125 758q0 322 227.5 549t546.5 227q303 0 541 -217l-94 -88q-199 176 -447 176q-266 0 -455 -188q-190 -190 -190 -459t190 -459q188 -188 455 -188q248 0 447 176l94 -86q-227 -205 -482 -217l7 18q80 0 110 -49q12 -25 12 -49q0 -31 -14 -60q-31 -55 -82 -73 q-41 -12 -82 -13h-14q-53 2 -111 41l68 62q29 -8 37 -8h8q8 0 33 4q18 6 24 16q2 4 2 12v2q-14 16 -36 21h-23q-29 0 -111 -6l52 82q-267 9 -486 227q-227 228 -227 547z" />
<glyph unicode="&#xc8;" horiz-adv-x="1054" d="M150 0v1516h780v-127h-654v-568h654v-127h-654v-567h654v-127h-780zM272 1851h230l188 -217h-135z" />
<glyph unicode="&#xc9;" horiz-adv-x="1054" d="M150 0v1516h780v-127h-654v-568h654v-127h-654v-567h654v-127h-780zM389 1634l191 217h227l-283 -217h-135z" />
<glyph unicode="&#xca;" horiz-adv-x="1054" d="M150 0v1516h780v-127h-654v-568h654v-127h-654v-567h654v-127h-780zM225 1575l254 260h115l264 -260h-158l-161 127l-156 -127h-158z" />
<glyph unicode="&#xcb;" horiz-adv-x="1054" d="M150 0v1516h780v-127h-654v-568h654v-127h-654v-567h654v-127h-780zM297 1741q0 43 31 74q29 29 73.5 28.5t73.5 -28.5q33 -33 33 -74q0 -43 -33 -76q-31 -31 -74 -31t-73.5 31t-30.5 76zM573 1741q0 43 31 74q29 29 74 28.5t74 -28.5q31 -31 30 -74q0 -45 -30.5 -76 t-73.5 -31t-74 31t-31 76z" />
<glyph unicode="&#xcc;" horiz-adv-x="512" d="M-74 1851h228l188 -217h-133zM195 0v1516h124v-1516h-124z" />
<glyph unicode="&#xcd;" horiz-adv-x="512" d="M170 1634l188 217h228l-283 -217h-133zM193 0v1516h126v-1516h-126z" />
<glyph unicode="&#xce;" horiz-adv-x="489" d="M-70 1579l254 260h115l262 -260h-158l-161 127l-156 -127h-156zM180 0v1516h127v-1516h-127z" />
<glyph unicode="&#xcf;" horiz-adv-x="434" d="M-25 1741q0 43 31 74q29 29 74 28.5t74 -28.5q31 -31 30 -74q0 -45 -30.5 -76t-73.5 -31t-74 31t-31 76zM154 0v1516h127v-1516h-127zM252 1741q0 43 31 74q29 29 73.5 28.5t73.5 -28.5q31 -31 31 -74q0 -45 -31 -76t-74 -31t-73.5 31t-30.5 76z" />
<glyph unicode="&#xd0;" horiz-adv-x="1236" d="M49 694v127h148v695h127v-3h-17q373 0 580 -206q227 -227 227 -549t-227 -549q-207 -207 -580 -207h17v-2h-127v694h-148zM324 129q303 0 473 170q188 188 188 458.5t-188 459.5q-170 170 -473 169v-565h340v-127h-340v-565z" />
<glyph unicode="&#xd1;" horiz-adv-x="1273" d="M150 0v1516h126l721 -1250v1250h127v-1516h-116l-732 1262v-1262h-126zM369 1626q29 160 112 184q23 6 45 7q55 0 119 -48q63 -49 100 -49h5q31 4 49 76h104q-25 -158 -108 -182q-20 -6 -45 -6q-57 0 -121 47q-63 49 -101 49h-4q-29 0 -47 -78h-108z" />
<glyph unicode="&#xd2;" horiz-adv-x="1804" d="M125 760q0 322 227.5 549t548.5 227q324 0 551 -227.5t227 -549t-227 -548.5t-551 -227q-322 0 -549 227t-227 549zM254 760q0 -268 190.5 -458.5t456.5 -190.5q270 0 461 190q188 188 188 458.5t-188 459.5q-190 190 -461 190q-266 0 -456.5 -190.5t-190.5 -458.5z M637 1851h227l189 -217h-133z" />
<glyph unicode="&#xd3;" horiz-adv-x="1804" d="M125 760q0 322 227.5 549t548.5 227q324 0 551 -227.5t227 -549t-227 -548.5t-551 -227q-322 0 -549 227t-227 549zM254 760q0 -268 190.5 -458.5t456.5 -190.5q270 0 461 190q188 188 188 458.5t-188 459.5q-190 190 -461 190q-266 0 -456.5 -190.5t-190.5 -458.5z M754 1634l186 217h229l-282 -217h-133z" />
<glyph unicode="&#xd4;" horiz-adv-x="1804" d="M125 760q0 322 227.5 549t548.5 227q324 0 551 -227.5t227 -549t-227 -548.5t-551 -227q-322 0 -549 227t-227 549zM254 760q0 -268 190.5 -458.5t456.5 -190.5q270 0 461 190q188 188 188 458.5t-188 459.5q-190 190 -461 190q-266 0 -456.5 -190.5t-190.5 -458.5z M590 1624l252 260h114l265 -260h-158l-164 127l-154 -127h-155z" />
<glyph unicode="&#xd5;" horiz-adv-x="1804" d="M125 760q0 322 227.5 549t548.5 227q324 0 551 -227.5t227 -549t-227 -548.5t-551 -227q-322 0 -549 227t-227 549zM254 760q0 -268 190.5 -458.5t456.5 -190.5q270 0 461 190q188 188 188 458.5t-188 459.5q-190 190 -461 190q-266 0 -456.5 -190.5t-190.5 -458.5z M635 1647q29 158 113 182q23 6 45 6q61 0 118 -45q63 -51 101 -51h4q31 4 49 78h104q-25 -160 -110 -185q-22 -6 -43 -6q-61 0 -121 47q-63 49 -100 49h-4q-29 -4 -48 -75h-108z" />
<glyph unicode="&#xd6;" horiz-adv-x="1804" d="M125 760q0 322 227.5 549t548.5 227q324 0 551 -227.5t227 -549t-227 -548.5t-551 -227q-322 0 -549 227t-227 549zM254 760q0 -268 190.5 -458.5t456.5 -190.5q270 0 461 190q188 188 188 458.5t-188 459.5q-190 190 -461 190q-266 0 -456.5 -190.5t-190.5 -458.5z M659 1741q0 43 31 74q29 29 74 28.5t74 -28.5q31 -31 30 -74q0 -45 -30.5 -76t-73.5 -31t-74 31t-31 76zM936 1741q0 43 31 74q29 29 73.5 28.5t73.5 -28.5q31 -31 31 -74q0 -45 -31 -76t-74 -31t-73.5 31t-30.5 76z" />
<glyph unicode="&#xd7;" horiz-adv-x="1060" d="M211 336l229 231l-229 232l88 90l231 -232l232 232l90 -92l-231 -230l231 -231l-90 -90l-232 231l-231 -231z" />
<glyph unicode="&#xd8;" horiz-adv-x="1804" d="M125 760q0 322 227.5 549t548.5 227q162 0 273 -45l77 170l117 -53l-80 -170q74 -39 164 -127q227 -227 227 -551q0 -322 -227 -549t-551 -227q-158 0 -268 45l-80 -170l-117 53l80 170q-82 45 -164 129q-227 227 -227 549zM254 760q0 -268 190 -459q68 -68 127 -102 l547 1175q-88 35 -217 35q-266 0 -456.5 -190.5t-190.5 -458.5zM686 145q92 -35 215 -34q270 0 461 190q188 188 188 458.5t-188 459.5q-80 76 -129 102z" />
<glyph unicode="&#xd9;" horiz-adv-x="1304" d="M150 489v1027h129v-1027q0 -156 108 -264q111 -111 266 -110q154 0 264.5 110.5t110.5 263.5v1027h127v-1082q-25 -178 -147 -301q-145 -145 -354.5 -145t-356.5 147t-147 354zM385 1851h227l191 -217h-133z" />
<glyph unicode="&#xda;" horiz-adv-x="1304" d="M150 489v1027h129v-1027q0 -156 108 -264q111 -111 266 -110q154 0 264.5 110.5t110.5 263.5v1027h127v-1082q-25 -178 -147 -301q-145 -145 -354.5 -145t-356.5 147t-147 354zM504 1634l188 217h228l-283 -217h-133z" />
<glyph unicode="&#xdb;" horiz-adv-x="1304" d="M150 489v1027h129v-1027q0 -156 108 -264q111 -111 266 -110q154 0 264.5 110.5t110.5 263.5v1027h127v-1082q-25 -178 -147 -301q-145 -145 -354.5 -145t-356.5 147t-147 354zM340 1579l252 260h115l264 -260h-158l-164 127l-153 -127h-156z" />
<glyph unicode="&#xdc;" horiz-adv-x="1304" d="M150 489v1027h129v-1027q0 -156 108 -264q111 -111 266 -110q154 0 264.5 110.5t110.5 263.5v1027h127v-1082q-25 -178 -147 -301q-145 -145 -354.5 -145t-356.5 147t-147 354zM410 1731q0 43 30.5 73.5t73.5 30.5q45 0 76 -30.5t31 -73.5t-31 -74t-76 -31 q-43 0 -73.5 31t-30.5 74zM686 1731q0 43 31 73.5t74 30.5t73 -31q33 -33 33 -73.5t-33 -73.5q-31 -31 -73 -31q-43 0 -74 31t-31 74z" />
<glyph unicode="&#xdd;" horiz-adv-x="1271" d="M49 1516h148l440 -762l438 762h148l-525 -906v-610h-127v610zM487 1634l189 217h227l-282 -217h-134z" />
<glyph unicode="&#xde;" horiz-adv-x="1095" d="M150 0v1516h126v-254h283q178 -25 301 -148q147 -147 148 -354q0 -209 -147.5 -356.5t-354.5 -147.5h-230v-256h-126zM276 383h230q154 0 264.5 110.5t110.5 266.5q0 154 -111 264q-109 109 -264 109h-230v-750z" />
<glyph unicode="&#xe0;" horiz-adv-x="1316" d="M125 502q0 219 153.5 372.5t372.5 153.5q223 0 389 -164v82h127v-946h-127v139q-168 -166 -389 -166q-217 0 -372 156q-154 154 -154 373zM256 502q0 -166 117 -281q119 -115 278 -115q162 0 281 115q88 90 108 201v160q-20 111 -108 198q-117 117 -281 117 q-162 0 -278.5 -116.5t-116.5 -278.5zM369 1327h229l186 -215h-133z" />
<glyph unicode="&#xe1;" horiz-adv-x="1316" d="M125 502q0 219 153.5 372.5t372.5 153.5q223 0 389 -164v82h127v-946h-127v139q-168 -166 -389 -166q-217 0 -372 156q-154 154 -154 373zM256 502q0 -166 117 -281q119 -115 278 -115q162 0 281 115q88 90 108 201v160q-20 111 -108 198q-117 117 -281 117 q-162 0 -278.5 -116.5t-116.5 -278.5zM508 1112l186 215h230l-285 -215h-131z" />
<glyph unicode="&#xe2;" horiz-adv-x="1316" d="M125 502q0 219 153.5 372.5t372.5 153.5q223 0 389 -164v82h127v-946h-127v139q-168 -166 -389 -166q-217 0 -372 156q-154 154 -154 373zM256 502q0 -166 117 -281q119 -115 278 -115q162 0 281 115q88 90 108 201v160q-20 111 -108 198q-117 117 -281 117 q-162 0 -278.5 -116.5t-116.5 -278.5zM330 1104l254 258h114l263 -258h-156l-164 125l-154 -125h-157z" />
<glyph unicode="&#xe3;" horiz-adv-x="1316" d="M125 502q0 219 153.5 372.5t372.5 153.5q223 0 389 -164v82h127v-946h-127v139q-168 -166 -389 -166q-217 0 -372 156q-154 154 -154 373zM256 502q0 -166 117 -281q119 -115 278 -115q162 0 281 115q88 90 108 201v160q-20 111 -108 198q-117 117 -281 117 q-162 0 -278.5 -116.5t-116.5 -278.5zM379 1151q29 158 113 182q20 6 45 6q61 0 118 -45q63 -51 101 -51h4q29 4 47 78h106q-25 -158 -110 -182q-29 -8 -45 -9q-59 0 -119 48q-68 51 -100 51h-4q-29 -2 -48 -78h-108z" />
<glyph unicode="&#xe4;" horiz-adv-x="1316" d="M125 502q0 219 153.5 372.5t372.5 153.5q223 0 389 -164v82h127v-946h-127v139q-168 -166 -389 -166q-217 0 -372 156q-154 154 -154 373zM256 502q0 -166 117 -281q119 -115 278 -115q162 0 281 115q88 90 108 201v160q-20 111 -108 198q-117 117 -281 117 q-162 0 -278.5 -116.5t-116.5 -278.5zM403 1264q0 43 31 73.5t74 30.5t73.5 -30.5t30.5 -73.5t-30.5 -74t-73.5 -31t-74 31t-31 74zM680 1264q0 43 30.5 73.5t73.5 30.5t74 -30.5t31 -73.5t-31 -74t-74 -31t-73.5 31t-30.5 74z" />
<glyph unicode="&#xe5;" horiz-adv-x="1316" d="M125 502q0 217 156 372q135 135 270 138q-39 39 -39 96q0 55 39 94t96 39q55 0 94 -39t39 -94q0 -57 -39 -96h2q145 0 283 -138l14 -10v82h127v-946h-127v139l4 8l-18 -18q-156 -156 -375 -156q-217 0 -372 156q-154 154 -154 373zM256 502q0 -166 117 -281 q119 -115 278 -115q162 0 281 115q88 90 108 201v160q-20 111 -108 198q-117 117 -281 117q-162 0 -278.5 -116.5t-116.5 -278.5zM614 1108q0 -12 10.5 -22.5t22.5 -10.5q10 0 20.5 10.5t10.5 22.5q0 10 -10.5 20.5t-20.5 10.5q-12 0 -22.5 -10.5t-10.5 -20.5z" />
<glyph unicode="&#xe6;" horiz-adv-x="2056" d="M90 502q0 219 153.5 372.5t372.5 153.5q223 0 390 -164v82h127v-20q109 102 317 102q219 0 373 -154q137 -137 143 -348h-833v-262q16 -23 36 -41q117 -117 281 -117t279 115q22 22 49 55l129 -45q-27 -45 -84 -102q-156 -156 -373 -156q-207 0 -317 105v-78h-127v139 q-170 -166 -390 -166q-217 0 -372 156q-154 154 -154 373zM221 502q0 -166 117 -281q119 -115 278 -115q162 0 281 115q45 45 68 90q29 55 41 111v160q-10 51 -41 108q-23 45 -68 90q-117 117 -281 117q-162 0 -278.5 -116.5t-116.5 -278.5zM1133 653h682q-18 63 -86 127 q-115 117 -279 117t-281 -117q-16 -16 -36 -41v-86z" />
<glyph unicode="&#xe7;" d="M90 502q0 219 153.5 372.5t372.5 153.5q221 0 375 -154q33 -33 74 -88l-129 -49q-23 29 -39 45q-119 115 -281 115q-164 0 -278 -115q-117 -117 -117 -280q0 -162 117 -279t278.5 -117t280.5 115q25 25 39 43l129 -45q-45 -61 -74 -90q-125 -125 -274 -125h-33 q76 -16 100.5 -43t24.5 -55.5t-16 -57.5q-31 -55 -80 -73q-47 -14 -82 -15h-17q-49 2 -110 41l69 62q12 -4 37 -8h6q20 0 33 4q18 8 25 18v8q0 8 -4 13q-9 9 -31 12q-2 0 -9 1t-14 1q-35 0 -108 -8l43 73q-162 10 -305 152q-156 156 -156 373z" />
<glyph unicode="&#xe8;" horiz-adv-x="1241" d="M90 502q0 219 153.5 372.5t372.5 153.5q186 0 328 -110q29 -25 47 -44l31 -32l-78 -76l-573 -573q95 -86 245 -87q162 0 281 115q25 25 39 43l129 -45q-45 -61 -74 -90q-156 -156 -375 -156q-217 0 -372 156q-154 154 -154 373zM221 502q0 -135 64 -217l549 549 q-82 63 -218 63q-164 0 -278 -115q-117 -116 -117 -280zM344 1327h229l189 -215h-133z" />
<glyph unicode="&#xe9;" horiz-adv-x="1241" d="M90 502q0 219 153.5 372.5t372.5 153.5q186 0 328 -110q29 -25 47 -44l31 -32l-78 -76l-573 -573q95 -86 245 -87q162 0 281 115q25 25 39 43l129 -45q-45 -61 -74 -90q-156 -156 -375 -156q-217 0 -372 156q-154 154 -154 373zM221 502q0 -135 64 -217l549 549 q-82 63 -218 63q-164 0 -278 -115q-117 -116 -117 -280zM463 1112l186 215h230l-283 -215h-133z" />
<glyph unicode="&#xea;" horiz-adv-x="1241" d="M90 502q0 219 153.5 372.5t372.5 153.5q186 0 328 -110q29 -25 47 -44l31 -32l-78 -76l-573 -573q95 -86 245 -87q162 0 281 115q25 25 39 43l129 -45q-45 -61 -74 -90q-156 -156 -375 -156q-217 0 -372 156q-154 154 -154 373zM221 502q0 -135 64 -217l549 549 q-82 63 -218 63q-164 0 -278 -115q-117 -116 -117 -280zM299 1104l254 258h113l264 -258h-158l-164 125l-153 -125h-156z" />
<glyph unicode="&#xeb;" horiz-adv-x="1241" d="M90 502q0 219 153.5 372.5t372.5 153.5q186 0 328 -110q29 -25 47 -44l31 -32l-78 -76l-573 -573q95 -86 245 -87q162 0 281 115q25 25 39 43l129 -45q-45 -61 -74 -90q-156 -156 -375 -156q-217 0 -372 156q-154 154 -154 373zM221 502q0 -135 64 -217l549 549 q-82 63 -218 63q-164 0 -278 -115q-117 -116 -117 -280zM369 1264q0 43 30.5 73.5t73.5 30.5t74 -30.5t31 -73.5t-31 -74t-74 -31t-73.5 31t-30.5 74zM645 1264q0 43 31 73.5t74 30.5t73.5 -30.5t30.5 -73.5t-30.5 -74t-73.5 -31t-74 31t-31 74z" />
<glyph unicode="&#xec;" horiz-adv-x="512" d="M-74 1327h228l188 -215h-133zM195 0v946h124v-946h-124z" />
<glyph unicode="&#xed;" horiz-adv-x="512" d="M170 1112l188 215h228l-283 -215h-133zM193 0v946h126v-946h-126z" />
<glyph unicode="&#xee;" horiz-adv-x="489" d="M-70 1104l254 258h115l262 -258h-158l-161 125l-156 -125h-156zM180 0v946h127v-946h-127z" />
<glyph unicode="&#xef;" horiz-adv-x="434" d="M-25 1264q0 43 31 73.5t74 30.5t73.5 -30.5t30.5 -73.5t-30.5 -74t-73.5 -31t-74 31t-31 74zM154 0v946h127v-946h-127zM252 1264q0 43 30.5 73.5t73.5 30.5t74 -30.5t31 -73.5t-31 -74t-74 -31t-73.5 31t-30.5 74z" />
<glyph unicode="&#xf0;" horiz-adv-x="1232" d="M90 502q0 219 153.5 372.5t379.5 157.5l-7 6h-165v127h53l-96 105h176l106 -105h164v-127h-37l107 -106q23 -16 67 -58q154 -154 154 -372q0 -217 -155.5 -373t-373 -156t-372.5 156q-154 154 -154 373zM221 502q0 -166 117 -281q119 -115 278 -115q162 0 281 115 q117 115 117 281q0 162 -117 278.5t-281 116.5q-162 0 -278.5 -116.5t-116.5 -278.5z" />
<glyph unicode="&#xf1;" horiz-adv-x="1052" d="M150 0v946h126v-26q82 82 242 81q168 0 274.5 -106.5t110.5 -267.5v-627h-127v618q0 109 -76 183q-78 74 -182 73.5t-182 -73.5q-41 -41 -60 -82v-719h-126zM258 1151q29 158 113 182q23 6 45 6q61 0 119 -45q63 -51 102 -51h2q29 4 47 78h109q-25 -158 -113 -182 q-29 -8 -43 -9q-61 0 -121 48q-68 51 -98 51h-4q-31 -2 -49 -78h-109z" />
<glyph unicode="&#xf2;" horiz-adv-x="1232" d="M90 502q0 219 153.5 372.5t373 153.5t372.5 -154q156 -156 156 -372.5t-155.5 -372.5t-373 -156t-372.5 156q-154 154 -154 373zM221 502q0 -166 117 -281q119 -115 278 -115q162 0 281 115q117 115 117 281q0 162 -117 278.5t-281 116.5q-162 0 -278.5 -116.5 t-116.5 -278.5zM350 1327h228l190 -215h-133z" />
<glyph unicode="&#xf3;" horiz-adv-x="1232" d="M90 502q0 219 153.5 372.5t373 153.5t372.5 -154q156 -156 156 -372.5t-155.5 -372.5t-373 -156t-372.5 156q-154 154 -154 373zM221 502q0 -166 117 -281q119 -115 278 -115q162 0 281 115q117 115 117 281q0 162 -117 278.5t-281 116.5q-162 0 -278.5 -116.5 t-116.5 -278.5zM469 1112l186 215h230l-285 -215h-131z" />
<glyph unicode="&#xf4;" horiz-adv-x="1232" d="M90 502q0 219 153.5 372.5t373 153.5t372.5 -154q156 -156 156 -372.5t-155.5 -372.5t-373 -156t-372.5 156q-154 154 -154 373zM221 502q0 -166 117 -281q119 -115 278 -115q162 0 281 115q117 115 117 281q0 162 -117 278.5t-281 116.5q-162 0 -278.5 -116.5 t-116.5 -278.5zM303 1104l254 258h115l264 -258h-158l-164 125l-153 -125h-158z" />
<glyph unicode="&#xf5;" horiz-adv-x="1232" d="M90 502q0 219 153.5 372.5t373 153.5t372.5 -154q156 -156 156 -372.5t-155.5 -372.5t-373 -156t-372.5 156q-154 154 -154 373zM221 502q0 -166 117 -281q119 -115 278 -115q162 0 281 115q117 115 117 281q0 162 -117 278.5t-281 116.5q-162 0 -278.5 -116.5 t-116.5 -278.5zM350 1151q29 158 113 182q20 6 45 6q61 0 119 -45q63 -51 100 -51h4q29 4 47 78h107q-25 -158 -111 -182q-29 -8 -45 -9q-59 0 -119 48q-68 51 -100 51h-4q-29 -4 -47 -78h-109z" />
<glyph unicode="&#xf6;" horiz-adv-x="1232" d="M90 502q0 219 153.5 372.5t373 153.5t372.5 -154q156 -156 156 -372.5t-155.5 -372.5t-373 -156t-372.5 156q-154 154 -154 373zM221 502q0 -166 117 -281q119 -115 278 -115q162 0 281 115q117 115 117 281q0 162 -117 278.5t-281 116.5q-162 0 -278.5 -116.5 t-116.5 -278.5zM375 1264q0 43 30.5 73.5t73.5 30.5t74 -30.5t31 -73.5t-31 -74t-74 -31t-73.5 31t-30.5 74zM649 1264q0 41 33 73q31 31 74 31t73.5 -30.5t30.5 -73.5t-30.5 -74t-73.5 -31t-74 31q-33 33 -33 74z" />
<glyph unicode="&#xf7;" horiz-adv-x="1028" d="M125 522v127h780v-127h-780zM410 352q0 43 30.5 74t73.5 31q45 0 76 -31t31 -74t-31 -73.5t-76 -30.5q-43 0 -73.5 30.5t-30.5 73.5zM410 821q0 43 30.5 74t73.5 31q45 0 76 -31t31 -74t-31 -73.5t-76 -30.5q-43 0 -73.5 30.5t-30.5 73.5z" />
<glyph unicode="&#xf8;" horiz-adv-x="1232" d="M90 502q0 219 154 372q156 156 372 156q121 0 209 -41l113 197l113 -60l-117 -200q29 -20 57 -49q154 -154 154 -375q0 -217 -156 -373q-154 -154 -373 -154q-121 0 -206 41l-113 -196l-115 53l119 207q-22 15 -55 49q-156 156 -156 373zM221 502q0 -166 117 -279l13 -13 t10.5 -11t5.5 -4l393 679q-47 23 -144 23q-164 0 -278 -115q-117 -116 -117 -280zM475 131q52 -25 141 -25q164 0 281 117t117 279q0 164 -117 280l-13 13.5l-10.5 11.5t-5.5 4z" />
<glyph unicode="&#xf9;" horiz-adv-x="1077" d="M150 362v586h126v-577q0 -106 78 -181q76 -76 191 -75q102 0 180 73.5t78 182.5v577h127v-586q-2 -160 -111 -268q-106 -106 -274 -106q-178 0 -285 106q-108 108 -110 268zM272 1327h228l188 -215h-133z" />
<glyph unicode="&#xfa;" horiz-adv-x="1077" d="M150 362v586h126v-577q0 -106 78 -181q76 -76 191 -75q102 0 180 73.5t78 182.5v577h127v-586q-2 -160 -111 -268q-106 -106 -274 -106q-178 0 -285 106q-108 108 -110 268zM389 1112l191 215h227l-283 -215h-135z" />
<glyph unicode="&#xfb;" horiz-adv-x="1077" d="M150 362v586h126v-577q0 -106 78 -181q76 -76 191 -75q102 0 180 73.5t78 182.5v577h127v-586q-2 -160 -111 -268q-106 -106 -274 -106q-178 0 -285 106q-108 108 -110 268zM225 1104l254 258h115l262 -258h-156l-163 125l-154 -125h-158z" />
<glyph unicode="&#xfc;" horiz-adv-x="1077" d="M150 362v586h126v-577q0 -106 78 -181q76 -76 191 -75q102 0 180 73.5t78 182.5v577h127v-586q-2 -160 -111 -268q-106 -106 -274 -106q-178 0 -285 106q-108 108 -110 268zM297 1264q0 43 30.5 73.5t73.5 30.5t74 -31q33 -33 33 -73.5t-33 -73.5q-31 -31 -74 -31 t-73.5 31t-30.5 74zM573 1264q0 43 31 73.5t74 30.5t73.5 -30.5t30.5 -73.5t-30.5 -74t-73.5 -31t-74 31t-31 74z" />
<glyph unicode="&#xfd;" horiz-adv-x="1005" d="M76 946h141l287 -616l287 616h141l-451 -942v2l-168 -350h-129l254 532zM354 1112l189 215h227l-283 -215h-133z" />
<glyph unicode="&#xfe;" horiz-adv-x="1290" d="M129 -330v1661h127v-463q166 160 383 160q219 0 373 -154q156 -156 155.5 -372.5t-156 -372.5t-372.5 -156t-383 160v-463h-127zM256 401q25 -100 104 -180q115 -115 279 -115q166 0 280.5 115t114.5 281q0 164 -114 278q-117 117 -281 117q-162 0 -279 -117 q-80 -80 -104 -178v-201z" />
<glyph unicode="&#xff;" horiz-adv-x="1005" d="M76 946h141l287 -616l287 616h141l-451 -942v2l-168 -350h-129l254 532zM260 1264q0 41 33 73q31 31 74 31t73 -31q29 -29 29 -73.5t-29 -73.5q-31 -31 -73 -31q-43 0 -74 31q-33 33 -33 74zM537 1264q0 43 30.5 73.5t73.5 30.5t73.5 -30.5t30.5 -73.5t-30.5 -74 t-73.5 -31t-73.5 31t-30.5 74z" />
<glyph unicode="&#x100;" horiz-adv-x="1257" d="M49 0l582 1591l577 -1591h-135l-205 563h-479l-205 -563h-135zM336 1681v111h588v-111h-588zM436 690h387l-192 533z" />
<glyph unicode="&#x101;" horiz-adv-x="1316" d="M125 502q0 219 153.5 372.5t372.5 153.5q223 0 389 -164v82h127v-946h-127v139q-168 -166 -389 -166q-217 0 -372 156q-154 154 -154 373zM256 502q0 -166 117 -281q119 -115 278 -115q162 0 281 115q88 90 108 201v160q-20 111 -108 198q-117 117 -281 117 q-162 0 -278.5 -116.5t-116.5 -278.5zM352 1163v111h588v-111h-588z" />
<glyph unicode="&#x102;" horiz-adv-x="1257" d="M49 0l582 1591l577 -1591h-135l-205 563h-479l-205 -563h-135zM389 1892h111q8 -59 39 -90q37 -37 90 -37q55 0 92 37q27 27 37 90h110q-12 -111 -69 -168q-68 -70 -170 -69q-100 0 -168 69q-66 70 -72 168zM436 690h387l-192 533z" />
<glyph unicode="&#x103;" horiz-adv-x="1316" d="M125 502q0 219 153.5 372.5t372.5 153.5q223 0 389 -164v82h127v-946h-127v139q-168 -166 -389 -166q-217 0 -372 156q-154 154 -154 373zM256 502q0 -166 117 -281q119 -115 278 -115q162 0 281 115q88 90 108 201v160q-20 111 -108 198q-117 117 -281 117 q-162 0 -278.5 -116.5t-116.5 -278.5zM406 1374h110q8 -59 39 -90q37 -37 90 -37q55 0 92 37q27 27 37 90h113q-12 -109 -72 -168q-68 -70 -170 -69q-100 0 -168 69q-65 70 -71 168z" />
<glyph unicode="&#x106;" horiz-adv-x="1538" d="M125 757.5q0 321.5 227.5 549t546.5 227.5q303 0 541 -217l-94 -88q-199 176 -447 176q-266 0 -455 -188q-190 -190 -190 -459t190 -459q188 -188 455 -188q248 0 447 176l94 -86q-238 -217 -541 -217q-322 0 -547 225q-227 227 -227 548.5zM643 1630l188 215h230 l-285 -215h-133z" />
<glyph unicode="&#x107;" d="M90 502q0 219 153.5 372.5t372.5 153.5q221 0 375 -154q33 -33 74 -88l-129 -49q-23 29 -39 45q-119 115 -281 115q-164 0 -278 -115q-117 -117 -117 -280q0 -162 117 -279t278.5 -117t280.5 115q25 25 39 43l129 -45q-45 -61 -74 -90q-156 -156 -375 -156 q-217 0 -372 156q-154 154 -154 373zM438 1112l189 215h227l-283 -215h-133z" />
<glyph unicode="&#x108;" horiz-adv-x="1538" d="M125 757.5q0 321.5 227.5 549t546.5 227.5q303 0 541 -217l-94 -88q-199 176 -447 176q-266 0 -455 -188q-190 -190 -190 -459t190 -459q188 -188 455 -188q248 0 447 176l94 -86q-238 -217 -541 -217q-322 0 -547 225q-227 227 -227 548.5zM567 1622l254 258h115 l262 -258h-158l-161 125l-154 -125h-158z" />
<glyph unicode="&#x109;" d="M90 502q0 219 153.5 372.5t372.5 153.5q221 0 375 -154q33 -33 74 -88l-129 -49q-23 29 -39 45q-119 115 -281 115q-164 0 -278 -115q-117 -117 -117 -280q0 -162 117 -279t278.5 -117t280.5 115q25 25 39 43l129 -45q-45 -61 -74 -90q-156 -156 -375 -156 q-217 0 -372 156q-154 154 -154 373zM293 1104l254 258h112l265 -258h-158l-164 125l-153 -125h-156z" />
<glyph unicode="&#x10a;" horiz-adv-x="1538" d="M125 757.5q0 321.5 227.5 549t546.5 227.5q303 0 541 -217l-94 -88q-199 176 -447 176q-266 0 -455 -188q-190 -190 -190 -459t190 -459q188 -188 455 -188q248 0 447 176l94 -86q-238 -217 -541 -217q-322 0 -547 225q-227 227 -227 548.5zM791 1718q0 39 26.5 65.5 t65.5 26.5t65.5 -26.5t26.5 -65.5t-26.5 -65.5t-65.5 -26.5t-65.5 26.5t-26.5 65.5z" />
<glyph unicode="&#x10b;" d="M90 502q0 219 153.5 372.5t372.5 153.5q221 0 375 -154q33 -33 74 -88l-129 -49q-23 29 -39 45q-119 115 -281 115q-164 0 -278 -115q-117 -117 -117 -280q0 -162 117 -279t278.5 -117t280.5 115q25 25 39 43l129 -45q-45 -61 -74 -90q-156 -156 -375 -156 q-217 0 -372 156q-154 154 -154 373zM485 1251q0 39 27 65.5t65.5 26.5t65.5 -26.5t27 -65.5t-27 -65.5t-65.5 -26.5t-65.5 26.5t-27 65.5z" />
<glyph unicode="&#x10c;" horiz-adv-x="1538" d="M125 757.5q0 321.5 227.5 549t546.5 227.5q303 0 541 -217l-94 -88q-199 176 -447 176q-266 0 -455 -188q-190 -190 -190 -459t190 -459q188 -188 455 -188q248 0 447 176l94 -86q-238 -217 -541 -217q-322 0 -547 225q-227 227 -227 548.5zM567 1880h158l154 -125 l161 125h158l-262 -258h-115z" />
<glyph unicode="&#x10d;" d="M90 502q0 219 153.5 372.5t372.5 153.5q221 0 375 -154q33 -33 74 -88l-129 -49q-23 29 -39 45q-119 115 -281 115q-164 0 -278 -115q-117 -117 -117 -280q0 -162 117 -279t278.5 -117t280.5 115q25 25 39 43l129 -45q-45 -61 -74 -90q-156 -156 -375 -156 q-217 0 -372 156q-154 154 -154 373zM301 1362h158l153 -125l164 125h158l-264 -258h-115z" />
<glyph unicode="&#x110;" horiz-adv-x="1236" d="M49 694v127h148v695h127v-3h-17q373 0 580 -206q227 -227 227 -549t-227 -549q-207 -207 -580 -207h17v-2h-127v694h-148zM324 129q303 0 473 170q188 188 188 458.5t-188 459.5q-170 170 -473 169v-565h340v-127h-340v-565z" />
<glyph unicode="&#x111;" horiz-adv-x="1308" d="M125 502q0 219 153.5 372.5t372.5 153.5q221 0 375 -154l14 -10v316h-268v127h268v209h127v-209h90v-127h-90v-1180h-127v139l-14 -10q-156 -156 -375 -156q-217 0 -372 156q-154 154 -154 373zM256 502q0 -166 117 -281q119 -115 278 -115q162 0 281 115q88 90 108 201 v160q-20 111 -108 198q-117 117 -281 117q-162 0 -278.5 -116.5t-116.5 -278.5z" />
<glyph unicode="&#x112;" horiz-adv-x="1054" d="M150 0v1516h780v-127h-654v-568h654v-127h-654v-567h654v-127h-780zM248 1581v111h586v-111h-586z" />
<glyph unicode="&#x113;" d="M90 502q0 219 153.5 372.5t372.5 153.5q186 0 328 -110q29 -25 47 -44l31 -32l-78 -76l-573 -573q95 -86 245 -87q162 0 281 115q25 25 39 43l129 -45q-45 -61 -74 -90q-156 -156 -375 -156q-217 0 -372 156q-154 154 -154 373zM221 502q0 -135 64 -217l549 549 q-82 63 -218 63q-164 0 -278 -115q-117 -116 -117 -280zM285 1163v111h585v-111h-585z" />
<glyph unicode="&#x114;" horiz-adv-x="1054" d="M150 0v1516h780v-127h-654v-568h654v-127h-654v-567h654v-127h-780zM299 1812h111q8 -59 39 -90q37 -37 92 -36q53 0 90 36q31 31 39 90h110q-12 -109 -71 -167q-68 -70 -168 -70q-102 0 -170 70q-66 69 -72 167z" />
<glyph unicode="&#x115;" d="M90 502q0 219 153.5 372.5t372.5 153.5q186 0 328 -110q29 -25 47 -44l31 -32l-78 -76l-573 -573q95 -86 245 -87q162 0 281 115q25 25 39 43l129 -45q-45 -61 -74 -90q-156 -156 -375 -156q-217 0 -372 156q-154 154 -154 373zM221 502q0 -135 64 -217l549 549 q-82 63 -218 63q-164 0 -278 -115q-117 -116 -117 -280zM338 1374h108q8 -59 39 -90q37 -37 93 -37q53 0 90 37q31 31 39 90h110q-12 -109 -72 -168q-68 -70 -167 -69q-102 0 -170 69q-64 66 -70 168z" />
<glyph unicode="&#x116;" horiz-adv-x="1054" d="M150 0v1516h780v-127h-654v-568h654v-127h-654v-567h654v-127h-780zM449 1700q0 39 26.5 65.5t65.5 26.5t65.5 -26.5t26.5 -65.5t-26.5 -65.5t-65.5 -26.5t-65.5 26.5t-26.5 65.5z" />
<glyph unicode="&#x117;" d="M90 502q0 219 153.5 372.5t372.5 153.5q186 0 328 -110q29 -25 47 -44l31 -32l-78 -76l-573 -573q95 -86 245 -87q162 0 281 115q25 25 39 43l129 -45q-45 -61 -74 -90q-156 -156 -375 -156q-217 0 -372 156q-154 154 -154 373zM221 502q0 -135 64 -217l549 549 q-82 63 -218 63q-164 0 -278 -115q-117 -116 -117 -280zM485 1251q0 39 27 65.5t65.5 26.5t65.5 -26.5t27 -65.5t-27 -65.5t-65.5 -26.5t-65.5 26.5t-27 65.5z" />
<glyph unicode="&#x11a;" horiz-adv-x="1054" d="M150 0v1516h780v-127h-654v-568h654v-127h-654v-567h654v-127h-780zM223 1870h158l154 -125l163 125h156l-262 -258h-115z" />
<glyph unicode="&#x11b;" d="M90 502q0 219 153.5 372.5t372.5 153.5q186 0 328 -110q29 -25 47 -44l31 -32l-78 -76l-573 -573q95 -86 245 -87q162 0 281 115q25 25 39 43l129 -45q-45 -61 -74 -90q-156 -156 -375 -156q-217 0 -372 156q-154 154 -154 373zM221 502q0 -135 64 -217l549 549 q-82 63 -218 63q-164 0 -278 -115q-117 -116 -117 -280zM260 1362h158l153 -125l164 125h158l-264 -258h-115z" />
<glyph unicode="&#x11c;" horiz-adv-x="1564" d="M125 757.5q0 321.5 227.5 549t546.5 227.5q303 0 541 -217l-94 -88q-199 176 -447 176q-266 0 -455 -188q-190 -190 -190 -459t190 -459q188 -188 455 -188q231 0 397 135v459h127v-508q-225 -213 -524 -213q-322 0 -547 225q-227 227 -227 548.5zM567 1622l254 258h115 l262 -258h-158l-161 125l-154 -125h-158z" />
<glyph unicode="&#x11d;" horiz-adv-x="1320" d="M125 502q0 219 153.5 372.5t372.5 153.5t389 -164v82h127v-723q0 -211 -151 -362q-156 -156 -373 -156t-373 156q-29 29 -73 90l129 45q6 -8 39 -41q117 -117 278 -117q164 0 281 117q102 102 108 176l-6 -2q-156 -156 -375 -156q-217 0 -372 156q-154 154 -154 373z M256 502q0 -164 117 -281q115 -115 278 -115q166 0 281 115q84 84 106 195v170q-20 109 -106 194q-117 117 -281 117q-162 0 -278.5 -116.5t-116.5 -278.5zM330 1104l254 258h114l263 -258h-156l-164 125l-154 -125h-157z" />
<glyph unicode="&#x11e;" horiz-adv-x="1564" d="M125 757.5q0 321.5 227.5 549t546.5 227.5q303 0 541 -217l-94 -88q-199 176 -447 176q-266 0 -455 -188q-190 -190 -190 -459t190 -459q188 -188 455 -188q231 0 397 135v459h127v-508q-225 -213 -524 -213q-322 0 -547 225q-227 227 -227 548.5zM643 1892h111 q8 -59 39 -90q37 -37 90 -37q55 0 92 37q27 27 37 90h110q-12 -111 -69 -168q-68 -70 -170 -69q-100 0 -168 69q-66 70 -72 168z" />
<glyph unicode="&#x11f;" horiz-adv-x="1320" d="M125 502q0 219 153.5 372.5t372.5 153.5t389 -164v82h127v-723q0 -211 -151 -362q-156 -156 -373 -156t-373 156q-29 29 -73 90l129 45q6 -8 39 -41q117 -117 278 -117q164 0 281 117q102 102 108 176l-6 -2q-156 -156 -375 -156q-217 0 -372 156q-154 154 -154 373z M256 502q0 -164 117 -281q115 -115 278 -115q166 0 281 115q84 84 106 195v170q-20 109 -106 194q-117 117 -281 117q-162 0 -278.5 -116.5t-116.5 -278.5zM395 1374h111q8 -59 39 -90q37 -37 92 -37q53 0 90 37q31 31 39 90h111q-12 -109 -72 -168q-68 -70 -168 -69 q-102 0 -170 69q-66 70 -72 168z" />
<glyph unicode="&#x120;" horiz-adv-x="1564" d="M125 757.5q0 321.5 227.5 549t546.5 227.5q303 0 541 -217l-94 -88q-199 176 -447 176q-266 0 -455 -188q-190 -190 -190 -459t190 -459q188 -188 455 -188q231 0 397 135v459h127v-508q-225 -213 -524 -213q-322 0 -547 225q-227 227 -227 548.5zM791 1759 q0 39 26.5 65.5t65.5 26.5t65.5 -26.5t26.5 -65.5t-26.5 -65.5t-65.5 -26.5t-65.5 26.5t-26.5 65.5z" />
<glyph unicode="&#x121;" horiz-adv-x="1320" d="M125 502q0 219 153.5 372.5t372.5 153.5t389 -164v82h127v-723q0 -211 -151 -362q-156 -156 -373 -156t-373 156q-29 29 -73 90l129 45q6 -8 39 -41q117 -117 278 -117q164 0 281 117q102 102 108 176l-6 -2q-156 -156 -375 -156q-217 0 -372 156q-154 154 -154 373z M256 502q0 -164 117 -281q115 -115 278 -115q166 0 281 115q84 84 106 195v170q-20 109 -106 194q-117 117 -281 117q-162 0 -278.5 -116.5t-116.5 -278.5zM555 1251q0 39 26.5 65.5t65.5 26.5q37 0 64 -26q29 -29 28.5 -66t-28.5 -65q-27 -27 -64 -27q-39 0 -65.5 26.5 t-26.5 65.5z" />
<glyph unicode="&#x12c;" horiz-adv-x="466" d="M-6 1892h110q8 -59 39 -90q37 -37 90 -37q55 0 93 37q27 27 36 90h111q-12 -111 -70 -168q-68 -70 -170 -69q-100 0 -167 69q-66 70 -72 168zM170 0v1516h127v-1516h-127z" />
<glyph unicode="&#x12d;" horiz-adv-x="466" d="M-6 1374h110q8 -59 39 -90q37 -37 90 -37q55 0 93 37q27 27 36 90h111q-12 -111 -70 -168q-68 -70 -170 -69q-100 0 -167 69q-66 70 -72 168zM170 0v946h127v-946h-127z" />
<glyph unicode="&#x131;" horiz-adv-x="466" d="M170 0v946h127v-946h-127z" />
<glyph unicode="&#x13f;" horiz-adv-x="935" d="M150 0v1516h126v-1389h572v-127h-698zM606 758q0 37 29 65q27 27 65 27q37 0 64 -27q29 -29 29 -65.5t-29 -65.5q-27 -27 -64 -26q-39 0 -65 26q-29 29 -29 66z" />
<glyph unicode="&#x140;" horiz-adv-x="610" d="M150 0v1516h126v-1516h-126zM377 758q0 39 26.5 65.5t65.5 26.5t65.5 -26.5t26.5 -65.5t-26.5 -65.5t-65.5 -26.5t-65.5 26.5t-26.5 65.5z" />
<glyph unicode="&#x143;" horiz-adv-x="1273" d="M150 0v1516h126l721 -1250v1250h127v-1516h-116l-732 1262v-1262h-126zM498 1630l188 215h227l-282 -215h-133z" />
<glyph unicode="&#x144;" horiz-adv-x="1052" d="M150 0v946h126v-26q82 82 242 81q168 0 274.5 -106.5t110.5 -267.5v-627h-127v618q0 109 -76 183q-78 74 -182 73.5t-182 -73.5q-41 -41 -60 -82v-719h-126zM387 1112l188 215h230l-285 -215h-133z" />
<glyph unicode="&#x147;" horiz-adv-x="1273" d="M150 0v1516h126l721 -1250v1250h127v-1516h-116l-732 1262v-1262h-126zM322 1880h155l156 -125l162 125h157l-264 -258h-113z" />
<glyph unicode="&#x148;" horiz-adv-x="1052" d="M150 0v946h126v-26q82 82 242 81q168 0 274.5 -106.5t110.5 -267.5v-627h-127v618q0 109 -76 183q-78 74 -182 73.5t-182 -73.5q-41 -41 -60 -82v-719h-126zM211 1362h158l153 -125l162 125h158l-262 -258h-115z" />
<glyph unicode="&#x14c;" horiz-adv-x="1804" d="M125 760q0 322 227.5 549t548.5 227q324 0 551 -227.5t227 -549t-227 -548.5t-551 -227q-322 0 -549 227t-227 549zM254 760q0 -268 190.5 -458.5t456.5 -190.5q270 0 461 190q188 188 188 458.5t-188 459.5q-190 190 -461 190q-266 0 -456.5 -190.5t-190.5 -458.5z M608 1681v111h588v-111h-588z" />
<glyph unicode="&#x14d;" horiz-adv-x="1232" d="M90 502q0 219 153.5 372.5t373 153.5t372.5 -154q156 -156 156 -372.5t-155.5 -372.5t-373 -156t-372.5 156q-154 154 -154 373zM221 502q0 -166 117 -281q119 -115 278 -115q162 0 281 115q117 115 117 281q0 162 -117 278.5t-281 116.5q-162 0 -278.5 -116.5 t-116.5 -278.5zM324 1163v111h587v-111h-587z" />
<glyph unicode="&#x14e;" horiz-adv-x="1804" d="M125 760q0 322 227.5 549t548.5 227q324 0 551 -227.5t227 -549t-227 -548.5t-551 -227q-322 0 -549 227t-227 549zM254 760q0 -268 190.5 -458.5t456.5 -190.5q270 0 461 190q188 188 188 458.5t-188 459.5q-190 190 -461 190q-266 0 -456.5 -190.5t-190.5 -458.5z M662 1892h110q8 -59 39 -90q37 -37 90 -37q55 0 92 37q27 27 37 90h113q-12 -109 -72 -168q-68 -70 -170 -69q-100 0 -168 69q-65 70 -71 168z" />
<glyph unicode="&#x14f;" horiz-adv-x="1232" d="M90 502q0 219 153.5 372.5t373 153.5t372.5 -154q156 -156 156 -372.5t-155.5 -372.5t-373 -156t-372.5 156q-154 154 -154 373zM221 502q0 -166 117 -281q119 -115 278 -115q162 0 281 115q117 115 117 281q0 162 -117 278.5t-281 116.5q-162 0 -278.5 -116.5 t-116.5 -278.5zM377 1374h110q8 -59 39 -90q37 -37 90 -37q55 0 93 37q27 27 36 90h111q-12 -111 -70 -168q-68 -70 -170 -69q-100 0 -167 69q-66 70 -72 168z" />
<glyph unicode="&#x150;" horiz-adv-x="1804" d="M125 760q0 322 227.5 549t548.5 227q324 0 551 -227.5t227 -549t-227 -548.5t-551 -227q-322 0 -549 227t-227 549zM254 760q0 -268 190.5 -458.5t456.5 -190.5q270 0 461 190q188 188 188 458.5t-188 459.5q-190 190 -461 190q-266 0 -456.5 -190.5t-190.5 -458.5z M674 1614l188 215h228l-283 -215h-133zM915 1614l189 215h227l-282 -215h-134z" />
<glyph unicode="&#x151;" horiz-adv-x="1232" d="M90 502q0 219 153.5 372.5t373 153.5t372.5 -154q156 -156 156 -372.5t-155.5 -372.5t-373 -156t-372.5 156q-154 154 -154 373zM221 502q0 -166 117 -281q119 -115 278 -115q162 0 281 115q117 115 117 281q0 162 -117 278.5t-281 116.5q-162 0 -278.5 -116.5 t-116.5 -278.5zM389 1096l189 215h227l-283 -215h-133zM631 1096l186 215h230l-283 -215h-133z" />
<glyph unicode="&#x152;" horiz-adv-x="2172" d="M90 760q0 322 227.5 549t548.5 227q137 0 242 -20h940v-127h-717q20 -12 86 -78q213 -217 225 -490h406v-127h-406q-16 -272 -225 -483q-74 -76 -90 -84h721v-127h-940q-98 -16 -242 -16q-322 0 -549 227t-227 549zM219 760q0 -268 190.5 -458.5t456.5 -190.5 q127 0 232 39q27 10 80 38q82 45 147 113q175 175 191 418v41v39q-12 240 -189 420q-78 74 -149 112q-40 22 -80 37q-111 41 -232 41q-266 0 -456.5 -190.5t-190.5 -458.5z" />
<glyph unicode="&#x153;" horiz-adv-x="2015" d="M90 502q0 219 153.5 372.5t372.5 153.5q221 0 375 -154q6 -6 12.5 -11t8.5 -8l2 -3l22 22q154 154 373 154q221 0 375 -154q135 -139 141 -348h-780v-24q0 -137 -55 -236q4 -4 38 -45q119 -115 281 -115t281 115q10 10 47 55l129 -45q-29 -49 -82 -102 q-156 -156 -375 -156q-217 0 -373 156q-10 10 -15 15.5t-6 7.5l-1 2q0 -2 -23 -25q-156 -156 -375 -156q-217 0 -372 156q-154 154 -154 373zM221 502q0 -166 117 -281q119 -115 278 -115q162 0 281 115q117 115 117 281q0 162 -117 278.5t-281 116.5q-162 0 -278.5 -116.5 t-116.5 -278.5zM1092 737q14 -27 30 -84h652q-18 61 -84 127q-117 117 -281 117t-281 -117q-24 -25 -36 -43z" />
<glyph unicode="&#x178;" horiz-adv-x="1271" d="M49 1516h148l440 -762l438 762h148l-525 -906v-610h-127v610zM393 1782q0 43 31 73.5t74 30.5t73.5 -30.5t30.5 -73.5t-30.5 -74t-73.5 -31t-74 31t-31 74zM670 1782q0 43 30.5 73.5t73.5 30.5t74 -30.5t31 -73.5t-31 -74t-74 -31t-73.5 31t-30.5 74z" />
<glyph unicode="&#x2c6;" horiz-adv-x="870" d="M121 1104l254 258h114l263 -258h-156l-164 125l-153 -125h-158z" />
<glyph unicode="&#x2c7;" horiz-adv-x="870" d="M121 1362h158l153 -125l164 125h156l-263 -258h-114z" />
<glyph unicode="&#x2c9;" horiz-adv-x="886" d="M150 1163v111h587v-111h-587z" />
<glyph unicode="&#x2d8;" horiz-adv-x="888" d="M205 1374h110q8 -59 39 -90q37 -37 90 -37q55 0 93 37q27 27 36 90h111q-12 -111 -70 -168q-68 -70 -170 -69q-100 0 -168 69q-65 70 -71 168z" />
<glyph unicode="&#x2d9;" horiz-adv-x="434" d="M125 1251q0 39 26.5 65.5t65.5 26.5t65.5 -26.5t26.5 -65.5t-26.5 -65.5t-65.5 -26.5t-65.5 26.5t-26.5 65.5z" />
<glyph unicode="&#x2da;" horiz-adv-x="784" d="M258 1169q0 55 41 97q39 39 94 39q57 0 96 -39t39 -97q0 -55 -38.5 -94t-96.5 -39q-55 0 -94 39q-41 41 -41 94zM362 1169q0 -10 10.5 -20t20.5 -10q12 0 22.5 10t10.5 20q0 12 -10 23q-8 8 -23 8q-12 0 -20 -8q-11 -11 -11 -23z" />
<glyph unicode="&#x2db;" horiz-adv-x="778" d="M219 -80q0 72 57 123h82q-39 -86 -39 -123q0 -27 23 -49.5t51.5 -22.5t47 18.5t28.5 88.5l88 -35v-18q0 -61 -45 -107q-45 -49 -119 -49q-72 0 -123 51t-51 123z" />
<glyph unicode="&#x2dc;" horiz-adv-x="833" d="M150 1151q29 158 112 182q20 6 45 6q61 0 119 -45q63 -51 100 -51h4q29 4 48 78h106q-25 -158 -111 -182q-29 -8 -45 -9q-59 0 -118 48q-68 51 -101 51h-4q-29 -2 -47 -78h-108z" />
<glyph unicode="&#x2dd;" horiz-adv-x="925" d="M150 1096l188 215h227l-282 -215h-133zM391 1096l189 215h227l-283 -215h-133z" />
<glyph unicode="&#x1ef2;" horiz-adv-x="1271" d="M49 1516h148l440 -762l438 762h148l-525 -906v-610h-127v610zM358 1845h230l186 -215h-133z" />
<glyph unicode="&#x1ef3;" horiz-adv-x="1005" d="M76 946h141l287 -616l287 616h141l-619 -1290h-129l254 532zM225 1229h230l186 -217h-131z" />
<glyph unicode="&#x2000;" horiz-adv-x="944" />
<glyph unicode="&#x2001;" horiz-adv-x="1892" />
<glyph unicode="&#x2002;" horiz-adv-x="944" />
<glyph unicode="&#x2003;" horiz-adv-x="1892" />
<glyph unicode="&#x2004;" horiz-adv-x="630" />
<glyph unicode="&#x2005;" horiz-adv-x="471" />
<glyph unicode="&#x2006;" horiz-adv-x="313" />
<glyph unicode="&#x2007;" horiz-adv-x="313" />
<glyph unicode="&#x2008;" horiz-adv-x="235" />
<glyph unicode="&#x2009;" horiz-adv-x="376" />
<glyph unicode="&#x200a;" horiz-adv-x="104" />
<glyph unicode="&#x2010;" horiz-adv-x="835" d="M125 504v127h588v-127h-588z" />
<glyph unicode="&#x2011;" horiz-adv-x="835" d="M125 504v127h588v-127h-588z" />
<glyph unicode="&#x2012;" horiz-adv-x="835" d="M125 504v127h588v-127h-588z" />
<glyph unicode="&#x2013;" horiz-adv-x="851" d="M49 504v127h754v-127h-754z" />
<glyph unicode="&#x2014;" horiz-adv-x="1437" d="M49 504v127h1340v-127h-1340z" />
<glyph unicode="&#x2018;" horiz-adv-x="309" d="M49 1286q0 27 8 45l99 195h104l-53 -144q2 0 22 -20q31 -31 31 -76q0 -43 -30.5 -73.5t-73.5 -30.5t-74 30q-33 33 -33 74z" />
<glyph unicode="&#x2019;" horiz-adv-x="309" d="M49 1182l55 143l-22 23q-31 31 -31 73q0 43 31 74t74 31t73.5 -31t30.5 -74q0 -27 -8 -45l-96 -194h-107z" />
<glyph unicode="&#x201a;" horiz-adv-x="309" d="M49 -150l55 144l-22 22q-31 31 -31 74t31 74t74 31t73.5 -31t30.5 -74q0 -27 -8 -45l-96 -195h-107z" />
<glyph unicode="&#x201c;" horiz-adv-x="540" d="M49 1286q0 27 8 45l99 195h104l-53 -144q2 0 22 -20q31 -31 31 -76q0 -43 -30.5 -73.5t-73.5 -30.5t-74 30q-33 33 -33 74zM283 1286q0 27 8 45l96 195h105l-56 -144q4 0 25 -20q31 -31 31 -76q0 -43 -31 -73.5t-74 -30.5t-73.5 30.5t-30.5 73.5z" />
<glyph unicode="&#x201d;" horiz-adv-x="540" d="M49 1182l55 143l-22 23q-31 31 -31 73q0 43 31 74t74 31t73.5 -31t30.5 -74q0 -27 -8 -45l-96 -194h-107zM283 1182l55 143q-2 0 -25 23q-31 31 -30 73q0 43 30.5 74t73.5 31t74 -31t31 -74q0 -27 -9 -45l-96 -194h-104z" />
<glyph unicode="&#x201e;" horiz-adv-x="540" d="M49 -150l55 144l-22 22q-31 31 -31 74t31 74t74 31t73.5 -31t30.5 -74q0 -27 -8 -45l-96 -195h-107zM283 -150l55 144q-2 0 -25 22q-31 31 -30.5 74t31 74t73.5 31t74 -31t31 -74q0 -27 -9 -45l-96 -195h-104z" />
<glyph unicode="&#x2020;" horiz-adv-x="755" d="M100 1415v96h230v201h96v-201h231v-96h-231v-1255h-96v1255h-230z" />
<glyph unicode="&#x2021;" horiz-adv-x="755" d="M100 915v99h230v401h-230v96h230v201h96v-201h231v-96h-231v-401h231v-99h-231v-755h-96v755h-230z" />
<glyph unicode="&#x2022;" horiz-adv-x="2928" d="M147 -59q20 8 28.5 14t8.5 8v180q0 23 -34 33q92 45 126 68q20 -4 23 -51v-3l25 13l116 41q8 -39 19 -76q9 -34 18 -98q2 -8 2 -25q0 -53 -37 -111q-51 -80 -127 -143q53 96 54 180q0 14 -4 43q-18 102 -31 127q-35 -23 -35 -53v-117q0 -6 2 -12t37 -16q-31 -9 -86 -43 q-20 -10 -33 -11q-39 1 -72 52zM213 1092v28q223 61 295 146q74 106 174 106h8q131 0 131 -78q0 -29 -18 -49v-8q20 -125 110 -125l-69 301q23 0 84 90l252 303h546q27 -20 252 -329q55 -61 56 -91v-14l-49 -182l14 -41l-29 -43h8q117 49 117 131v8q-18 20 -18 49 q0 78 131 78h8q104 0 211 -139q72 -59 258 -113v-28q-20 0 -21 -15l7 -8v-4q-6 -29 -43 -29h-15l-215 -14q-33 29 -106 29l-62 26l-8 -20q25 -84 121 -84l18 -6q78 6 78 18v8l-12 21v8l27 -14l34 6h113l41 8l22 -8v-15q0 -39 -204 -69l-125 8v-23q111 -33 188 -32h43v-9 q-51 -70 -162 -69h-28q-76 0 -160 35v-9q0 -35 160 -90q0 -27 -76 -34q-45 0 -191 63q0 -35 70 -92l-18 -14l-136 43v-7l23 -57l-29 -6q-39 0 -133 125l-61 -307v-6h-744q-39 0 -84 292q-72 -92 -118 -104l-29 6l22 64h-8q-86 -43 -133 -43l-12 22q70 43 69 84h-8 q-127 -63 -188 -63q-70 8 -70 34q160 55 160 90v9h-6q-68 -35 -154 -35h-28q-111 0 -162 69v9h43q78 0 188 32v23l-139 -8q-190 33 -191 69v15h15v8l51 -8h111l28 -6l33 14v-8l-12 -21v-8q0 -12 69 -18q147 12 148 102l-8 8q-47 -25 -140 -35q0 -10 -28 -20l-215 14h-15 q-37 0 -43 29l6 18zM424 1098l14 -15h90l23 23v14h-14v6l-113 -20v-8zM451 -160q0 68 69 99q-8 18 -8 24v180q0 23 -35 33q92 45 127 68q20 -4 23 -51v-222q2 -16 12 -16q12 0 33 18v170q0 25 -33 33q86 41 125 68q20 -4 22 -51v-181q0 -51 -79 -88q-76 -35 -125 -35h-4 q-45 0 -54 -32q-2 -6 -2 -17q0 -22 25 -30q12 -4 20 -5q29 0 70 23q33 20 61 20q18 0 33 -8q18 -10 31 -33q6 -8 6 -20q0 -10 -10 -25q-16 -16 -33 -16q-4 0 -16 4q-29 18 -43 51l-4 4q-4 0 -13 -8q-53 -53 -102 -53q-18 0 -33 6q-63 20 -63 88v2zM522 860h90q88 0 125 78 v47h-6l-110 -47q0 -12 -78 -41l-21 -23v-14zM690 1317l21 -43l69 29v20h-90v-6zM696 1042l9 -6h26l14 15l-20 47h-14zM705 799l6 -8v-7q111 39 110 125v6h-6q-63 -41 -110 -110v-6zM774 967h21l14 14v12q0 10 -29 21l-6 -6v-41zM797 -59q18 10 26 14q8 6 8 8v180 q0 25 -32 33q80 41 125 68q20 -4 22 -51v-3q16 8 27 13l86 41q2 -8 26 -41q10 -10 13 -17q6 2 12 5.5t13 6.5t14 5l86 41q0 -6 24 -41q27 -37 27 -51v-181l4 -12q2 -6 33 -16v200q0 23 -35 33q92 45 127 68q23 -47 27 -51q8 2 24 10l115 41q14 -70 28 -115q10 -37 11 -59 q0 -31 -13 -56q-27 -57 -96 -96q-41 -20 -76 -31v-57q0 -2 4 -14q4 -10 37 -17q-43 -16 -86 -45q-16 -10 -30 -10q-37 0 -74 53q20 8 28.5 14.5t8.5 8.5v121q-27 -10 -82 -43q-12 -6 -25 -7q-27 0 -45 37v144q-4 31 -33 69q-12 -20 -14 -37v-133l4 -12q2 -6 35 -16 q-20 -6 -84 -45q-12 -6 -25 -7q-27 0 -45 37v144q-4 31 -32 69q-18 -14 -19 -37v-133l4 -12q2 -6 19 -16l-70 -43q-20 -10 -33 -11q-36 1 -69 52zM829 762h7l63 22v76h-6q-64 -32 -64 -98zM850 938l22 -23h7l14 15v8l-21 20h-8l-14 -14v-6zM934 762l8 -6v-8q23 8 41 36v27 l-12 14l-37 -34v-29zM934 889l8 -6h6l15 14l-15 12zM948 1448h23q195 231 237 301q-23 0 -22 20h-6q-113 -113 -113 -153q-119 -131 -119 -168zM963 1350h8l6 -7h6q0 33 90 134l164 223l-14 14l-66 -84q-171 -210 -194 -280zM1004 1176q68 -453 196 -490l-188 510h-8v-20z M1018 1343l223 -643h408q84 229 188 609l-70 110q-162 248 -161 275h-336l-252 -344v-7zM1180 504l28 -8l146 69v8q0 12 -84 29q-35 0 -90 -92v-6zM1237 963v6q63 147 63 202q-43 90 -43 127q35 182 183 183h4q178 0 178 -183q0 -34 -49 -141v-6l69 -188h-405zM1255 657 l15 -14h309l70 6v8h-394zM1427 68q0 -23 15 -45q15 -25 37 -25q25 2 28 37q-4 33 -18 57q-10 16 -27 49q-35 -24 -35 -73zM1544 565l154 -69l20 8v6q-37 70 -84 92q-90 -16 -90 -29v-8zM1589 -59q20 8 28.5 14t8.5 8v385q0 23 -35 35q86 41 125 51q18 -28 43 -55 q-18 -2 -18 -23v-159q4 0 8 4t8 4l115 41q8 -39 18 -76q10 -27 21 -80q2 -6 2 -18q0 -45 -27 -101q-35 -76 -123 -139q43 80 43 150q0 25 -6 49q-23 86 -35 112q-16 -10 -24 -24v-148l4 -12q2 -6 35 -16q-31 -9 -86 -43q-20 -10 -33 -11q-39 1 -72 52zM1628 1708l182 -289 q55 -84 91 -84l26 23l-258 385zM1704 1743q195 -256 231 -287v6q-176 264 -231 301v-20zM1718 727h8q96 0 168 449q-6 49 -22 49q-43 -53 -154 -463v-35zM1901 811q0 -33 55 -63l8 8v35l-49 40q-14 0 -14 -20zM1925 29q0 41 14 69q27 59 132 105l114 41q6 -39 29 -115 q10 -29 10 -59.5t-12 -55.5q-27 -57 -96 -96q-70 -33 -103 -33h-8q-43 4 -68 72q-12 37 -12 72zM1935 897l15 -14l14 14l-22 12l-7 -8v-4zM1999 784l63 -22h6v8q0 55 -63 90h-6v-76zM2005 930l14 -15h6l23 23v6l-14 14h-9l-20 -20v-8zM2044 68q0 -23 14 -45q14 -25 37 -25 q29 4 29 37q-2 29 -21 57l-24 49q-35 -24 -35 -73zM2077 909q0 -86 110 -125l6 7v14q-47 70 -110 110h-6v-6zM2091 981l12 -14h21v32l-21 23l-12 -14v-27zM2118 1303l69 -29l21 43v6h-90v-20zM2146 1057l21 -21h20l15 15l-15 47h-20q-21 -6 -21 -41zM2161 967 q0 -90 116 -107h99v14q-23 29 -99 56q0 20 -84 37l-26 18h-6v-18zM2220 -59q20 8 28.5 14t8.5 8v180q0 23 -35 33q86 41 125 68q20 -4 23 -51v-3l28 13l115 41q16 -74 16 -76q14 -39 23 -98q2 -8 2 -23q0 -55 -37 -113q-43 -70 -129 -143q51 94 51 180q0 14 -4 43 q-20 109 -29 127q-35 -25 -34 -53h-2v-117l4 -12q2 -6 36 -16q-27 -8 -83 -43q-20 -10 -33 -11q-37 1 -74 52zM2347 1106l23 -23h90l14 15v8l-104 20l-23 -6v-14zM2560 131q0 23 8 39q12 18 29 27l8 4v65q0 61 39 113q35 47 129 53q-53 -57 -53 -158v-86q16 6 45 23 q8 -18 8 -41t-8 -39q-10 -16 -29 -25q-12 -4 -16 -4v-88q4 -31 26 -30q16 0 35 10q-23 -49 -76 -90q-18 -12 -36 -13q-39 0 -99 50q20 8 29 14q6 4 6 8v150q-8 -4 -37 -21q-8 19 -8 39z" />
<glyph unicode="&#x2026;" horiz-adv-x="2066" d="M100 92q0 43 31 74t74 31t73.5 -31t30.5 -74t-30.5 -73.5t-73.5 -30.5t-74 30.5t-31 73.5zM727 92q0 41 33 74q31 31 74 31t73.5 -31t30.5 -74t-30.5 -73.5t-73.5 -30.5t-74 30q-33 33 -33 74zM1358 92q0 45 28 74q31 31 76 31q43 0 74 -31t31 -74t-31 -73.5t-74 -30.5 q-45 0 -76 30q-28 29 -28 74z" />
<glyph unicode="&#x202f;" horiz-adv-x="376" />
<glyph unicode="&#x2030;" horiz-adv-x="1685" d="M80 927.5q0 96.5 70 166.5q68 68 166 67.5t165.5 -68t67.5 -166t-68 -165.5q-70 -70 -166 -70t-165.5 69.5t-69.5 166zM102 66l871 1243l104 -72l-868 -1243zM205 928q0 -47 31 -78q33 -33 79 -33q41 0 78 33q33 31 33 78q0 45 -33 77.5t-78 32.5q-49 0 -79 -32 q-31 -35 -31 -78zM633 374.5q0 98.5 67 166.5q70 70 166.5 69.5t166 -70t69.5 -165.5t-70 -166q-68 -68 -166 -68t-165.5 67.5t-67.5 166zM756 375q0 -45 32.5 -78t77.5 -33q41 0 78 33q33 31 33 78q0 45 -33 77.5t-78 32.5q-47 0 -78 -32q-32 -37 -32 -78zM1139 374.5 q0 98.5 67 166.5q70 70 166 69.5t166 -70t70 -165.5t-70 -166q-68 -68 -166 -68t-165.5 67.5t-67.5 166zM1262 375q0 -45 32.5 -78t77.5 -33q41 0 78 33q33 31 33 78q0 45 -33 77.5t-78 32.5q-47 0 -78 -32q-32 -37 -32 -78z" />
<glyph unicode="&#x2039;" horiz-adv-x="645" d="M100 446l447 480v-160l-297 -320l297 -319v-160z" />
<glyph unicode="&#x203a;" horiz-adv-x="645" d="M100 -33v160l295 319l-295 320v160l447 -480z" />
<glyph unicode="&#x2044;" horiz-adv-x="1071" d="M49 172l871 1243l104 -72l-870 -1243z" />
<glyph unicode="&#x2215;" horiz-adv-x="1071" d="M49 172l871 1243l104 -72l-870 -1243z" />
<glyph unicode="&#x205f;" horiz-adv-x="471" />
<glyph unicode="&#x20a3;" horiz-adv-x="985" d="M49 348v127h150v1041h688v-127h-561v-568h561v-127h-561v-219h266v-127h-266v-348h-127v348h-150z" />
<glyph unicode="&#x20a4;" horiz-adv-x="1110" d="M100 43q119 104 156 150q94 113 94 227h-217v125h209q-4 37 -14 67h-195v127h148q-8 16 -21 39q-104 168 -117 326q-2 12 -2 37q0 133 90 241q102 121 261 136q6 0 17 1t17 1q135 0 244 -90q123 -106 137 -261q2 -14 2 -43q0 -70 -28 -133l-121 41q20 55 20 101 q0 4 -1 12t-1 12q-8 104 -90 172q-72 59 -160 60q-4 0 -12 -1t-12 -1q-104 -10 -172 -89q-59 -68 -60 -159v-27q10 -104 70 -227q47 -76 76 -148h221v-127h-180q9 -28 12 -67h168v-125h-160q-6 -172 -108 -293q43 16 155 16q66 0 138 -16q84 -20 167 -21q66 0 156 23 l25 -125q-98 -25 -181 -24q-88 0 -172 20q-90 18 -155 18q-63 0 -101 -14q-92 -33 -198 -86z" />
<glyph unicode="&#x20a7;" horiz-adv-x="1830" d="M150 0v1516h368q160 -25 270 -148q133 -150 134 -354q0 -23 -4 -68h63v385h129v-385h229q52 31 117 31q100 0 166 -66q63 -63 64 -147v-19l-113 -45q-12 90 -41 119q-31 31 -76 31t-77.5 -33t-32.5 -80t32 -80q16 -16 92 -65q115 -61 172 -119q84 -88 84 -205 q0 -121 -84 -205q-86 -86 -204.5 -86t-204.5 86q-84 84 -84 205l125 33q0 -104 49 -149q51 -47 114.5 -47.5t114.5 47.5q49 45 50 116q0 66 -48 117q-29 29 -114 84q-113 61 -152 100q-70 68 -69 168q0 47 14 84h-123v-821h-129v821h-92q-35 -90 -98 -164 q-131 -145 -322 -145h-205v-512h-114zM264 639h205q143 0 240 109q98 111 98 266q0 154 -98.5 264.5t-239.5 110.5h-205v-750z" />
<glyph unicode="&#x20ac;" horiz-adv-x="1404" d="M100 539l25 127h133v65h-119l25 127h94v131q0 217 156 373q154 154 373 154t389 -170l-95 -93q-131 131 -295 131q-162 0 -278.5 -116.5t-116.5 -278.5v-131h608l-24 -127h-584v-65h570l-25 -127h-545v-37q0 -166 117 -281q119 -115 278 -115q162 0 281 115 q72 72 102 178h136q-41 -166 -146 -270q-156 -156 -373 -156t-372.5 156t-155.5 373v37h-158z" />
<glyph unicode="&#x2116;" horiz-adv-x="1953" d="M125 0v1516h127l721 -1250v1250h127v-1516h-119l-729 1262v-1262h-127zM1124 1245q0 115 80 195t197 80h26q115 0 195 -80t80 -195t-80 -194.5t-195 -79.5h-26q-117 0 -197 79.5t-80 194.5zM1130 838v75h621v551h78v-626h-699zM1239 1245.5q0 -65.5 47 -112.5 q45 -43 127 -48q82 4 127 48q47 47 47 112.5t-47 112.5q-45 43 -127 47q-82 -4 -127 -47q-47 -47 -47 -112.5z" />
<glyph unicode="&#x2122;" horiz-adv-x="1230" d="M100 1432v92h451l233 -359l234 359h86v-647h-96v458l-224 -344l-223 344v-458h-96v555h-100v-555h-99v555h-166z" />
<glyph unicode="&#x2212;" horiz-adv-x="1028" d="M125 504v127h780v-127h-780z" />
<glyph unicode="&#x2248;" horiz-adv-x="1239" d="M125 508q4 70 22 115q47 113 158 149q23 8 57 8q104 0 269 -94q166 -96 239 -96q14 0 21 2q59 18 84 78q12 31 12 88l129 -21q-6 -66 -24 -114q-47 -113 -156 -150q-25 -8 -59 -8q-104 0 -267 94q-166 96 -241 96q-12 0 -19 -2q-59 -18 -84 -78q-14 -35 -14 -88zM125 778 q4 74 22 117q45 111 158 147q23 8 57 9q104 0 269 -95q166 -96 239 -96q14 0 21 2q59 18 84 78q12 31 12 88l129 -18q-6 -68 -24 -117q-47 -113 -156 -150q-25 -8 -59 -8q-104 0 -267 94q-168 98 -241 99q-12 0 -19 -2q-59 -18 -84 -78q-14 -39 -14 -90z" />
<glyph unicode="&#x2264;" horiz-adv-x="1341" d="M100 551l1143 416v-136l-772 -280l772 -283v-135zM186 0v127h1057v-127h-1057z" />
<glyph unicode="&#x2265;" horiz-adv-x="1341" d="M100 0v127h1055v-127h-1055zM100 133v135l772 283l-772 280v136l1143 -416z" />
<glyph unicode="&#xe000;" horiz-adv-x="945" d="M0 945h945v-945h-945v945z" />
</font>
</defs>
</svg>
